<?xml version="1.0" standalone="no"?>
<!DOCTYPE svg PUBLIC "-//W3C//DTD SVG 20010904//EN"
 "http://www.w3.org/TR/2001/REC-SVG-20010904/DTD/svg10.dtd">
<svg version="1.0" xmlns="http://www.w3.org/2000/svg"
 width="300.000000pt" height="300.000000pt" viewBox="0 0 300.000000 300.000000"
 preserveAspectRatio="xMidYMid meet">
<metadata>
Created by potrace 1.10, written by Peter Selinger 2001-2011
</metadata>
<g transform="translate(0.000000,300.000000) scale(0.050000,-0.050000)"
fill="#000000" stroke="none">
<path d="M860 5764 c-90 -47 -160 -181 -160 -303 l0 -91 -39 63 c-106 175
-361 99 -361 -107 0 -62 -8 -86 -29 -86 -68 0 -97 -171 -40 -229 18 -17 40
-31 50 -31 11 0 19 -39 19 -86 0 -206 255 -282 361 -107 l39 63 0 -91 c0 -203
141 -349 322 -333 194 16 278 136 278 392 0 149 3 162 40 162 22 0 40 -12 40
-27 0 -15 24 -62 53 -105 29 -43 61 -114 71 -157 22 -97 97 -248 170 -344 30
-40 79 -129 108 -197 64 -154 198 -355 358 -539 76 -88 128 -169 141 -220 12
-44 67 -242 122 -438 118 -420 128 -375 -129 -599 -108 -94 -196 -177 -194
-183 1 -7 -49 -69 -112 -137 -192 -210 -202 -277 -109 -685 82 -356 162 -735
156 -740 -3 -2 -68 -24 -145 -49 -208 -67 -303 -183 -261 -318 16 -50 798 -67
847 -18 45 45 29 234 -28 332 l-53 89 24 313 c17 224 18 348 3 441 -12 71 -18
132 -14 135 3 4 74 58 156 121 83 63 206 162 274 220 160 135 179 134 382 -37
94 -78 227 -178 296 -222 94 -61 123 -89 113 -114 -26 -65 -32 -339 -13 -602
19 -260 18 -272 -23 -330 -35 -49 -43 -89 -43 -210 l0 -150 420 0 420 0 6 95
c8 127 -54 191 -246 255 -77 25 -143 48 -146 51 -9 7 41 245 137 659 130 560
139 534 -396 1092 -113 117 -205 223 -205 234 0 17 70 298 202 808 11 44 73
136 154 230 154 179 287 382 343 523 21 53 75 149 119 213 80 113 162 298 162
366 1 19 24 56 51 82 28 27 56 74 63 105 28 140 86 69 86 -105 0 -252 82 -372
268 -393 182 -20 332 131 332 336 1 85 2 86 25 39 90 -180 375 -115 375 85 0
61 12 88 50 119 75 59 60 236 -21 236 -21 0 -29 24 -29 87 0 210 -282 279
-375 93 -23 -47 -24 -45 -25 41 0 203 -141 349 -322 333 -194 -16 -278 -136
-278 -392 0 -158 -23 -212 -48 -112 -8 33 -31 53 -67 61 -30 7 -74 21 -97 32
-23 11 -59 18 -80 15 -21 -3 -59 1 -85 10 -28 10 -56 7 -68 -5 -11 -11 -47
-16 -78 -9 -71 14 -137 -38 -137 -107 l0 -47 -1040 0 c-990 0 -1040 2 -1040
36 0 92 -93 133 -280 124 -16 -1 -58 -1 -93 -1 -34 0 -73 -13 -87 -29 -13 -16
-33 -25 -42 -18 -35 21 -100 -16 -123 -69 -20 -46 -25 -29 -34 137 -18 319
-207 466 -441 344z m262 -35 c128 -66 138 -109 138 -615 0 -505 -8 -543 -126
-615 -130 -79 -309 -25 -365 111 -42 99 -42 901 0 1000 54 130 222 187 353
119z m4014 -10 c112 -68 124 -126 124 -609 0 -483 -12 -541 -124 -609 -126
-78 -298 -32 -365 97 -46 88 -46 936 0 1024 67 129 239 175 365 97z m-4521
-284 c110 -102 56 -649 -68 -696 -155 -59 -217 47 -217 371 0 364 109 489 285
325z m4966 35 c76 -40 89 -93 89 -360 0 -279 -13 -325 -100 -361 -173 -73
-230 20 -230 372 0 288 12 326 120 365 48 17 58 16 121 -16z m-3839 -121 c28
-26 41 -27 74 -7 33 21 47 21 72 -1 31 -25 47 -152 17 -137 -160 83 -244 99
-295 56 -36 -30 -39 -102 -5 -139 21 -21 15 -24 -32 -13 -34 8 -68 4 -85 -10
-39 -32 -99 23 -116 106 -15 76 19 123 79 107 27 -6 54 1 70 20 15 19 43 27
68 21 23 -6 55 -2 71 9 39 24 41 24 82 -12z m2666 10 c33 1 66 -9 74 -23 9
-13 41 -25 72 -25 47 -1 57 -11 63 -58 13 -120 -46 -204 -108 -152 -14 11 -50
15 -82 7 -47 -11 -53 -8 -32 13 121 130 -77 214 -247 106 -47 -31 -68 -18 -68
42 0 76 101 128 127 66 8 -18 18 -14 34 12 16 26 36 33 66 23 24 -7 69 -12
101 -11z m-2573 -162 c114 -70 135 -203 51 -330 -30 -46 -29 -54 12 -128 24
-43 60 -125 79 -181 30 -87 54 -116 152 -185 155 -110 292 -270 251 -293 -17
-9 -102 -71 -190 -137 -194 -146 -183 -151 -342 165 -61 122 -142 266 -180
319 -37 54 -88 162 -111 240 -24 79 -64 168 -90 200 -82 99 -67 113 122 113
151 0 170 -4 181 -40 19 -61 53 -48 38 15 -20 85 -64 143 -118 157 -31 8 -55
31 -63 62 -24 95 74 105 208 23z m2513 51 c60 -23 38 -105 -36 -136 -77 -32
-82 -39 -101 -127 -9 -42 -6 -65 7 -65 12 0 22 14 22 30 0 24 33 30 179 30
203 0 206 -5 101 -141 -30 -39 -62 -102 -70 -140 -19 -88 -113 -276 -176 -351
-27 -32 -55 -80 -64 -108 -22 -74 -143 -302 -195 -366 l-45 -56 -184 136
c-101 75 -184 141 -185 146 -2 30 179 212 279 280 79 54 119 96 128 134 7 31
42 113 76 182 60 120 62 129 32 180 -102 175 -50 293 164 370 17 6 32 12 33
12 2 1 18 -3 35 -10z m-2998 -87 c19 -86 44 -98 215 -95 96 1 164 -7 179 -22
19 -19 -28 -24 -210 -24 l-234 0 0 100 c0 110 29 134 50 41z m2710 31 c0 -9
-10 -52 -23 -95 l-23 -77 -1012 0 -1012 0 -26 81 c-14 45 -21 88 -16 95 12 21
2112 17 2112 -4z m640 -72 l0 -100 -224 0 c-178 0 -219 5 -199 25 16 16 77 23
173 21 158 -4 210 25 210 118 0 20 9 36 20 36 11 0 20 -45 20 -100z m-4400
-12 c0 -64 -7 -89 -25 -83 -27 9 -44 102 -27 147 23 59 52 24 52 -64z m5450 2
c0 -44 -11 -80 -25 -85 -18 -6 -25 19 -25 85 0 66 7 91 25 85 14 -5 25 -41 25
-85z m-3293 -189 c-24 -33 -45 -89 -46 -125 -2 -36 -14 -87 -28 -112 -59 -107
-40 -390 33 -494 36 -52 63 -103 59 -114 -4 -12 -30 14 -58 57 -67 100 -207
240 -302 300 -41 26 -75 59 -75 73 0 14 -31 91 -70 171 -64 135 -68 150 -40
189 17 24 30 59 30 78 0 33 25 36 271 36 l270 0 -44 -59z m1017 7 c105 -79
124 -137 130 -401 l6 -242 -66 -92 c-46 -65 -62 -105 -54 -138 13 -49 -33 -94
-164 -162 -95 -49 -123 -40 -48 16 79 58 94 79 191 257 74 139 84 204 31 204
-20 0 -34 33 -45 106 -18 126 -62 200 -130 217 -28 7 -69 31 -90 52 -64 64
-204 40 -359 -61 -69 -45 -163 -93 -209 -107 -81 -25 -84 -28 -97 -131 -14
-111 -50 -166 -50 -75 0 46 -5 50 -30 29 -45 -37 -36 -124 20 -200 28 -37 50
-78 50 -90 0 -37 106 -168 170 -210 33 -22 49 -40 36 -40 -92 0 -299 151 -264
193 17 20 6 52 -45 132 -80 125 -95 404 -28 507 19 28 29 64 23 79 -20 52 29
142 94 174 109 53 852 40 928 -17z m590 -29 l34 -81 -69 -143 c-38 -79 -69
-155 -69 -169 0 -14 -25 -41 -55 -60 -121 -77 -207 -157 -289 -269 -103 -141
-124 -125 -32 24 112 180 83 619 -47 728 l-60 51 276 0 277 0 34 -81z m-840
-197 c15 -21 49 -41 75 -45 110 -16 184 -355 114 -520 -165 -382 -718 -367
-835 23 -26 87 34 362 82 376 24 7 25 4 5 -17 -38 -41 -30 -59 26 -59 47 0 49
-3 20 -31 -60 -61 -25 -149 59 -149 85 0 116 78 57 144 -32 35 -31 36 15 31
71 -8 61 49 -16 85 l-64 30 144 85 c162 96 273 112 318 47z m-414 -332 c0 -26
-16 -42 -45 -46 -45 -7 -65 49 -31 83 27 27 76 2 76 -37z m-290 -455 l84 -125
108 7 c89 6 108 1 108 -26 0 -64 92 -131 180 -131 88 0 180 67 180 132 0 28
17 32 106 24 l106 -9 55 92 c31 50 73 112 94 138 l39 47 181 -135 c99 -74 178
-142 175 -150 -3 -9 -55 -76 -116 -148 l-110 -132 -111 -425 -112 -424 -479
-5 -479 -6 -118 428 -118 428 -126 145 -126 145 184 136 c100 75 189 132 197
128 8 -5 53 -66 98 -134z m620 -129 c0 -91 -167 -142 -243 -73 -85 77 -50 117
103 117 131 0 140 -3 140 -44z m358 -1231 c10 -25 98 -123 197 -218 l180 -173
-223 -222 c-262 -261 -219 -249 -386 -106 -278 238 -280 238 -528 27 l-185
-156 -211 219 c-117 120 -212 226 -212 234 0 8 87 92 194 187 106 95 199 190
206 213 21 67 943 62 968 -5z m-1024 -905 c-25 -22 -66 -53 -91 -70 -44 -29
-45 -35 -23 -168 13 -84 16 -223 8 -356 l-14 -217 -170 5 -171 6 -86 380
c-123 541 -120 577 65 770 l111 117 208 -214 208 -213 -45 -40z m1649 200 c57
-93 -4 -537 -135 -975 -9 -30 -36 -35 -177 -35 l-167 0 -15 193 c-13 183 -4
386 22 479 10 34 -7 54 -91 108 l-103 66 216 218 217 218 98 -106 c54 -58 115
-133 135 -166z m-1783 -1140 l0 -90 -139 0 -139 0 -21 75 c-11 41 -21 82 -21
90 0 8 72 15 160 15 l160 0 0 -90z m1640 75 c0 -8 -10 -49 -21 -90 l-21 -75
-137 0 -137 0 -8 81 c-4 45 -3 85 2 90 15 16 322 10 322 -6z m-1569 -274 c16
-39 29 -115 29 -170 l0 -101 -400 0 -400 0 0 51 c0 28 13 77 30 108 28 55 53
69 280 150 45 16 158 29 256 30 l176 1 29 -69z m1689 19 c186 -63 240 -111
240 -213 l0 -77 -390 0 -390 0 0 111 c0 244 177 302 540 179z"/>
<path d="M3137 4520 c-51 -43 -23 -88 41 -65 27 10 27 6 -3 -28 -61 -69 -32
-147 55 -147 87 0 119 88 55 152 -33 34 -33 35 10 23 64 -16 80 25 26 68 -59
48 -125 47 -184 -3z m139 -155 c5 -34 -3 -45 -33 -45 -48 0 -71 30 -55 72 17
45 81 25 88 -27z"/>
<path d="M2924 4205 c5 -25 26 -35 76 -35 50 0 71 10 76 35 6 29 -8 35 -76 35
-68 0 -82 -6 -76 -35z"/>
<path d="M2825 4105 c-15 -39 32 -82 115 -107 93 -28 230 26 230 90 0 47 -327
63 -345 17z m274 -50 c-24 -19 -68 -35 -99 -35 -31 0 -75 16 -99 35 -42 34
-39 35 99 35 138 0 141 -1 99 -35z"/>
</g>
</svg>
