<?xml version="1.0" standalone="no"?>
<!DOCTYPE svg PUBLIC "-//W3C//DTD SVG 20010904//EN"
 "http://www.w3.org/TR/2001/REC-SVG-20010904/DTD/svg10.dtd">
<svg version="1.0" xmlns="http://www.w3.org/2000/svg"
 width="300.000000pt" height="300.000000pt" viewBox="0 0 300.000000 300.000000"
 preserveAspectRatio="xMidYMid meet">
<metadata>
Created by potrace 1.10, written by Peter Selinger 2001-2011
</metadata>
<g transform="translate(0.000000,300.000000) scale(0.100000,-0.100000)"
fill="#000000" stroke="none">
<path d="M1110 2819 c-370 -78 -376 -80 -433 -132 -62 -58 -83 -120 -101 -301
-9 -88 -18 -160 -19 -160 -1 -1 -12 -7 -24 -13 -13 -8 -57 -13 -100 -13 -77 0
-78 0 -78 -25 l0 -26 90 3 90 3 0 28 c-1 21 4 27 20 27 16 0 20 7 22 33 5 88
33 315 41 337 30 78 113 146 197 163 17 3 97 20 179 37 135 28 170 31 153 14
-3 -3 -29 -12 -59 -19 -29 -7 -44 -13 -33 -14 11 0 37 3 57 8 28 7 38 5 42 -5
4 -10 -4 -17 -25 -21 l-31 -6 6 -116 c4 -64 9 -148 12 -187 5 -66 4 -72 -15
-77 -12 -3 -23 -2 -25 1 -2 4 -5 59 -6 122 -1 63 -5 133 -10 155 -7 36 -3
-226 5 -280 3 -21 7 -22 38 -9 16 6 18 2 15 -22 -2 -21 -9 -30 -25 -32 -21 -3
-23 -9 -24 -80 -1 -42 -8 42 -15 188 -8 146 -19 273 -24 283 -8 14 -6 17 11
17 13 0 18 -4 13 -12 -6 -10 -4 -10 8 0 26 21 15 47 -20 50 -28 3 -32 0 -32
-20 0 -13 4 -28 9 -33 5 -6 12 -85 16 -176 l7 -165 -119 -37 c-65 -20 -146
-46 -180 -56 l-63 -19 5 51 c22 220 27 251 45 287 29 58 80 91 179 117 61 16
73 22 41 18 -74 -7 -148 -34 -186 -67 -62 -55 -70 -87 -99 -413 -8 -99 -29
-304 -45 -455 -16 -151 -36 -353 -45 -448 -35 -391 -65 -646 -77 -654 -11 -6
-46 -2 -56 8 -2 1 1 56 7 121 12 127 16 161 54 498 14 121 33 285 41 365 15
137 45 413 82 740 17 156 30 199 72 243 39 42 70 55 179 77 101 21 166 38 148
39 -27 2 -235 -43 -270 -58 -49 -23 -89 -64 -110 -115 -9 -21 -25 -112 -35
-202 -10 -90 -22 -168 -25 -174 -3 -5 -6 -31 -6 -57 0 -92 -42 -445 -51 -428
-8 14 26 388 37 406 3 4 -2 9 -10 13 -8 3 -17 1 -20 -4 -3 -4 -1 -10 5 -12 6
-2 2 -62 -10 -163 -11 -88 -20 -174 -20 -191 0 -50 -35 -67 -131 -62 -64 2
-78 1 -74 -11 3 -7 0 -20 -6 -27 -10 -12 4 -14 85 -14 l96 0 0 30 c0 23 5 30
19 30 36 0 36 -13 -4 -382 -32 -302 -34 -312 -65 -316 -13 -2 -18 -7 -13 -10
8 -5 7 -43 -3 -127 -7 -66 -13 -127 -14 -137 0 -13 -7 -15 -40 -11 -48 7 -74
-10 -64 -41 12 -37 -44 -7 698 -370 164 -80 311 -146 326 -146 59 0 91 12 101
39 16 41 3 70 -40 87 -50 20 -46 -5 -67 484 -3 69 -8 161 -10 205 -3 44 -6
118 -7 165 -2 47 -6 90 -10 96 -4 7 -5 52 -3 102 3 58 0 92 -6 94 -7 3 -8 29
-4 78 l7 75 50 0 c48 0 67 -16 34 -29 -8 -3 -15 -13 -15 -22 0 -13 8 -9 29 15
16 18 27 39 24 47 -6 15 -44 15 -55 -1 -4 -5 -7 6 -7 25 1 20 3 27 6 16 4 -15
7 -16 15 -5 5 8 11 10 14 4 4 -11 242 0 253 11 3 3 -53 5 -124 3 -72 -1 -148
-1 -169 0 -22 1 -44 -3 -50 -9 -23 -23 -28 -7 -24 68 3 42 7 84 9 92 2 9 -2
14 -10 12 -11 -2 -13 13 -9 80 3 46 7 90 9 98 2 8 -2 14 -8 12 -9 -1 -13 11
-13 36 0 22 -3 86 -6 144 l-7 105 61 13 c104 22 197 10 295 -37 74 -36 85 -44
90 -72 4 -18 21 -52 38 -77 50 -74 67 -123 75 -224 4 -52 9 -90 10 -85 3 10
55 450 69 585 12 114 59 190 143 232 l47 23 -225 6 c-124 4 -314 7 -422 8
-119 0 -199 5 -203 11 -4 6 9 11 32 11 l38 2 -40 8 c-41 8 457 3 800 -7 154
-5 207 -3 278 11 49 9 91 14 94 11 3 -3 -8 -8 -23 -12 -67 -15 -89 -22 -69
-23 11 -1 34 3 52 8 25 7 33 6 38 -6 7 -19 8 -18 -40 -31 -38 -9 -38 -10 -9
-11 l30 -1 3 -152 c1 -84 6 -261 11 -393 5 -143 5 -246 -1 -257 -12 -21 -12
-31 0 -23 5 3 12 -5 15 -17 6 -27 -2 471 -11 695 -6 151 -5 157 13 157 22 0
24 -30 54 -785 11 -271 46 -1008 56 -1198 l7 -118 -29 7 c-16 4 -31 9 -34 11
-2 2 -13 246 -23 541 -10 295 -22 539 -27 542 -5 3 -14 37 -20 75 -10 63 -21
84 -42 85 -5 0 -8 -13 -8 -30 0 -16 -5 -30 -11 -30 -6 0 -9 14 -7 32 2 27 0
33 -17 33 -18 0 -20 -7 -20 -68 0 -63 1 -67 23 -67 15 0 22 -6 22 -20 0 -19
-7 -20 -127 -22 -71 -1 -154 -3 -185 -3 -44 -1 -58 2 -61 14 -3 11 -5 10 -6
-4 -1 -15 -8 -20 -31 -20 -23 0 -31 5 -35 25 -5 23 -10 25 -45 22 -31 -3 -39
-1 -36 9 4 13 22 168 72 614 19 172 26 201 63 252 40 55 104 84 205 93 l81 7
-76 2 c-66 1 -83 -3 -138 -30 -63 -32 -99 -72 -121 -134 -5 -16 -28 -194 -50
-395 -46 -419 -46 -417 -68 -423 -9 -3 6 -5 33 -6 54 -1 81 -13 71 -29 -4 -6
1 -17 9 -24 9 -7 25 -21 36 -30 23 -22 30 -23 23 -3 -3 8 -14 17 -25 20 -35
11 -20 23 31 23 45 0 50 -2 50 -23 0 -12 -7 -28 -15 -35 -8 -7 -15 -21 -15
-32 0 -18 -26 -133 -50 -220 -6 -20 -18 -39 -28 -41 -14 -4 -14 -5 -1 -6 29
-2 45 33 69 144 12 61 29 122 36 137 8 15 14 38 14 53 0 23 3 25 48 25 27 0
90 3 140 6 l92 7 0 -77 c0 -75 0 -76 26 -76 l26 0 -3 77 -4 77 38 4 38 3 -2
-75 c-2 -41 -7 -72 -12 -69 -4 2 -6 17 -4 31 2 15 2 20 -1 12 -3 -9 -10 0 -19
25 -13 39 -13 39 -8 5 3 -19 14 -53 25 -75 18 -36 21 -75 30 -301 5 -142 12
-316 15 -385 l6 -126 -31 5 c-25 4 -31 8 -27 23 4 16 -1 19 -34 19 -32 0 -37
-3 -32 -17 5 -13 2 -15 -15 -11 -15 4 -22 2 -22 -8 0 -8 9 -14 21 -14 18 0 21
-5 17 -34 -3 -27 0 -36 14 -39 26 -7 59 3 51 16 -4 6 2 8 18 4 13 -4 27 -7 32
-7 4 0 7 -14 7 -30 0 -24 6 -33 26 -40 31 -12 80 -13 102 -1 11 5 42 0 87 -14
44 -15 61 -23 45 -24 -32 -1 -50 -18 -49 -45 0 -20 0 -20 9 0 9 23 72 50 90
39 14 -9 12 -41 -4 -54 -7 -6 -33 -13 -57 -16 -36 -5 -93 9 -308 74 -145 43
-266 83 -270 89 -13 21 -91 19 -91 -3 0 -8 -7 -15 -15 -15 -9 0 -15 9 -15 24
0 21 -10 26 -117 56 -65 18 -119 34 -121 36 -2 1 6 35 18 76 12 40 28 98 36
128 8 30 22 78 30 107 l15 52 80 -6 c75 -6 79 -5 79 14 0 15 -6 21 -22 20 -13
-1 -47 2 -75 6 -44 6 -53 5 -53 -8 0 -8 -4 -15 -10 -15 -5 0 -10 9 -10 21 0
11 -4 29 -10 39 -10 19 -101 55 -123 47 -6 -2 12 -10 41 -17 29 -8 60 -22 69
-32 15 -16 14 -23 -7 -85 -12 -38 -31 -99 -41 -138 -31 -121 -43 -160 -53
-166 -5 -4 -6 -11 -2 -17 11 -19 -12 -62 -34 -62 -26 0 -25 1 6 192 17 104 23
162 16 173 -7 14 -10 13 -20 -12 -8 -21 -72 -365 -72 -389 0 -2 27 -4 59 -4
58 0 60 1 66 31 5 23 11 29 23 24 28 -12 64 -23 140 -45 58 -17 75 -26 82 -46
11 -29 40 -32 47 -4 4 15 14 20 39 20 20 0 34 -5 34 -12 0 -7 26 -38 57 -70
l57 -58 -38 0 c-29 0 -48 9 -82 36 -25 20 -47 34 -50 31 -3 -3 15 -21 40 -39
42 -33 44 -36 28 -51 -9 -10 -11 -17 -5 -17 6 0 16 7 23 15 18 22 102 20 123
-3 10 -10 17 -22 17 -25 0 -4 -40 -7 -89 -7 -73 0 -105 5 -170 29 l-81 28 0
-23 c0 -19 12 -26 93 -53 75 -25 108 -31 180 -31 63 0 89 4 93 13 9 24 -23 68
-95 129 -40 33 -70 62 -68 65 3 2 47 -10 98 -26 314 -99 412 -123 463 -117 56
6 76 24 76 67 0 36 -10 42 -112 69 l-88 23 0 81 c0 69 4 87 23 116 19 29 47
91 47 106 0 12 -30 1 -45 -16 -26 -28 -35 -25 -35 14 0 19 11 49 26 72 34 49
56 111 43 119 -5 4 -24 -6 -42 -21 l-32 -27 -3 35 c-2 26 7 55 32 103 33 60
45 105 30 105 -3 0 -20 -12 -39 -26 l-34 -25 0 90 c0 86 2 92 26 111 14 11 28
18 31 15 3 -2 -7 -28 -22 -56 -14 -29 -25 -54 -23 -56 7 -6 37 45 52 87 18 50
3 61 -34 26 -15 -14 -30 -26 -34 -26 -16 0 -5 47 25 107 28 57 32 74 30 141 0
42 -4 94 -8 117 l-7 40 -12 -35 c-7 -20 -9 -48 -5 -67 4 -18 4 -47 0 -65 -4
-18 -8 -29 -9 -24 -1 6 -7 1 -15 -10 -13 -17 -15 -10 -15 72 0 84 2 93 25 115
23 22 23 23 7 48 -9 14 -23 32 -30 39 -7 7 -13 30 -13 50 1 28 7 42 26 56 l26
19 -7 -24 c-4 -13 -14 -37 -22 -52 -21 -41 -9 -45 15 -5 42 71 33 128 -13 78
-26 -29 -31 -25 -33 23 -18 483 -24 604 -27 615 -3 6 4 12 13 12 39 0 57 55
27 80 -18 15 -121 8 -225 -14 -54 -12 -125 -13 -390 -6 -179 5 -413 10 -520
11 -107 1 -175 5 -150 8 45 6 45 6 45 46 l0 40 -65 2 c-36 1 -85 -3 -110 -8z
m168 -36 c-3 -26 -7 -28 -55 -31 -44 -3 -52 0 -58 17 -10 33 2 41 61 41 54 0
55 0 52 -27z m-108 -437 c12 -203 24 -374 27 -379 3 -6 17 3 30 19 30 38 30
14 -2 -54 -43 -93 -29 -197 18 -129 25 35 20 -1 -8 -61 -44 -95 -28 -196 20
-129 16 22 17 21 9 -13 -4 -19 -7 -68 -8 -109 -1 -50 -5 -76 -13 -78 -16 -6
-17 54 -3 93 15 39 3 43 -14 4 -12 -29 -12 -105 0 -119 2 -3 15 6 29 19 34 32
33 10 -4 -65 -21 -42 -28 -69 -24 -90 9 -58 12 -60 38 -35 32 30 31 23 -4 -58
-21 -50 -27 -78 -24 -109 5 -43 25 -58 37 -28 3 8 10 15 15 15 12 0 -5 -54
-26 -85 -13 -20 -18 -116 -6 -128 3 -4 17 0 31 9 23 15 24 15 17 -8 -4 -12
-16 -38 -28 -56 -19 -32 -19 -44 -13 -200 4 -92 9 -188 13 -215 6 -47 5 -47
-18 -39 -13 5 -26 18 -27 28 -7 33 -19 36 -20 5 -1 -25 4 -32 34 -41 19 -6 47
-9 63 -5 18 4 42 0 65 -12 32 -15 37 -21 34 -48 -3 -27 -7 -31 -50 -39 l-47
-9 -492 239 c-270 131 -497 247 -503 256 -7 11 -7 21 -1 27 13 13 80 -1 81
-17 1 -7 2 -16 3 -20 2 -13 79 -34 99 -27 11 3 136 -45 301 -116 155 -66 285
-119 287 -116 5 5 -141 71 -376 171 -155 65 -175 77 -178 99 -2 13 13 177 32
363 19 187 43 422 52 524 15 165 19 188 40 213 13 15 26 48 30 75 10 69 15 79
93 176 49 61 71 97 71 116 0 25 6 29 90 54 50 16 90 33 90 40 0 6 4 5 9 -3 5
-8 12 -99 16 -203 4 -103 11 -188 15 -188 4 0 6 30 4 68 -2 37 -1 58 2 47 3
-11 8 -27 11 -35 10 -28 2 -105 -13 -113 -15 -9 -19 -97 -8 -156 5 -25 11 -31
33 -31 24 0 26 3 24 42 0 24 -8 57 -17 73 -9 17 -16 41 -16 55 1 25 1 25 28
-8 15 -18 31 -30 35 -26 18 18 5 81 -27 134 -18 30 -36 69 -40 85 l-6 30 23
-27 c43 -53 51 -39 43 80 -3 59 -11 204 -16 322 -5 118 -12 241 -15 272 -5 49
-3 57 12 60 10 2 19 -1 20 -7 1 -5 12 -176 23 -379z m20 357 c0 -21 4 -101 9
-178 6 -77 12 -203 16 -280 3 -77 8 -163 11 -191 5 -39 2 -53 -10 -63 -14 -12
-16 -9 -16 21 0 38 -26 509 -35 646 -5 70 -3 82 10 82 11 0 15 -10 15 -37z
m1328 0 c-3 -25 -8 -28 -42 -31 -40 -3 -56 8 -56 41 0 14 9 17 51 17 49 0 50
-1 47 -27z m-750 -42 l234 -6 -44 -31 c-68 -48 -96 -111 -110 -243 -7 -61 -15
-111 -18 -111 -4 0 -81 34 -171 76 -146 67 -172 76 -239 81 -56 4 -92 1 -134
-11 -32 -10 -59 -16 -61 -14 -2 2 -7 63 -12 136 l-8 132 165 -1 c91 -1 270 -4
398 -8z m706 -93 c3 -51 10 -194 16 -318 16 -330 20 -371 41 -399 20 -24 26
-57 10 -47 -5 4 -12 0 -15 -6 -3 -7 -4 -4 -1 7 2 11 1 26 -4 34 -11 18 -2
-266 10 -294 6 -17 8 -15 8 11 1 20 11 40 32 60 31 29 31 29 24 4 -11 -36 -46
-104 -58 -111 -6 -4 -6 -79 2 -215 27 -506 32 -725 15 -731 -9 -3 -19 172 -64
1202 -6 121 -17 358 -25 527 -18 361 -18 368 -6 368 5 0 12 -42 15 -92z m-964
-174 c19 -7 98 -41 175 -76 123 -56 140 -67 143 -90 2 -16 -3 -28 -13 -32 -9
-3 -13 -2 -10 4 8 14 -96 61 -141 65 -19 1 -41 8 -47 15 -10 10 -8 10 10 1 12
-6 25 -11 30 -11 4 1 -14 12 -40 26 -26 14 -53 22 -59 18 -7 -4 -8 -3 -4 4 10
17 -88 42 -163 42 -73 0 -156 -21 -144 -35 4 -5 0 -3 -9 4 -21 16 -24 49 -5
56 82 32 203 36 277 9z m-82 -51 c-21 -2 -55 -2 -75 0 -21 2 -4 4 37 4 41 0
58 -2 38 -4z m-380 -49 c-1 -9 -14 -21 -28 -25 -14 -4 -92 -28 -173 -53 -82
-25 -154 -46 -161 -46 -9 0 -12 9 -8 26 3 17 13 27 31 30 14 3 94 27 176 53
83 27 154 45 158 41 5 -5 7 -16 5 -26z m70 -16 c4 -32 18 -293 16 -296 -1 -2
-11 9 -22 25 -15 22 -21 52 -27 141 -7 105 -6 112 11 113 17 1 17 2 -1 7 -20
5 -20 5 0 13 11 4 20 8 21 8 0 1 1 -5 2 -11z m622 -67 c31 -17 34 -22 32 -58
-2 -28 3 -46 18 -64 16 -19 19 -20 12 -4 -16 33 -21 95 -8 95 31 -1 33 -15 20
-125 -17 -138 -21 -154 -23 -85 -1 57 -5 67 -65 164 -34 56 -46 97 -28 96 4
-1 23 -9 42 -19z m-910 -61 c-5 -17 -37 -65 -71 -108 -65 -81 -89 -125 -89
-166 0 -30 -18 -81 -26 -73 -3 3 -2 41 1 86 7 69 12 85 36 112 34 38 53 91 45
124 -6 22 -2 25 36 35 24 6 48 13 53 15 21 8 23 4 15 -25z m-122 -39 c2 -29
-3 -52 -19 -77 -12 -19 -23 -33 -26 -31 -2 3 -1 34 3 71 5 51 10 66 23 66 14
0 14 2 1 11 -13 9 -13 10 0 6 10 -2 16 -19 18 -46z m369 -53 c-2 -13 -4 -3 -4
22 0 25 2 35 4 23 2 -13 2 -33 0 -45z m48 -168 c8 -16 15 -43 15 -61 0 -31 0
-32 -20 -14 -14 13 -20 31 -20 62 0 23 2 43 5 43 2 0 11 -13 20 -30z m115 -39
c0 -22 -6 -44 -15 -51 -13 -11 -15 -7 -15 28 0 22 3 47 6 56 10 26 24 7 24
-33z m1120 -131 c0 -11 -4 -20 -10 -20 -5 0 -10 9 -10 20 0 11 5 20 10 20 6 0
10 -9 10 -20z m-1124 -109 c-15 -14 -16 -12 -16 21 0 20 6 49 12 65 12 28 13
27 16 -21 2 -35 -1 -54 -12 -65z m94 29 c0 -13 -7 -18 -20 -17 -11 1 -20 8
-20 17 0 9 9 16 20 17 13 1 20 -4 20 -17z m-64 -406 c-3 -8 -10 -14 -16 -14
-14 0 -13 63 2 97 12 28 13 27 16 -21 2 -27 1 -55 -2 -62z m1328 -41 l-29 -58
-3 34 c-3 26 3 40 24 62 15 16 30 27 32 24 3 -2 -8 -30 -24 -62z m-1328 -162
c-15 -14 -16 -11 -16 31 0 26 6 60 13 75 11 26 12 25 15 -31 2 -43 -1 -63 -12
-75z m1354 0 c-4 -16 -16 -41 -26 -57 l-19 -28 -3 34 c-3 27 2 39 23 57 33 29
35 29 25 -6z m-2163 -43 c-3 -13 -11 -84 -18 -158 -7 -74 -16 -139 -21 -145
-11 -13 -10 19 7 170 8 72 15 136 15 143 0 6 5 12 11 12 6 0 9 -9 6 -22z m829
-134 c-3 -8 -10 -14 -16 -14 -14 0 -13 77 3 103 11 20 12 18 15 -27 2 -27 1
-55 -2 -62z m1344 9 c0 -13 -42 -93 -49 -93 -17 0 -9 55 11 77 21 23 38 30 38
16z m-1319 -316 c11 -186 10 -220 -1 -227 -8 -5 -15 -8 -16 -7 -1 1 -8 98 -14
214 -10 171 -10 216 0 228 7 9 14 14 15 13 2 -2 9 -101 16 -221z m979 -162 c0
-12 -16 -15 -85 -15 -69 0 -85 3 -85 15 0 12 16 15 85 15 69 0 85 -3 85 -15z"/>
<path d="M872 1864 c-12 -8 -29 -29 -38 -46 -15 -28 -12 -27 25 12 35 36 44
41 68 35 15 -3 36 -14 46 -22 9 -9 17 -12 17 -7 1 5 12 -4 27 -21 l25 -30 -19
35 c-31 57 -103 78 -151 44z"/>
<path d="M878 1823 c-25 -28 -46 -75 -53 -118 -4 -22 -9 -48 -12 -57 -3 -14 2
-18 19 -18 18 0 23 6 25 30 5 65 47 115 81 94 32 -20 46 -66 46 -149 -1 -101
-20 -145 -64 -145 -33 0 -52 28 -64 93 -5 26 -12 37 -25 37 -16 0 -17 -5 -9
-57 17 -112 69 -179 117 -153 91 48 107 332 25 430 -29 34 -63 39 -86 13z"/>
<path d="M788 1668 c-3 -31 -5 -33 -40 -32 -28 0 -39 -4 -44 -18 -8 -28 4 -38
46 -38 36 0 39 -2 43 -32 4 -33 4 -33 5 4 2 37 2 37 -40 40 -24 2 -43 8 -43
13 0 6 19 11 43 13 42 3 42 3 42 43 0 47 -8 52 -12 7z"/>
<path d="M1147 1653 c1 -21 -3 -40 -10 -45 -9 -5 -9 -10 0 -19 20 -20 31 -1
26 44 -7 53 -20 70 -16 20z"/>
<path d="M888 1630 c12 -5 22 -12 22 -15 0 -3 -10 -10 -22 -15 -22 -8 -22 -9
5 -9 22 -1 27 3 27 24 0 21 -5 25 -27 24 -27 0 -27 -1 -5 -9z"/>
<path d="M1072 1508 c3 -82 5 -93 22 -96 15 -3 18 0 13 17 -8 31 6 26 27 -10
10 -16 23 -28 29 -26 12 4 11 76 -2 89 -3 4 -5 -12 -3 -35 3 -39 2 -41 -13
-23 -8 11 -15 37 -15 58 0 58 -22 118 -43 118 -16 0 -17 -9 -15 -92z"/>
<path d="M1015 1402 c-16 -25 -37 -48 -45 -50 -11 -4 -10 2 5 19 l20 24 -26
-22 c-35 -32 -74 -29 -110 6 -16 16 -29 26 -29 22 0 -4 14 -20 30 -36 24 -23
40 -29 69 -29 52 2 78 18 102 65 28 56 20 56 -16 1z"/>
<path d="M1091 1385 c-1 -22 25 -523 38 -725 l8 -125 3 95 4 95 6 -95 6 -95 2
95 c2 104 -5 151 -19 128 -6 -8 -8 -1 -8 22 0 19 3 29 6 21 3 -8 19 -26 34
-39 28 -23 29 -28 30 -110 0 -48 4 -105 9 -127 6 -28 8 0 4 90 -5 126 -6 131
-34 160 -31 33 -56 85 -40 85 5 0 15 -9 22 -20 22 -34 38 -24 38 23 0 32 -8
53 -29 83 -16 21 -31 48 -34 59 -4 16 -5 14 -6 -7 0 -15 5 -33 12 -40 31 -31
47 -65 47 -97 0 -33 0 -34 -20 -16 -13 12 -20 32 -21 59 l-2 41 -6 -35 -7 -35
-7 40 c-9 53 -9 107 1 123 6 9 14 5 31 -14 30 -34 39 -20 31 46 -4 31 -15 59
-29 74 -12 13 -26 36 -31 52 -6 20 -7 4 -5 -51 3 -55 2 -71 -4 -50 -11 40 -13
117 -3 133 7 9 13 8 27 -8 28 -31 35 -25 35 28 0 38 -6 58 -28 88 -16 22 -31
46 -34 54 -4 8 -4 -19 -2 -60 5 -87 -3 -81 -15 11 -5 35 -9 55 -10 44z m79
-134 c0 -33 0 -34 -20 -16 -14 13 -20 31 -20 64 l0 46 20 -30 c11 -16 20 -45
20 -64z m10 -194 c0 -39 0 -40 -20 -22 -15 13 -20 31 -20 64 l1 46 19 -24 c13
-15 20 -38 20 -64z"/>
<path d="M1116 488 c5 -17 3 -18 -14 -9 -27 14 -32 14 -32 -4 0 -8 12 -18 26
-21 24 -6 26 -10 21 -45 l-5 -39 40 0 c35 0 39 2 33 20 -7 22 5 26 23 8 9 -9
12 -3 12 30 0 36 -3 42 -21 42 -15 0 -19 5 -14 19 5 16 0 18 -35 18 -36 0 -40
-2 -34 -19z"/>
<path d="M1325 260 c-10 -11 -15 -23 -12 -27 4 -4 13 1 20 10 6 9 23 21 37 26
l25 10 -26 0 c-14 1 -34 -8 -44 -19z"/>
<path d="M1595 2690 c605 -16 655 -17 655 -10 0 3 -15 6 -32 6 -18 0 -235 3
-483 6 -359 5 -387 4 -140 -2z"/>
<path d="M2263 2663 c-7 -2 -13 -14 -13 -25 0 -15 5 -18 20 -13 18 6 20 2 20
-42 0 -71 30 -705 34 -723 8 -34 5 113 -9 415 -8 176 -12 333 -9 349 8 35 -11
52 -43 39z"/>
<path d="M2165 2623 c-94 -20 -143 -48 -177 -104 -24 -39 -31 -65 -43 -180
-10 -89 -12 -135 -5 -137 15 -5 12 -49 -3 -55 -7 -3 -14 -22 -15 -43 -1 -22
-9 -106 -18 -189 -15 -145 -12 -245 7 -245 5 0 9 4 9 9 0 6 29 8 70 5 59 -4
70 -2 70 11 0 11 -12 15 -50 16 -27 1 -54 3 -60 4 -5 1 -20 3 -31 4 -20 1 -21
5 -15 59 3 31 13 121 21 199 8 77 18 149 21 158 6 14 19 16 83 13 70 -2 76 -1
76 17 0 18 -8 20 -70 23 -38 2 -74 7 -80 12 -7 6 -7 46 3 137 21 190 53 235
198 270 38 9 73 20 79 25 5 4 7 8 5 7 -3 0 -36 -7 -75 -16z"/>
<path d="M2272 2515 c-2 -136 25 -665 33 -673 4 -4 5 38 1 93 -3 55 -11 219
-16 365 -12 293 -17 350 -18 215z"/>
<path d="M1590 1960 c-24 -24 -25 -49 -4 -76 16 -19 16 -13 -2 30 -6 14 28 56
45 56 5 0 19 -9 32 -20 18 -15 20 -19 8 -20 -43 -1 -77 -113 -46 -154 13 -18
14 -18 20 3 3 13 1 19 -5 14 -16 -9 -2 64 17 93 19 30 74 33 98 6 23 -25 21
-35 -2 -22 -16 8 -23 5 -39 -15 -11 -14 -30 -29 -43 -34 -23 -9 -22 -10 9 -10
17 -1 31 2 30 7 -3 14 14 42 27 42 7 0 18 -7 25 -15 10 -12 10 -15 -4 -15 -9
0 -16 -5 -16 -11 0 -6 8 -9 18 -7 47 9 8 118 -42 118 -12 0 -32 11 -44 25 -26
30 -55 32 -82 5z"/>
<path d="M1753 1800 c-25 -4 -30 -8 -24 -19 13 -20 2 -41 -20 -41 -23 0 -25
-25 -3 -34 21 -8 37 2 30 20 -3 7 -1 16 5 20 5 3 7 14 4 25 -5 14 -2 19 13 19
18 0 19 -5 15 -42 -7 -55 -18 -68 -57 -68 -33 0 -76 33 -76 58 0 13 -16 16
-23 5 -2 -5 -3 -3 -1 2 1 6 -4 19 -12 30 -22 29 -18 -4 6 -56 12 -28 20 -36
20 -24 0 17 4 15 26 -12 24 -31 64 -45 64 -23 0 6 7 10 15 10 9 0 25 8 36 19
16 15 19 29 17 67 l-3 49 -32 -5z"/>
<path d="M1680 1790 c0 -5 7 -10 15 -10 8 0 15 5 15 10 0 6 -7 10 -15 10 -8 0
-15 -4 -15 -10z"/>
<path d="M2140 1690 l-75 -6 103 -2 c62 -1 102 2 102 8 0 10 -8 10 -130 0z"/>
<path d="M2627 1681 c-3 -12 -1 -21 3 -21 15 0 23 21 12 32 -6 6 -11 2 -15
-11z"/>
<path d="M485 1650 c-3 -4 -1 -10 4 -12 5 -1 -5 -123 -22 -270 -25 -217 -34
-268 -46 -271 -9 -1 -3 -6 12 -9 22 -4 27 -2 23 9 -6 15 50 529 59 543 3 4 -2
10 -10 14 -8 3 -17 1 -20 -4z"/>
<path d="M1854 1645 c-5 -11 -23 -15 -75 -15 -67 0 -69 -1 -59 -20 6 -12 10
-33 8 -48 -2 -22 -9 -28 -36 -30 -45 -5 -62 12 -62 62 l0 42 -82 -8 c-46 -5
-96 -6 -113 -3 -22 4 -26 2 -18 -6 8 -8 7 -22 -7 -53 l-18 -43 34 -69 c18 -38
35 -73 37 -79 3 -5 7 -7 10 -4 4 3 -2 23 -13 45 -20 39 -20 39 -1 89 11 27 22
60 26 73 13 44 73 53 95 12 7 -13 1 -41 -24 -109 -49 -132 -50 -131 98 -131
l121 0 19 39 c13 28 16 49 11 73 -4 18 -9 61 -12 96 -4 51 -2 62 11 62 18 0
26 -12 46 -70 10 -28 13 -57 9 -75 -4 -16 -7 -41 -8 -55 -1 -41 15 -2 24 54 9
66 14 76 33 69 11 -4 10 0 -4 10 -20 15 -39 66 -35 95 3 17 -8 15 -15 -3z m17
-63 c4 -18 3 -35 -2 -38 -5 -3 -9 3 -9 13 0 10 -7 29 -16 42 -16 22 -15 23 2
19 11 -2 21 -15 25 -36z m-391 26 c0 -2 -11 -34 -24 -72 -22 -65 -24 -68 -35
-47 -21 39 7 121 41 121 10 0 18 -1 18 -2z m282 -193 c-11 -24 -16 -25 -97
-25 -67 0 -87 3 -91 15 -4 8 -1 22 6 30 7 8 9 15 6 15 -4 0 -1 10 6 23 7 12
11 26 10 31 -2 5 7 6 20 2 59 -17 77 -17 104 -3 l29 16 9 -40 c6 -26 5 -48 -2
-64z"/>
<path d="M1280 1537 c0 -4 4 -15 10 -25 5 -9 30 -66 55 -127 25 -60 51 -113
58 -117 7 -4 24 -8 39 -8 29 0 51 24 62 70 5 18 1 14 -14 -12 -24 -44 -34 -52
-63 -44 -17 4 -33 29 -66 108 -60 142 -57 132 -38 125 9 -3 17 -2 17 3 0 6 -8
10 -18 10 -10 0 -23 5 -30 12 -7 7 -12 9 -12 5z"/>
<path d="M2346 1265 c5 -264 16 -495 23 -495 3 0 1 131 -6 291 -15 370 -22
446 -17 204z"/>
<path d="M2314 1418 c3 -18 8 -143 12 -278 3 -135 10 -276 15 -315 8 -73 8
-74 -8 418 -3 114 -10 207 -15 207 -5 0 -7 -15 -4 -32z"/>
<path d="M1811 1360 c0 -28 34 -85 54 -88 19 -4 19 -3 2 10 -10 8 -27 32 -37
53 -10 22 -19 33 -19 25z"/>
<path d="M1757 1319 c-5 -20 -11 -21 -116 -17 -91 2 -111 0 -111 -11 0 -8 -10
-34 -21 -59 -36 -73 -14 -149 51 -174 34 -13 113 -27 121 -22 4 2 5 12 3 22
-4 11 -16 18 -39 19 -19 1 -50 9 -69 18 -30 14 -36 23 -42 60 -4 33 -2 51 12
74 22 37 33 41 104 36 30 -2 64 -4 75 -4 15 -1 17 -3 6 -10 -11 -7 -9 -10 8
-16 14 -4 20 -12 17 -21 -4 -9 8 -17 37 -25 47 -12 77 -34 78 -58 0 -11 2 -12
6 -3 6 15 -34 62 -52 62 -6 0 -12 6 -12 14 0 8 5 13 11 11 6 -2 54 -8 106 -15
130 -15 201 -31 207 -47 3 -7 9 -10 14 -7 6 3 7 -10 4 -33 -3 -21 -7 -49 -9
-63 -2 -14 -11 -59 -21 -100 -9 -41 -21 -95 -25 -121 -17 -96 -30 -130 -48
-127 -20 4 -20 16 -3 210 8 86 10 142 4 153 -9 14 -11 13 -21 -12 -8 -23 -42
-330 -42 -383 0 -12 13 -15 55 -15 48 0 57 3 61 20 2 11 25 119 50 239 49 236
49 249 1 281 -15 9 -86 23 -183 35 -231 29 -215 24 -208 71 7 41 0 54 -9 18z"/>
<path d="M1690 1220 c33 -11 50 -12 50 -2 0 4 -17 8 -38 9 -32 1 -33 0 -12 -7z"/>
<path d="M237 1064 c3 -9 0 -20 -8 -25 -9 -6 24 -8 86 -7 92 3 100 5 100 23 0
18 -8 20 -92 23 -82 2 -92 1 -86 -14z"/>
<path d="M1612 818 c-14 -14 -16 -68 -3 -68 5 0 7 9 4 19 -3 10 0 28 6 40 13
24 11 27 -7 9z"/>
<path d="M1806 780 c13 -12 114 -40 143 -39 l26 1 -25 9 c-45 16 -153 38 -144
29z"/>
<path d="M2135 692 c11 -12 122 -42 151 -42 31 1 -3 16 -66 30 -30 6 -64 14
-75 17 -14 4 -17 2 -10 -5z"/>
<path d="M1607 586 c-14 -21 -53 -205 -45 -210 7 -5 154 -56 161 -56 15 0 6
41 -10 46 -23 7 -127 47 -131 49 -1 1 3 35 9 75 10 56 14 68 20 52 10 -28 39
-29 46 -2 7 28 83 30 83 2 0 -10 20 -38 46 -62 l45 -45 -43 -5 c-40 -5 -45 -2
-77 33 -18 21 -36 35 -39 32 -3 -3 9 -21 27 -39 30 -30 32 -36 20 -57 -12 -24
-12 -24 9 -6 11 10 42 21 69 23 39 5 52 2 71 -16 12 -11 22 -24 22 -28 0 -4
-29 -5 -65 -4 -42 3 -65 0 -65 -7 0 -7 27 -11 71 -11 52 0 70 -3 66 -12 -2 -9
-21 -12 -58 -10 -30 2 -65 -1 -79 -7 -20 -8 -6 -10 63 -10 128 -1 128 19 0
147 -41 41 -73 82 -73 93 0 11 -7 22 -16 26 -9 3 -13 12 -10 22 5 13 4 13 -8
-1 -7 -10 -23 -18 -36 -18 -13 0 -24 -8 -27 -20 -3 -11 -12 -20 -20 -20 -12 0
-14 8 -9 35 8 41 4 44 -17 11z"/>
<path d="M1965 600 c-4 -6 -8 -36 -11 -68 -5 -69 2 -58 14 21 9 57 8 66 -3 47z"/>
</g>
</svg>
