 <svg  version="1.0" xmlns="http://www.w3.org/2000/svg"  width="300.000000pt" height="300.000000pt" viewBox="0 0 300.000000 300.000000"  preserveAspectRatio="xMidYMid meet">  <g transform="translate(0.000000,300.000000) scale(0.100000,-0.100000)" fill="#000000" stroke="none"> <path d="M2260 2601 c-6 -12 -10 -97 -10 -208 l0 -188 -95 -80 c-52 -44 -98 -81 -102 -83 -5 -1 -7 31 -5 72 l4 74 69 62 c38 34 69 68 69 75 0 13 -57 35 -90 35 -37 -1 -99 -44 -234 -165 -80 -71 -146 -135 -146 -140 0 -14 72 -85 86 -85 5 0 29 20 54 45 25 24 47 44 50 45 3 0 5 -286 5 -635 0 -349 0 -635 -1 -635 -1 0 -18 16 -39 35 -78 74 -208 150 -335 196 -49 18 -78 36 -117 76 -33 34 -77 65 -120 85 -58 28 -82 33 -163 36 l-96 4 -38 175 c-20 96 -39 180 -42 187 -2 7 40 25 108 46 91 29 115 41 127 62 13 23 13 29 -2 52 l-17 26 -245 0 c-208 0 -246 -2 -259 -16 -36 -35 -19 -62 74 -120 35 -22 62 -46 65 -58 3 -12 21 -110 41 -218 l36 -198 -56 -51 c-118 -108 -164 -274 -117 -427 31 -103 105 -196 193 -243 21 -10 38 -21 38 -24 0 -2 -47 -1 -105 2 -92 5 -105 4 -111 -11 -4 -9 -4 -19 -1 -23 8 -7 1526 -7 1534 0 3 4 3 14 -1 23 -5 14 -23 16 -146 12 -77 -2 -140 -2 -140 -1 0 1 11 14 25 29 14 15 29 43 35 63 6 22 10 289 10 707 0 533 3 673 13 677 17 6 256 203 285 234 21 23 22 30 22 243 0 215 0 219 -22 234 -31 22 -75 20 -88 -3z m54 -17 c14 -5 16 -34 15 -218 l0 -211 -135 -110 c-74 -60 -139 -112 -145 -113 -25 -9 7 56 45 88 22 19 76 66 118 103 l78 68 0 200 c0 109 2 199 4 199 2 0 11 -3 20 -6z m-186 -272 c-5 -13 -316 -292 -325 -292 -4 0 -14 9 -20 19 -11 17 2 31 117 136 71 64 142 122 157 130 30 16 77 20 71 7z m-120 -1263 l-3 -372 -27 39 -28 40 0 669 0 669 28 29 27 28 3 -365 c1 -200 1 -532 0 -737z m-841 664 c6 -17 -210 -86 -275 -87 -49 -1 -63 3 -124 42 -37 24 -68 48 -68 53 0 14 462 7 467 -8z m-201 -316 l41 -188 -35 -15 c-45 -19 -52 -18 -52 6 0 21 -57 342 -66 373 -5 16 -1 18 33 15 l38 -3 41 -188z m266 -227 c58 -15 138 -69 184 -124 21 -26 45 -46 54 -46 49 0 234 -91 324 -159 82 -62 102 -82 154 -149 77 -99 79 -178 6 -241 l-36 -32 -446 3 -447 3 -57 27 c-276 129 -307 500 -56 667 33 23 63 41 67 41 3 1 28 7 55 14 55 14 133 13 198 -4z"/> </g> </svg> 