<?xml version="1.0" standalone="no"?>
<!DOCTYPE svg PUBLIC "-//W3C//DTD SVG 20010904//EN"
 "http://www.w3.org/TR/2001/REC-SVG-20010904/DTD/svg10.dtd">
<svg version="1.0" xmlns="http://www.w3.org/2000/svg"
 width="300.000000pt" height="300.000000pt" viewBox="0 0 300.000000 300.000000"
 preserveAspectRatio="xMidYMid meet">
<metadata>
Created by potrace 1.10, written by Peter Selinger 2001-2011
</metadata>
<g transform="translate(0.000000,300.000000) scale(0.100000,-0.100000)"
fill="#000000" stroke="none">
<path d="M1305 2641 c-11 -5 -40 -32 -64 -61 -91 -108 -92 -185 -3 -307 33
-44 31 -43 170 -64 l82 -13 0 -222 0 -222 -125 -129 c-78 -81 -124 -136 -125
-149 0 -18 -6 -21 -37 -21 -36 1 -340 -111 -370 -135 -20 -16 -16 -75 7 -98
11 -11 24 -20 30 -20 6 0 10 -20 10 -44 l0 -44 -28 28 c-16 16 -48 34 -72 40
-50 13 -72 9 -294 -56 -83 -24 -152 -40 -155 -36 -13 19 -51 31 -134 43 -79
12 -88 11 -106 -5 -28 -25 -38 -92 -16 -115 14 -17 80 -33 220 -55 17 -3 55
-12 85 -21 30 -8 83 -18 116 -22 59 -5 63 -4 79 20 11 18 16 41 13 73 l-3 47
48 14 c27 8 67 13 90 11 38 -3 44 -7 61 -42 18 -36 18 -47 6 -170 -6 -72 -13
-132 -15 -134 -1 -2 -36 17 -78 43 -41 25 -81 45 -89 45 -39 0 -95 -74 -83
-110 3 -11 31 -34 61 -52 30 -18 54 -36 54 -39 0 -4 -15 -9 -32 -13 -177 -34
-200 -45 -178 -87 13 -23 34 -24 114 -3 33 9 95 22 136 29 64 11 76 11 83 -1
4 -8 19 -14 32 -14 13 0 41 -12 63 -26 l40 -26 -25 -22 c-22 -19 -24 -25 -14
-45 30 -54 112 -76 174 -45 64 33 75 50 71 112 -3 45 -9 61 -26 74 -58 43 -58
43 -58 142 0 107 5 127 28 119 13 -4 14 -3 4 5 -11 7 -4 26 33 93 27 46 52 87
57 90 5 3 9 9 9 13 0 3 6 21 15 39 13 28 34 40 161 97 81 36 150 67 155 68 4
2 8 -7 8 -20 0 -47 12 -67 45 -78 49 -16 93 8 97 52 3 33 3 33 107 60 166 43
192 44 338 12 70 -15 132 -31 136 -34 5 -4 0 -86 -9 -183 -19 -189 -17 -207
30 -207 22 0 137 82 145 102 2 6 -2 14 -9 18 -14 9 -11 50 55 745 14 143 25
268 25 277 0 14 4 16 25 8 13 -5 65 -7 115 -5 71 4 98 9 120 25 15 11 36 20
45 20 26 0 70 53 95 115 19 46 26 54 42 49 49 -15 66 51 18 69 -28 11 -30 14
-30 67 0 64 -15 100 -50 117 -13 6 -30 23 -37 37 -8 14 -26 28 -41 32 -15 3
-39 12 -54 20 -31 17 -68 25 -149 31 -53 4 -57 3 -86 -31 -20 -22 -38 -33 -50
-30 -34 8 -47 -12 -51 -80 -3 -41 -9 -66 -16 -66 -6 0 -168 20 -359 45 -192
25 -350 45 -352 45 -3 0 -5 32 -5 70 0 56 -3 70 -15 70 -8 0 -23 9 -33 21 -9
11 -29 27 -45 35 -32 17 -203 28 -232 15z m31 -40 c-51 -57 -74 -228 -41 -308
18 -43 16 -48 -12 -28 -42 30 -55 195 -22 282 14 39 49 73 72 73 19 0 19 -1 3
-19z m50 -24 c-14 -19 -33 -64 -42 -100 -15 -59 -15 -72 -2 -129 9 -35 19 -71
23 -81 13 -31 -24 -8 -42 27 -23 42 -22 168 1 230 16 41 72 103 83 92 3 -3 -7
-20 -21 -39z m150 18 c18 -14 18 -16 2 -26 -14 -7 -18 -23 -18 -64 0 -51 -2
-55 -23 -55 -34 0 -38 -8 -22 -47 8 -20 15 -66 15 -104 0 -67 -1 -69 -26 -69
-88 0 -133 184 -73 301 35 70 100 99 145 64z m29 -111 c-8 -59 -22 -42 -17 21
3 32 7 44 14 37 6 -6 8 -29 3 -58z m1003 37 c10 -6 7 -18 -16 -52 -50 -73 -74
-160 -79 -284 -4 -97 -2 -115 16 -149 25 -48 20 -57 -17 -29 -68 50 -87 152
-57 307 30 160 93 246 153 207z m96 -17 c13 -5 11 -12 -15 -42 -58 -66 -89
-167 -89 -292 0 -62 6 -96 20 -127 l19 -43 -23 0 c-12 0 -33 11 -46 25 -21 22
-25 38 -28 118 -6 144 32 275 99 340 30 28 37 31 63 21z m-1457 -96 c-2 -13
-4 -3 -4 22 0 25 2 35 4 23 2 -13 2 -33 0 -45z m1558 47 c0 -5 -11 -12 -25
-13 -64 -9 -117 -109 -127 -243 -7 -97 13 -162 55 -177 24 -9 25 -10 8 -17
-78 -33 -118 164 -66 325 30 93 74 143 122 138 18 -2 33 -7 33 -13z m-346 -2
c0 -5 -7 -24 -14 -43 l-13 -35 -1 43 c-1 31 3 42 14 42 8 0 15 -3 14 -7z
m-822 -30 c-4 -3 -7 0 -7 7 0 7 3 10 7 7 3 -4 3 -10 0 -14z m-63 -38 c10 -39
6 -584 -4 -590 -5 -3 -9 114 -10 291 0 203 -4 301 -11 311 -9 10 -8 13 4 13 8
0 18 -11 21 -25z m1211 -17 c-40 -72 -57 -152 -53 -239 3 -66 1 -79 -12 -77
-30 6 -41 49 -36 138 7 131 48 220 102 220 l23 0 -24 -42z m-976 16 c8 -7 -73
-2 -104 6 -19 5 -6 6 35 3 36 -3 67 -7 69 -9z m1071 -3 c9 -17 15 -121 7 -121
-12 0 -107 32 -107 36 0 3 7 19 16 37 34 66 64 84 84 48z m-1007 -8 c-7 -2
-21 -2 -30 0 -10 3 -4 5 12 5 17 0 24 -2 18 -5z m75 -10 c-10 -2 -26 -2 -35 0
-10 3 -2 5 17 5 19 0 27 -2 18 -5z m-311 -380 c-1 -71 -3 -13 -3 127 0 140 2
198 3 128 2 -71 2 -185 0 -255z m382 336 c183 -23 331 -46 337 -52 9 -9 7 -60
-7 -202 -11 -104 -21 -195 -23 -201 -6 -17 -212 29 -208 46 2 7 18 31 37 54
18 22 34 48 35 56 8 54 -14 69 -136 94 -135 27 -135 27 -228 -63 -44 -43 -85
-77 -91 -76 -5 2 -22 6 -37 9 l-28 6 0 185 c0 131 3 185 11 185 6 0 158 -18
338 -41z m-1 34 c-10 -2 -26 -2 -35 0 -10 3 -2 5 17 5 19 0 27 -2 18 -5z m90
-10 c-10 -2 -26 -2 -35 0 -10 3 -2 5 17 5 19 0 27 -2 18 -5z m59 -9 c-3 -3
-12 -4 -19 -1 -8 3 -5 6 6 6 11 1 17 -2 13 -5z m96 -11 c-7 -2 -19 -2 -25 0
-7 3 -2 5 12 5 14 0 19 -2 13 -5z m70 -10 c-7 -2 -19 -2 -25 0 -7 3 -2 5 12 5
14 0 19 -2 13 -5z m80 -105 c-4 -100 -22 -310 -63 -728 -11 -113 -29 -299 -40
-415 -12 -115 -23 -211 -25 -213 -2 -3 -10 -2 -18 1 -11 4 -11 33 5 179 10 95
25 241 33 323 8 83 23 238 35 345 11 107 22 220 25 250 3 30 12 116 20 190 8
82 10 139 4 145 -14 15 -11 25 9 25 18 0 19 -8 15 -102z m467 25 c86 -24 80
-32 -12 -17 -46 8 -86 14 -90 14 -5 0 -8 7 -8 15 0 17 8 16 110 -12z m-46 -40
c37 -6 38 -7 32 -41 -6 -42 -51 -112 -71 -112 -23 0 -35 34 -35 99 0 67 -1 67
74 54z m-786 -107 c40 -8 76 -17 79 -20 9 -8 -18 -44 -279 -375 -128 -161
-239 -296 -247 -299 -14 -5 -251 69 -281 88 -12 7 47 72 290 315 340 340 305
316 438 291z m112 -58 c0 -7 -14 -29 -30 -48 -16 -19 -135 -169 -266 -332
-222 -279 -238 -298 -268 -297 l-31 1 32 9 c25 7 77 68 270 312 131 166 250
317 263 335 26 35 30 38 30 20z m258 -539 c-26 -283 -46 -528 -44 -545 4 -26
-1 -34 -25 -48 l-30 -18 6 59 c3 32 13 119 21 193 8 74 14 142 15 150 1 21 37
396 54 575 8 83 15 159 15 170 1 20 1 20 18 -1 17 -20 16 -43 -30 -535z m-703
451 c-6 -10 -45 -1 -45 10 0 4 11 5 25 2 14 -2 23 -8 20 -12z m486 -91 c57
-11 108 -25 114 -30 6 -6 6 -9 0 -9 -25 0 -209 41 -223 50 -25 14 -6 12 109
-11z m14 -51 c55 -11 101 -21 102 -22 4 -4 -46 -486 -51 -486 -10 0 -540 120
-542 123 -9 9 118 157 128 151 7 -4 8 -3 4 4 -6 10 105 161 172 234 28 30 20
30 187 -4z m-868 -365 c-4 -3 -10 -3 -14 0 -3 4 0 7 7 7 7 0 10 -3 7 -7z m44
-54 c79 -29 148 -55 152 -59 10 -9 -315 -150 -347 -150 -25 0 -296 119 -296
129 0 8 310 130 331 131 9 0 81 -23 160 -51z m-14 44 c-4 -3 -10 -3 -14 0 -3
4 0 7 7 7 7 0 10 -3 7 -7z m30 -10 c-4 -3 -10 -3 -14 0 -3 4 0 7 7 7 7 0 10
-3 7 -7z m30 -10 c-4 -3 -10 -3 -14 0 -3 4 0 7 7 7 7 0 10 -3 7 -7z m30 -10
c-4 -3 -10 -3 -14 0 -3 4 0 7 7 7 7 0 10 -3 7 -7z m30 -10 c-4 -3 -10 -3 -14
0 -3 4 0 7 7 7 7 0 10 -3 7 -7z m248 -13 c8 -13 -25 -13 -45 0 -12 8 -9 10 12
10 15 0 30 -4 33 -10z m-188 -7 c-4 -3 -10 -3 -14 0 -3 4 0 7 7 7 7 0 10 -3 7
-7z m380 -29 c87 -20 194 -44 237 -53 44 -9 81 -22 83 -28 3 -8 -23 -5 -79 7
-341 76 -418 94 -418 102 0 12 4 11 177 -28z m-183 -10 c46 -8 33 -19 -36 -29
-47 -7 -48 -7 -48 20 0 23 3 26 23 22 12 -3 39 -9 61 -13z m46 -54 c-61 -18
-119 -26 -108 -15 6 7 128 33 153 33 11 0 -9 -8 -45 -18z m-260 -3 c-30 -27
-314 -151 -344 -150 -39 1 -298 114 -304 132 -6 18 17 10 162 -56 93 -43 127
-54 152 -50 18 3 100 35 181 71 153 67 177 75 153 53z m40 -43 c0 -8 -4 -12
-10 -9 -5 3 -10 10 -10 16 0 5 5 9 10 9 6 0 10 -7 10 -16z m0 -55 c0 -11 -4
-17 -10 -14 -5 3 -10 15 -10 26 0 11 5 17 10 14 6 -3 10 -15 10 -26z m-745
-23 c74 -31 89 -95 64 -278 -24 -170 -27 -185 -44 -192 -11 -4 -13 4 -10 32 2
20 6 66 10 102 3 36 8 89 10 118 10 107 -31 182 -101 182 -20 0 -73 -10 -119
-22 -65 -17 -90 -19 -116 -12 l-34 10 60 18 c106 32 199 55 223 55 12 1 38 -5
57 -13z m122 -13 c-4 -3 -7 0 -7 7 0 7 3 10 7 7 3 -4 3 -10 0 -14z m57 -40 c4
-27 2 -43 -4 -43 -5 0 -10 21 -10 47 0 55 5 54 14 -4z m91 20 c19 -9 35 -20
35 -25 0 -4 -19 -40 -42 -79 l-43 -71 -8 83 c-10 117 -7 123 58 92z m-775 -28
c23 -7 29 -31 17 -67 -7 -23 -15 -28 -40 -28 -37 1 -148 23 -165 34 -16 10
-15 47 3 72 14 21 17 21 91 8 42 -7 84 -16 94 -19z m627 -12 c-3 -10 -5 -2 -5
17 0 19 2 27 5 18 2 -10 2 -26 0 -35z m183 -77 c-23 -42 -46 -76 -51 -76 -11
0 -2 19 48 103 50 84 53 62 3 -27z m-616 44 c4 -4 14 -6 21 -3 27 10 55 -16
55 -51 0 -55 -15 -59 -119 -36 -50 11 -93 20 -96 20 -9 0 -5 51 6 72 10 18 17
20 67 14 31 -4 61 -11 66 -16z m433 -17 c-4 -3 -7 0 -7 7 0 7 3 10 7 7 3 -4 3
-10 0 -14z m66 -135 c10 -216 9 -280 -3 -273 -6 4 -10 23 -10 43 1 20 -1 115
-5 210 -5 107 -4 172 2 172 6 0 13 -67 16 -152z m57 1 c-7 -11 -14 -19 -16
-16 -7 7 7 37 17 37 6 0 5 -9 -1 -21z m-166 -258 c-15 -15 -16 -11 -11 59 11
135 22 157 25 51 2 -78 0 -97 -14 -110z m53 52 c-2 -27 -3 -5 -3 47 0 52 1 74
3 48 2 -27 2 -69 0 -95z m-234 62 c97 -57 104 -92 21 -108 -26 -5 -44 2 -98
36 -36 23 -66 47 -66 53 0 17 40 64 53 64 7 0 47 -20 90 -45z m117 -125 c0 -5
-16 -12 -35 -16 -19 -3 -38 -10 -41 -15 -3 -5 -16 -9 -29 -9 -13 0 -71 -11
-129 -25 -116 -27 -130 -29 -122 -16 3 4 54 18 113 30 60 12 119 27 133 33 14
6 38 12 53 13 15 2 31 6 34 9 10 9 23 7 23 -4z m171 -42 l60 -31 -20 -21 c-11
-12 -24 -31 -28 -44 l-8 -22 -63 37 c-66 39 -71 49 -46 88 21 32 34 31 105 -7z
m-147 -3 c-4 -8 -15 -15 -25 -15 -21 0 -26 16 -6 23 24 10 36 7 31 -8z m231
-104 c-10 -21 -22 -31 -33 -29 -22 5 -17 38 10 61 30 26 44 7 23 -32z m-97
-37 c13 -9 35 -20 50 -24 l27 -8 -37 -16 c-33 -14 -42 -14 -70 -3 -18 8 -39
21 -46 30 -11 13 -10 17 5 26 26 15 45 13 71 -5z"/>
</g>
</svg>
