<?xml version="1.0" standalone="no"?>
<!DOCTYPE svg PUBLIC "-//W3C//DTD SVG 20010904//EN"
 "http://www.w3.org/TR/2001/REC-SVG-20010904/DTD/svg10.dtd">
<svg version="1.0" xmlns="http://www.w3.org/2000/svg"
 width="900.000000pt" height="900.000000pt" viewBox="0 0 900.000000 900.000000"
 preserveAspectRatio="xMidYMid meet">
<metadata>
Created by potrace 1.10, written by Peter Selinger 2001-2011
</metadata>
<g transform="translate(0.000000,900.000000) scale(0.100000,-0.100000)"
fill="#000000" stroke="none">
<path d="M4310 8018 c-108 -31 -141 -42 -194 -70 -98 -50 -156 -95 -257 -198
-125 -127 -151 -180 -184 -370 -7 -41 -16 -88 -19 -105 -4 -16 -11 -84 -17
-150 -28 -322 -39 -426 -54 -495 -40 -186 -63 -394 -65 -585 -3 -166 -3 -169
-70 -176 -80 -9 -174 -29 -185 -40 -5 -5 -16 -9 -25 -9 -25 0 -148 -66 -210
-113 -119 -90 -208 -211 -226 -308 -4 -19 -10 -38 -14 -44 -5 -5 -11 -37 -14
-70 -4 -33 -11 -78 -16 -100 -6 -22 -15 -119 -20 -215 -22 -363 -52 -671 -70
-720 -5 -14 -12 -45 -16 -70 -3 -24 -10 -51 -15 -60 -4 -8 -15 -40 -24 -70 -9
-30 -52 -127 -95 -215 -90 -185 -110 -229 -110 -243 0 -5 -7 -23 -15 -38 -8
-16 -15 -37 -15 -46 0 -9 -4 -19 -9 -22 -5 -4 -12 -24 -16 -46 -4 -22 -10 -42
-15 -45 -5 -3 -11 -24 -15 -48 -4 -23 -11 -46 -15 -52 -4 -5 -11 -26 -14 -45
-4 -19 -11 -44 -16 -55 -5 -11 -14 -42 -20 -70 -28 -120 -35 -151 -41 -160 -4
-5 -10 -30 -13 -55 -4 -25 -11 -54 -16 -65 -5 -11 -14 -42 -19 -70 -5 -27 -17
-77 -25 -110 -8 -33 -20 -82 -26 -110 -6 -27 -15 -59 -20 -70 -4 -11 -17 -49
-29 -85 -11 -36 -29 -82 -40 -103 -22 -44 -18 -69 11 -65 26 4 88 121 88 165
0 10 4 23 9 28 5 6 14 33 20 60 7 28 18 75 26 105 34 135 47 189 58 240 7 30
15 60 18 65 4 6 10 30 13 55 4 25 11 54 16 65 5 11 13 40 19 65 18 81 32 135
41 151 5 9 12 34 16 55 3 22 10 44 14 49 4 6 11 26 15 45 4 19 11 40 15 45 4
6 11 25 15 43 4 18 13 45 21 60 8 15 14 33 14 40 0 7 4 20 10 30 5 9 19 40 30
67 12 28 47 102 79 165 32 63 66 138 76 165 9 28 21 59 26 70 20 47 56 225 70
345 5 47 13 117 19 155 5 39 12 140 15 225 3 85 10 189 15 230 6 41 14 113 19
160 11 97 28 186 41 215 5 11 12 31 16 45 11 39 70 123 117 166 53 48 148 114
165 114 6 0 12 5 12 10 0 6 6 10 13 10 6 0 24 6 39 14 15 8 42 17 60 21 18 4
38 11 43 15 13 10 133 29 140 22 13 -13 1 -39 -46 -99 -35 -44 -48 -70 -44
-83 9 -28 120 -79 195 -89 l45 -6 -4 -190 c-3 -175 -5 -192 -26 -225 -19 -30
-109 -214 -135 -275 -5 -11 -18 -40 -28 -65 -26 -59 -68 -193 -80 -250 l-9
-45 -13 30 c-22 52 2 279 41 390 17 50 38 97 45 106 16 18 18 47 4 69 -7 12
-13 11 -34 -10 -15 -13 -26 -31 -26 -39 0 -9 -6 -28 -14 -42 -7 -14 -16 -43
-20 -65 -14 -71 -42 -85 -51 -26 -4 20 -11 48 -16 62 -4 14 -13 66 -19 115
-11 92 -26 122 -54 112 -19 -7 -21 -58 -5 -127 5 -25 15 -67 20 -95 6 -27 14
-54 19 -60 4 -5 10 -23 14 -39 4 -16 19 -44 33 -62 22 -30 24 -37 14 -63 -11
-25 -11 -109 0 -281 2 -40 -20 -219 -29 -238 -5 -9 -12 -37 -16 -61 -11 -70
-48 -183 -78 -236 -39 -68 -78 -151 -78 -165 0 -9 -4 -20 -9 -25 -9 -10 -19
-50 -46 -175 -14 -68 -32 -136 -60 -230 -9 -30 -22 -73 -29 -95 -6 -22 -14
-44 -17 -50 -4 -5 -10 -26 -14 -45 -4 -19 -11 -39 -14 -45 -4 -5 -18 -41 -30
-80 -12 -38 -29 -84 -37 -102 -8 -17 -14 -36 -14 -42 0 -6 -4 -19 -9 -29 -5
-9 -25 -48 -44 -87 -55 -110 -102 -200 -107 -205 -3 -3 -13 -21 -24 -40 -10
-19 -32 -60 -49 -90 -16 -30 -45 -84 -65 -119 -19 -36 -52 -93 -73 -128 -91
-148 -100 -172 -109 -273 -13 -155 -33 -217 -103 -314 -65 -92 -188 -254 -200
-265 -25 -20 -53 -10 -49 18 4 27 38 98 60 123 16 19 8 58 -12 58 -18 0 -43
-30 -51 -63 -4 -15 -11 -30 -16 -33 -5 -3 -9 -12 -9 -21 0 -8 -6 -29 -14 -46
-7 -18 -24 -57 -36 -87 -29 -71 -37 -80 -71 -80 -33 0 -37 17 -14 58 36 67
105 221 105 236 0 9 -5 16 -11 16 -20 0 -49 -21 -49 -35 0 -13 -67 -166 -103
-235 -17 -33 -55 -52 -79 -39 -15 8 -16 14 -7 32 6 12 20 31 29 42 30 33 70
116 70 145 0 15 9 37 20 50 11 13 20 34 20 47 0 18 -5 23 -25 23 -17 0 -25 -6
-25 -17 0 -9 -11 -31 -26 -50 -27 -36 -72 -45 -94 -18 -20 24 4 283 29 308 5
5 21 7 36 3 26 -7 27 -8 21 -69 -3 -34 -8 -82 -12 -105 -8 -56 9 -78 36 -44
23 28 34 130 22 195 -12 58 -6 87 18 87 21 0 67 51 76 85 3 14 10 28 15 31 5
3 9 25 9 50 0 44 -1 45 -27 42 -26 -3 -28 -7 -34 -61 -7 -66 -9 -68 -52 -83
-18 -6 -34 -19 -36 -30 -2 -10 -12 -27 -23 -38 -16 -15 -24 -16 -44 -7 -20 9
-24 18 -24 54 0 80 97 178 248 251 42 21 84 41 92 45 8 5 16 17 18 29 5 31
-31 38 -71 14 -17 -11 -59 -35 -92 -52 -152 -82 -255 -198 -255 -289 0 -19 7
-43 17 -53 14 -16 15 -24 4 -66 -27 -105 -33 -151 -29 -235 3 -85 4 -90 33
-113 20 -16 40 -23 60 -22 42 4 43 -20 2 -62 -72 -75 -82 -120 -37 -163 24
-21 78 -22 101 -1 18 16 59 12 59 -7 0 -5 15 -9 33 -9 38 0 81 38 92 80 18 70
64 79 79 16 13 -56 103 -146 191 -191 38 -19 76 -35 85 -35 9 0 20 -4 25 -9
28 -27 295 -48 410 -32 150 20 210 30 288 45 194 39 226 45 287 60 101 23 181
43 223 56 32 9 42 9 55 -4 26 -23 231 -31 382 -15 147 16 208 17 353 5 l107
-8 0 30 0 30 -117 7 c-126 8 -332 0 -385 -16 -18 -5 -85 -9 -148 -9 l-115 1
39 19 c21 11 55 22 75 26 39 7 134 31 276 70 33 9 83 22 110 29 106 29 202 57
242 72 67 25 73 18 73 -89 0 -141 7 -166 45 -182 17 -8 65 -17 106 -20 41 -4
94 -11 119 -16 75 -16 472 -56 695 -70 88 -5 223 -15 300 -21 173 -14 563 -6
700 15 132 19 218 37 230 46 6 4 29 11 52 15 24 4 45 11 49 16 3 5 12 9 21 9
9 0 49 16 89 35 40 19 77 35 82 35 6 0 12 3 14 8 2 4 21 16 42 27 22 11 44 25
50 30 6 6 31 23 55 40 60 41 149 127 159 154 4 13 23 29 40 37 31 13 33 12 47
-16 8 -16 15 -35 15 -42 0 -7 11 -30 25 -51 21 -30 32 -37 59 -37 19 0 39 7
46 15 11 14 19 10 56 -30 24 -25 48 -45 53 -45 5 0 23 14 40 31 48 48 42 100
-25 232 -13 27 -24 50 -24 52 0 1 22 5 49 7 38 4 55 12 76 34 27 28 27 31 22
124 -3 60 -10 106 -21 125 -20 38 -21 74 -1 81 30 12 16 56 -33 108 -26 28
-66 80 -87 115 -57 91 -100 131 -190 175 -204 99 -201 96 -236 150 -39 59
-189 355 -189 374 0 6 -4 12 -10 12 -5 0 -10 5 -10 11 0 11 -9 32 -60 144 -16
33 -36 78 -45 100 -10 22 -30 67 -45 100 -16 33 -38 83 -50 110 -101 229 -227
480 -285 570 -50 77 -115 202 -115 221 0 5 -6 21 -14 36 -8 15 -17 42 -21 60
-4 18 -11 38 -15 43 -4 6 -11 26 -15 45 -4 19 -11 40 -15 45 -4 6 -11 27 -14
49 -4 21 -11 46 -16 55 -8 15 -13 32 -46 164 -8 31 -21 85 -30 120 -8 34 -21
103 -29 152 -20 140 -35 218 -46 237 -5 10 -9 24 -9 32 0 14 -34 126 -49 161
-89 209 -187 347 -321 449 -76 59 -160 97 -287 132 -7 2 -10 21 -6 61 8 96
-49 474 -77 508 -4 6 -13 51 -20 100 -40 297 -69 468 -99 575 -6 19 -20 69
-31 110 -12 41 -25 82 -29 90 -5 9 -12 30 -15 48 -4 17 -12 34 -17 37 -5 4 -9
13 -9 22 0 33 -106 233 -155 293 -68 83 -190 185 -280 233 -125 67 -284 94
-385 65z m265 -71 c17 -9 36 -17 42 -17 17 0 107 -55 163 -99 118 -93 182
-172 247 -306 19 -38 39 -78 44 -87 5 -10 9 -23 9 -29 0 -6 6 -25 14 -42 66
-152 131 -444 170 -762 8 -60 21 -137 31 -170 37 -135 55 -231 76 -418 13
-114 6 -187 -29 -305 -16 -58 -64 -132 -85 -132 -6 0 -25 -8 -42 -18 -24 -14
-54 -17 -157 -17 -88 0 -131 4 -140 13 -6 6 -19 12 -28 12 -8 0 -34 9 -58 20
-43 19 -43 20 -29 47 58 109 67 258 22 378 -31 84 -44 222 -26 278 7 21 28 59
46 86 34 49 46 91 65 226 6 39 15 99 21 135 28 178 10 576 -29 665 -49 109
-70 139 -136 192 -24 20 -107 35 -156 28 -25 -3 -75 -17 -112 -32 l-67 -26
-63 23 c-224 84 -378 -67 -430 -420 -18 -116 -16 -303 4 -430 25 -159 35 -198
79 -283 18 -35 20 -57 17 -355 -2 -285 0 -323 16 -372 11 -30 23 -59 27 -64
14 -16 10 -36 -6 -36 -8 0 -23 -4 -33 -10 -42 -23 -313 -55 -390 -46 -68 9
-212 58 -212 73 0 3 20 35 44 72 64 97 86 171 86 288 0 53 4 133 10 177 5 45
14 126 19 181 6 55 17 134 26 175 23 109 47 297 65 510 17 203 48 406 71 460
47 110 126 209 233 293 34 26 66 51 72 56 19 15 115 64 174 88 49 20 68 22
180 19 92 -2 133 -7 155 -19z m164 -401 c43 -27 95 -104 106 -157 4 -19 11
-38 15 -44 13 -18 35 -228 33 -325 -3 -167 -45 -509 -70 -570 -30 -71 -258
-231 -351 -246 -51 -8 -113 20 -212 96 -184 140 -214 183 -251 365 -28 143
-38 390 -19 500 17 97 31 160 40 180 5 11 12 31 16 45 10 35 48 94 81 124 52
48 194 55 256 11 28 -20 58 -19 104 3 74 37 89 41 151 41 50 1 70 -4 101 -23z
m-572 -1236 c64 -61 143 -120 159 -120 8 0 14 -4 14 -8 0 -5 26 -16 59 -26 55
-16 61 -16 112 0 47 15 145 67 159 84 3 3 23 19 44 35 l39 30 -8 -35 c-17 -78
-2 -231 26 -266 5 -6 14 -45 19 -87 14 -98 1 -195 -34 -261 -14 -27 -26 -55
-26 -62 0 -17 130 -81 195 -95 28 -6 75 -13 106 -16 l55 -5 12 -56 c6 -31 14
-109 18 -172 6 -106 5 -119 -16 -170 -52 -123 -205 -306 -322 -386 -24 -16
-45 -32 -48 -35 -14 -17 -251 -151 -257 -145 -4 3 -7 51 -8 106 0 63 -5 104
-13 112 -7 7 -12 20 -12 30 0 11 -11 30 -25 44 -21 21 -29 23 -40 14 -19 -16
-19 -44 -1 -59 20 -17 48 -147 44 -206 l-3 -50 -45 1 c-51 2 -140 22 -155 35
-5 5 -15 9 -23 9 -14 0 -101 39 -112 50 -3 3 -23 17 -45 31 -109 71 -223 205
-299 351 -70 136 -80 183 -73 358 3 82 9 156 14 165 7 13 33 17 124 20 63 3
132 10 154 16 22 5 60 15 85 21 25 6 50 14 55 18 6 4 22 10 38 14 31 7 38 45
11 67 -22 18 -46 68 -40 84 2 7 1 42 -4 77 -11 71 -1 540 11 536 4 -2 29 -23
56 -48z m1368 -523 c115 -48 233 -143 316 -254 38 -50 129 -218 129 -236 0 -5
6 -23 14 -40 27 -59 61 -194 81 -317 25 -158 49 -266 90 -415 9 -33 21 -80 27
-105 6 -25 14 -49 18 -55 4 -5 11 -29 15 -52 4 -24 10 -45 15 -48 5 -3 11 -23
15 -45 4 -22 11 -42 16 -46 5 -3 9 -12 9 -21 0 -8 6 -29 14 -46 8 -18 24 -54
36 -82 28 -66 44 -95 104 -190 28 -44 79 -136 113 -205 58 -118 76 -158 139
-298 14 -31 36 -79 49 -107 13 -27 31 -68 40 -90 18 -42 51 -114 103 -225 16
-36 46 -101 67 -145 79 -173 164 -329 209 -387 13 -18 162 -99 207 -113 65
-21 127 -74 182 -157 30 -45 71 -99 91 -117 58 -56 45 -82 -30 -61 -46 13
-115 71 -165 139 -28 38 -49 36 -49 -5 0 -33 60 -106 113 -137 l42 -25 0 -83
0 -84 -42 -3 c-24 -2 -43 -8 -43 -13 0 -13 58 -131 71 -144 5 -5 9 -17 9 -28
0 -10 16 -51 35 -91 48 -99 49 -211 2 -156 -15 17 -57 102 -57 114 0 2 -14 35
-31 73 -16 37 -34 77 -39 88 -48 109 -60 135 -64 135 -14 0 -36 -14 -36 -23 0
-10 20 -56 109 -248 37 -78 38 -95 9 -102 -22 -6 -58 16 -58 36 0 5 -10 31
-21 56 -23 49 -26 57 -60 141 -60 153 -61 154 -88 158 -33 5 -27 -31 25 -134
27 -53 44 -99 41 -108 -10 -26 -40 -18 -64 17 -35 54 -103 167 -103 173 0 8
-131 227 -140 234 -22 18 -73 121 -77 155 -7 59 -29 111 -81 190 -26 38 -49
72 -52 75 -3 3 -37 46 -75 95 -38 50 -72 92 -75 95 -3 3 -30 37 -60 75 -30 39
-57 72 -61 75 -3 3 -55 70 -115 150 -84 112 -127 182 -189 305 -44 88 -82 162
-85 165 -9 9 -92 184 -153 320 -8 19 -23 60 -32 90 -9 30 -21 63 -26 72 -5 10
-9 23 -9 29 0 6 -47 106 -105 223 -58 117 -105 217 -105 222 -1 5 -9 27 -20
49 -11 22 -19 48 -20 57 0 9 -4 19 -9 22 -5 3 -12 23 -16 43 -3 21 -13 58 -21
83 -9 26 -16 90 -18 160 -2 110 -3 115 -24 118 -15 2 -24 12 -27 30 -29 139
-120 312 -166 312 -27 0 -25 -34 5 -73 39 -52 81 -137 104 -211 23 -73 30
-210 12 -221 -6 -3 -12 0 -14 7 -39 147 -149 358 -256 493 -39 49 -49 69 -53
110 -2 28 -10 94 -17 148 -6 54 -10 104 -7 111 3 7 25 17 49 21 104 17 167 86
202 222 10 37 19 74 22 81 4 15 37 9 109 -21z m-289 -783 c30 -45 54 -87 54
-92 0 -6 3 -12 8 -14 7 -3 87 -162 119 -238 11 -25 28 -64 38 -87 15 -35 17
-59 12 -135 -3 -51 -10 -104 -15 -118 -6 -14 -18 -50 -27 -80 -9 -30 -32 -87
-51 -127 -29 -60 -34 -82 -34 -141 0 -69 0 -70 -32 -85 -50 -23 -288 -31 -473
-16 -121 10 -199 10 -363 1 -115 -6 -221 -16 -236 -22 -51 -19 -334 -31 -520
-21 -170 9 -181 11 -197 32 -17 23 -33 80 -49 178 -5 30 -12 57 -17 60 -14 10
-69 131 -88 192 -18 60 -17 108 5 209 6 30 15 60 20 65 4 6 11 25 15 43 4 18
13 45 21 60 8 15 14 33 14 40 0 7 4 20 10 30 5 9 19 40 30 67 12 28 32 73 45
100 13 28 35 75 48 105 14 31 31 61 40 68 12 11 17 4 32 -40 49 -153 206 -360
337 -445 24 -15 45 -30 48 -34 10 -11 135 -67 190 -84 30 -10 96 -20 146 -23
82 -4 97 -2 140 19 50 25 245 138 254 148 3 3 21 17 40 31 74 51 167 143 236
232 49 63 104 166 104 196 0 53 25 34 96 -74z m325 -501 c8 -75 30 -167 42
-179 4 -4 7 -14 7 -21 0 -8 9 -35 21 -61 11 -26 27 -63 36 -82 8 -19 53 -111
99 -203 46 -93 86 -184 90 -203 3 -19 10 -37 15 -40 5 -3 9 -14 9 -25 0 -11 9
-41 21 -67 11 -26 24 -56 28 -67 16 -38 205 -420 211 -425 3 -3 15 -27 28 -55
61 -131 147 -254 362 -518 35 -43 116 -144 123 -152 4 -5 36 -46 72 -90 85
-105 84 -124 -2 -90 -39 14 -103 29 -203 45 -89 15 -330 22 -396 13 -71 -11
-84 -8 -84 17 0 10 -15 30 -32 44 -18 15 -38 30 -44 35 -12 10 -78 40 -134 61
-50 19 -60 29 -60 61 0 15 -4 30 -9 34 -5 3 -12 18 -16 35 -3 16 -17 51 -29
77 -13 26 -31 66 -41 88 -11 22 -41 80 -67 129 -27 48 -53 95 -58 105 -41 77
-119 200 -137 217 -19 17 -23 32 -24 80 0 33 -5 84 -10 114 -5 30 -14 109 -18
175 -7 99 -6 123 6 137 8 9 17 44 20 77 5 51 3 62 -11 67 -13 5 -14 9 -5 20 6
8 14 47 16 87 3 47 12 89 28 122 37 79 52 116 68 170 25 83 28 106 37 216 11
151 27 171 41 52z m-2247 -214 c9 -17 19 -47 22 -68 4 -20 24 -69 46 -110 22
-43 38 -89 38 -108 0 -38 37 -153 54 -168 7 -6 11 -43 11 -93 0 -72 3 -85 19
-94 19 -10 19 -11 1 -24 -15 -11 -16 -18 -7 -38 23 -50 35 -222 22 -306 -7
-44 -10 -89 -7 -101 3 -12 -4 -34 -20 -57 -28 -41 -143 -278 -205 -422 -22
-51 -74 -198 -88 -250 -7 -25 -14 -50 -16 -57 -1 -6 -22 -14 -46 -17 -136 -15
-280 -39 -331 -55 -17 -5 -63 -19 -102 -31 -38 -12 -79 -25 -90 -30 -53 -24
-98 -40 -102 -36 -5 4 25 68 36 76 4 3 12 16 19 30 6 14 18 34 24 45 68 105
247 447 248 471 0 7 7 25 15 40 8 16 15 36 15 44 0 9 4 20 8 25 4 6 25 64 46
130 22 66 43 129 47 140 4 11 13 38 19 60 6 22 18 63 26 90 20 65 42 154 58
235 14 68 28 113 52 167 8 17 14 36 14 41 0 6 3 12 8 14 11 5 69 126 87 180
26 80 41 164 54 301 2 14 10 7 25 -24z m1584 -480 c30 -12 161 -11 237 0 33 5
93 13 133 16 l72 7 0 -36 c0 -51 -29 -105 -60 -113 -28 -7 -237 -8 -700 -2
-221 2 -327 0 -355 -8 -22 -7 -106 -17 -187 -24 -168 -13 -410 0 -472 26 -35
15 -36 17 -36 66 l0 51 38 -6 c69 -13 336 -21 452 -15 63 4 167 14 230 24 63
9 169 21 235 25 136 8 378 2 413 -11z m-88 -189 c228 -16 397 -10 478 15 22 7
22 7 23 -101 0 -60 5 -131 10 -159 5 -27 12 -73 16 -101 5 -48 3 -55 -27 -87
-21 -24 -61 -48 -118 -72 -48 -19 -94 -39 -102 -44 -9 -5 -31 -12 -50 -15 -19
-4 -44 -11 -55 -16 -28 -13 -104 -29 -220 -48 -139 -23 -519 -23 -665 0 -96
15 -131 22 -285 58 -27 7 -54 16 -60 21 -5 5 -15 9 -23 9 -24 0 -118 48 -147
74 -29 27 -29 25 -5 131 14 59 7 164 -17 257 -10 37 -14 70 -11 73 3 4 30 1
59 -5 143 -31 405 -35 519 -9 75 17 359 38 455 33 50 -3 151 -9 225 -14z m570
-460 c0 -5 20 -42 44 -82 68 -113 109 -189 200 -373 101 -204 105 -215 77
-215 -12 0 -29 4 -39 9 -96 52 -162 55 -240 10 -30 -17 -100 -76 -156 -132
-122 -123 -181 -158 -275 -164 -64 -5 -85 -2 -236 32 -118 27 -148 28 -198 11
-27 -9 -55 -22 -63 -29 -63 -50 -134 -152 -137 -195 -3 -42 31 -35 57 12 28
53 36 63 72 100 50 50 61 56 106 62 42 5 65 2 233 -32 132 -26 172 -28 234 -8
84 26 124 55 257 184 96 94 129 121 163 130 47 12 114 3 166 -24 17 -9 36 -16
43 -16 7 0 20 -4 30 -9 29 -14 85 -39 137 -61 92 -39 135 -67 135 -91 0 -7
-57 -23 -120 -35 -38 -7 -123 -31 -155 -44 -75 -31 -221 -106 -265 -135 -29
-19 -54 -35 -57 -35 -2 0 -11 -7 -19 -15 -9 -8 -22 -15 -30 -15 -50 0 134 154
231 192 44 18 60 29 60 43 0 11 -8 21 -17 23 -21 4 -118 -40 -168 -76 -44 -32
-170 -154 -170 -164 0 -5 12 -13 28 -19 25 -10 26 -11 8 -21 -30 -17 -66 -48
-137 -119 -96 -96 -148 -165 -142 -188 4 -16 -2 -21 -34 -26 -82 -14 -252 -79
-304 -116 l-27 -19 -7 68 c-7 69 -12 92 -48 197 -27 78 -54 121 -106 168 l-43
38 -114 -7 -114 -7 0 27 c0 71 -282 270 -440 311 -14 3 -34 10 -45 15 -22 9
-131 32 -240 51 -38 6 -114 14 -169 16 l-98 5 6 46 c3 25 11 51 16 56 6 6 10
17 10 26 0 8 7 28 15 44 8 15 15 33 15 38 0 5 9 30 21 56 11 26 27 63 36 82 8
19 25 58 38 85 28 60 84 184 110 243 10 23 25 42 31 42 7 0 32 -13 56 -29 87
-58 326 -124 553 -151 106 -13 460 -13 555 0 160 21 349 67 412 101 10 5 23 9
30 9 30 0 160 74 185 105 25 31 43 37 43 15z m-1880 -839 c94 -12 193 -32 205
-41 6 -4 26 -11 45 -15 19 -4 41 -11 50 -16 22 -12 108 -49 114 -49 6 0 105
-59 121 -73 6 -4 24 -18 41 -30 58 -41 137 -118 130 -125 -16 -15 -311 -13
-436 3 -247 32 -310 36 -399 26 -99 -11 -191 -29 -206 -41 -5 -4 -23 -10 -39
-14 -33 -8 -145 -61 -221 -104 -52 -30 -67 -59 -42 -81 12 -9 18 -9 29 1 43
39 267 148 305 148 10 0 23 4 28 9 6 5 60 14 121 21 113 12 338 0 392 -21 62
-24 323 -21 653 8 55 4 58 3 93 -32 35 -35 86 -128 86 -157 0 -8 4 -18 9 -24
10 -9 29 -104 38 -185 l5 -46 -59 -16 c-32 -9 -83 -23 -113 -32 -58 -17 -124
-36 -200 -55 -25 -6 -54 -15 -65 -20 -20 -8 -75 -23 -155 -42 -25 -6 -49 -14
-55 -18 -5 -4 -30 -11 -55 -15 -25 -4 -49 -11 -55 -15 -5 -4 -28 -11 -50 -14
-39 -7 -102 -25 -175 -48 -19 -6 -53 -15 -75 -19 -39 -8 -117 -25 -245 -55
-308 -71 -480 -102 -646 -116 -277 -24 -472 28 -590 154 -79 87 -80 90 -35
126 21 17 73 77 115 134 42 57 80 108 84 113 20 26 73 119 88 152 8 21 18 80
21 133 4 85 26 186 42 200 3 3 17 27 31 53 35 67 54 81 140 106 41 12 82 26
90 30 9 5 31 12 50 15 19 4 44 11 55 16 34 15 210 51 335 69 75 11 321 12 400
2z m2970 -101 c94 -15 166 -28 240 -45 36 -8 79 -14 96 -15 34 0 44 -16 44
-76 0 -42 23 -95 75 -174 58 -88 116 -184 161 -266 21 -38 43 -74 48 -80 6 -7
23 -31 38 -55 15 -24 33 -52 40 -62 12 -16 5 -26 -53 -80 -36 -34 -86 -75
-110 -92 -24 -16 -46 -33 -49 -37 -12 -15 -235 -121 -280 -133 -14 -3 -34 -10
-45 -15 -32 -13 -103 -31 -190 -46 -334 -60 -1004 -37 -1750 60 -198 26 -234
32 -238 36 -3 3 -6 61 -8 130 l-4 125 25 3 c14 2 36 7 50 12 14 4 37 11 53 14
19 5 27 13 27 28 0 30 29 49 52 34 14 -8 25 -7 50 6 60 31 127 58 142 58 8 0
17 4 20 9 4 5 25 12 49 16 23 4 47 11 52 16 6 4 35 13 65 18 30 6 78 15 106
20 52 10 132 34 169 51 19 8 74 32 155 66 19 8 42 19 51 24 9 5 34 12 55 16
22 3 44 10 49 14 16 12 203 34 290 34 44 0 135 -6 203 -13 127 -14 151 -10
139 22 -9 24 -100 38 -272 44 -211 7 -387 -20 -510 -77 -11 -5 -42 -18 -70
-30 -27 -12 -59 -25 -70 -30 -86 -38 -116 -50 -127 -50 -7 0 -31 -7 -53 -15
-50 -18 -95 -19 -95 -2 0 19 207 218 297 284 45 34 126 82 180 108 54 26 106
51 115 56 10 5 23 9 29 9 6 0 25 6 42 14 152 67 498 99 717 66z m1169 -354
c15 -18 33 -98 38 -177 4 -63 3 -68 -23 -88 -47 -37 -83 -23 -121 46 -19 34
-16 53 9 53 12 0 30 7 40 17 19 17 25 68 9 77 -11 7 -20 56 -14 73 7 17 47 17
62 -1z"/>
<path d="M4290 7922 c-34 -11 -55 -23 -55 -32 0 -12 18 -15 94 -15 l95 0 33
-43 c23 -31 33 -54 33 -80 0 -61 10 -82 36 -82 22 0 24 4 24 51 0 75 -40 152
-95 185 -58 33 -99 37 -165 16z"/>
<path d="M4195 7793 c-21 -5 -79 -46 -105 -72 -33 -34 -90 -115 -90 -127 0 -8
-4 -14 -9 -14 -5 0 -13 -10 -17 -22 -3 -12 -23 -49 -43 -83 -66 -110 -106
-202 -148 -340 -24 -81 -25 -271 -1 -335 39 -105 64 -140 99 -140 11 0 12 57
2 62 -14 6 -50 92 -63 148 -16 75 4 275 31 304 5 6 9 16 9 24 0 18 19 62 88
202 117 238 217 350 312 350 36 0 89 -27 123 -62 32 -33 69 -41 75 -16 4 20
-33 58 -92 95 -39 25 -126 39 -171 26z"/>
<path d="M5054 6665 c-4 -9 -1 -47 6 -83 47 -256 34 -665 -26 -799 -18 -39
-18 -57 0 -72 10 -9 18 -7 34 6 21 18 30 53 52 193 6 36 16 94 21 130 20 122
-3 504 -36 599 -13 39 -41 53 -51 26z"/>
<path d="M3735 6499 c-4 -6 -5 -75 -1 -153 7 -177 -17 -420 -45 -450 -5 -6 -9
-17 -9 -25 0 -8 -20 -47 -45 -87 -25 -39 -45 -77 -45 -83 0 -6 12 -11 28 -11
20 0 33 9 50 35 12 19 22 39 22 45 0 5 5 10 10 10 6 0 10 6 10 13 0 6 7 25 15
41 28 53 47 145 65 306 15 144 -3 362 -32 368 -9 2 -19 -2 -23 -9z"/>
<path d="M4715 7102 c-54 -5 -163 -59 -171 -84 -13 -44 19 -49 77 -13 58 37
125 48 194 30 31 -9 61 -13 66 -9 47 29 -76 85 -166 76z"/>
<path d="M4032 7070 c-30 -13 -28 -57 3 -51 95 17 171 10 270 -25 62 -22 77
-19 73 13 -2 21 -10 30 -33 36 -16 5 -43 13 -60 19 -42 14 -225 20 -253 8z"/>
<path d="M4057 6943 c-4 -3 -7 -16 -7 -29 0 -17 10 -25 49 -38 58 -19 142 -21
174 -4 12 6 29 14 37 18 21 10 24 46 5 54 -9 3 -26 -1 -38 -9 -28 -20 -133
-20 -171 0 -32 17 -40 18 -49 8z"/>
<path d="M4397 6868 c-4 -64 -11 -94 -32 -133 -26 -48 -26 -51 -11 -80 17 -30
66 -65 92 -65 9 0 14 11 14 30 0 23 -5 31 -24 36 -34 8 -40 31 -18 68 28 46
44 114 40 171 -3 45 -5 50 -29 53 -26 3 -26 2 -32 -80z"/>
<path d="M4570 6931 c0 -25 26 -51 50 -51 10 0 22 -4 25 -10 10 -16 95 -12
142 6 33 13 43 22 43 40 0 31 -13 37 -46 19 -37 -19 -124 -19 -150 0 -28 21
-64 19 -64 -4z"/>
<path d="M4291 6501 c-24 -16 -2 -51 46 -72 47 -20 147 -26 158 -9 3 6 16 10
28 10 31 0 67 27 67 51 0 30 -23 33 -73 10 -59 -27 -132 -27 -172 -1 -34 23
-35 23 -54 11z"/>
<path d="M4129 5780 c-46 -29 101 -124 194 -125 44 0 52 3 52 19 0 18 -17 26
-121 55 -23 6 -57 22 -76 35 -22 15 -40 21 -49 16z"/>
<path d="M4700 5775 c-36 -21 -74 -36 -160 -60 -60 -17 -75 -25 -75 -41 0 -17
7 -19 58 -18 32 1 63 6 70 13 6 6 17 11 25 11 20 0 118 48 132 65 14 17 6 45
-12 45 -7 0 -24 -7 -38 -15z"/>
<path d="M5561 5301 c-15 -9 -8 -46 14 -71 26 -30 38 -134 26 -216 -6 -43 -15
-82 -20 -88 -24 -31 -18 -86 10 -86 10 0 31 45 55 115 25 71 24 196 0 260 -35
89 -52 107 -85 86z"/>
<path d="M3533 3014 c-8 -21 13 -37 87 -71 30 -13 69 -31 87 -39 17 -8 37 -14
45 -14 8 0 18 -4 23 -9 17 -14 184 -57 315 -79 132 -22 535 -22 675 0 134 22
323 65 340 78 6 4 26 11 45 15 19 4 41 11 50 15 8 5 38 16 65 25 98 34 136 55
133 73 -6 33 -31 29 -163 -28 -33 -13 -136 -47 -200 -65 -33 -9 -76 -20 -95
-26 -19 -5 -62 -14 -95 -19 -33 -6 -89 -15 -125 -21 -84 -15 -496 -15 -580 -1
-150 26 -300 60 -315 72 -5 4 -26 11 -45 15 -19 4 -39 11 -45 15 -5 4 -21 11
-35 15 -14 4 -53 21 -87 36 -72 34 -72 34 -80 13z"/>
<path d="M5465 2633 c-22 -3 -44 -8 -50 -12 -5 -5 -27 -12 -49 -15 -21 -4 -46
-11 -55 -16 -9 -5 -47 -23 -86 -41 -68 -31 -185 -96 -195 -109 -3 -3 -23 -17
-45 -30 -22 -13 -51 -35 -65 -47 -14 -13 -28 -23 -32 -23 -13 0 -48 -39 -48
-54 0 -8 7 -17 16 -20 13 -5 40 11 119 71 14 11 96 65 120 80 66 39 231 123
243 123 5 0 23 7 41 16 18 9 70 18 126 21 71 5 95 10 100 21 3 8 2 19 -2 23
-11 10 -90 17 -138 12z"/>
<path d="M3543 2453 c-32 -3 -43 -8 -43 -21 0 -34 13 -41 55 -32 85 20 207 8
405 -40 25 -5 54 -15 65 -20 50 -23 114 -50 119 -50 9 0 109 -62 147 -91 52
-40 102 -24 66 22 -14 18 -165 109 -222 133 -22 9 -47 21 -55 25 -9 5 -31 12
-50 16 -19 4 -40 11 -45 16 -12 9 -91 25 -195 39 -65 9 -166 10 -247 3z"/>
<path d="M2030 1974 c-49 -99 -114 -153 -212 -178 -59 -14 -18 -54 42 -41 82
18 147 70 205 165 44 73 50 120 16 120 -14 0 -28 -19 -51 -66z"/>
</g>
</svg>
