<?xml version="1.0" standalone="no"?>
<!DOCTYPE svg PUBLIC "-//W3C//DTD SVG 20010904//EN"
 "http://www.w3.org/TR/2001/REC-SVG-20010904/DTD/svg10.dtd">
<svg version="1.0" xmlns="http://www.w3.org/2000/svg"
 width="300.000000pt" height="300.000000pt" viewBox="0 0 300.000000 300.000000"
 preserveAspectRatio="xMidYMid meet">
<metadata>
Created by potrace 1.10, written by Peter Selinger 2001-2011
</metadata>
<g transform="translate(0.000000,300.000000) scale(0.100000,-0.100000)"
fill="#000000" stroke="none">
<path d="M745 2156 c-73 -27 -135 -115 -135 -193 l0 -22 -35 21 c-47 27 -137
22 -183 -11 -54 -38 -66 -73 -72 -201 l-5 -115 -62 -3 c-86 -4 -103 -25 -103
-132 0 -107 17 -128 103 -132 l62 -3 5 -115 c6 -133 21 -171 86 -207 51 -29
126 -31 172 -3 l32 20 0 -30 c0 -17 7 -47 16 -68 70 -167 321 -179 407 -19 20
39 22 58 25 235 l4 192 438 0 438 0 4 -192 c3 -177 5 -196 25 -235 71 -132
270 -154 370 -40 31 36 53 90 53 134 l0 23 33 -20 c45 -28 120 -26 171 3 65
36 80 74 86 207 l5 115 63 5 c88 7 102 25 102 130 0 107 -17 128 -103 132
l-62 3 -5 115 c-6 128 -18 163 -72 201 -46 33 -136 38 -183 11 l-35 -21 0 22
c0 81 -70 175 -145 196 -117 32 -228 -9 -278 -102 -20 -39 -22 -58 -25 -234
l-4 -193 -438 0 -438 0 -4 193 c-3 183 -4 194 -28 237 -39 68 -94 102 -177
106 -44 3 -82 -1 -108 -10z m182 -72 c15 -11 36 -33 47 -48 21 -27 21 -38 21
-536 0 -498 0 -509 -21 -536 -33 -46 -70 -67 -123 -72 -71 -6 -133 25 -160 82
-20 41 -21 58 -21 526 0 467 1 485 21 526 27 58 84 87 157 81 32 -2 63 -12 79
-23z m1330 0 c15 -11 36 -33 47 -48 20 -27 21 -40 24 -523 2 -485 2 -496 -18
-539 -28 -57 -89 -89 -161 -82 -53 5 -89 26 -123 72 -20 27 -21 41 -24 499 -2
260 0 491 3 514 7 49 45 99 90 119 41 20 129 13 162 -12z m-1701 -180 c52 -35
54 -46 54 -404 0 -358 -2 -369 -54 -404 -14 -9 -44 -16 -67 -16 -33 0 -47 6
-75 34 l-34 34 0 352 0 352 34 34 c28 28 42 34 75 34 23 0 53 -7 67 -16z
m2030 -18 l34 -34 0 -352 0 -352 -34 -34 c-39 -39 -86 -45 -136 -19 -58 30
-60 42 -60 405 0 220 4 339 11 353 21 42 61 67 108 67 36 0 49 -6 77 -34z
m-2266 -387 l0 -70 -52 3 -53 3 -3 54 c-4 76 -1 81 58 81 l50 0 0 -71z m1620
1 l0 -70 -440 0 -440 0 0 70 0 70 440 0 440 0 0 -70z m845 0 l0 -65 -52 -3
-53 -3 0 71 0 71 53 -3 52 -3 0 -65z"/>
</g>
</svg>
