<?xml version="1.0" standalone="no"?>
<!DOCTYPE svg PUBLIC "-//W3C//DTD SVG 20010904//EN"
 "http://www.w3.org/TR/2001/REC-SVG-20010904/DTD/svg10.dtd">
<svg version="1.0" xmlns="http://www.w3.org/2000/svg"
 width="300.000000pt" height="300.000000pt" viewBox="0 0 300.000000 300.000000"
 preserveAspectRatio="xMidYMid meet">
<metadata>
Created by potrace 1.10, written by Peter Selinger 2001-2011
</metadata>
<g transform="translate(0.000000,300.000000) scale(0.100000,-0.100000)"
fill="#000000" stroke="none">
<path d="M1430 2984 c-303 -82 -418 -466 -206 -692 25 -27 43 -52 39 -55 -3
-4 -21 -7 -38 -7 -47 0 -127 -26 -173 -57 -53 -37 -298 -277 -323 -317 -24
-40 -26 -131 -3 -166 9 -14 89 -98 178 -188 l161 -162 -67 -67 -68 -67 -107
106 c-82 80 -118 109 -148 117 -54 15 -73 14 -121 -8 -54 -25 -95 -79 -101
-135 -10 -81 8 -108 179 -283 178 -180 218 -212 276 -220 76 -10 106 9 277
177 150 148 163 158 205 163 25 3 53 9 61 12 13 5 38 -46 122 -249 59 -141
107 -258 107 -261 0 -2 -312 -6 -692 -7 l-693 -3 -42 -24 c-50 -29 -87 -79
-103 -139 -20 -78 14 -164 85 -214 l45 -32 0 -67 c0 -75 17 -107 69 -129 85
-35 161 34 161 146 l0 44 914 0 913 0 6 -66 c4 -54 10 -71 33 -95 52 -54 137
-47 175 15 13 21 19 50 19 92 0 60 0 60 43 91 81 57 112 176 68 262 -20 38
-83 101 -101 101 -6 0 -10 135 -10 358 l0 358 131 64 c72 36 138 73 146 83 15
16 14 23 -18 88 -18 39 -42 75 -52 81 -15 7 -92 -27 -380 -170 -199 -98 -368
-186 -376 -196 -13 -15 -10 -25 20 -87 18 -39 42 -75 51 -80 13 -7 45 4 128
46 60 30 112 55 115 55 3 0 5 -130 5 -290 l0 -290 -176 0 c-164 0 -176 1 -169
18 4 9 10 37 12 62 5 41 -8 78 -130 372 l-135 326 16 56 15 56 67 0 c51 0 78
6 111 23 111 59 120 208 17 290 -33 27 -48 31 -117 35 l-78 4 -5 62 c-6 70
-34 137 -84 194 l-34 40 64 30 c156 73 248 215 248 382 0 283 -262 487 -532
414z m255 -99 c73 -35 131 -95 167 -170 77 -165 6 -367 -159 -450 -52 -27 -68
-30 -153 -30 -85 0 -101 3 -153 29 -71 36 -130 99 -165 174 -21 46 -26 71 -25
132 1 158 87 278 238 333 70 25 178 18 250 -18z m-119 -773 c57 -39 97 -91
114 -147 8 -27 11 -112 8 -270 -3 -212 -5 -234 -25 -278 -51 -110 -179 -204
-294 -214 l-58 -6 -165 -163 c-162 -160 -192 -182 -239 -170 -12 3 -102 86
-200 184 -189 191 -195 199 -162 261 17 34 65 56 101 47 15 -4 81 -60 150
-128 103 -101 127 -119 146 -115 13 4 67 51 120 105 82 85 102 100 136 106 45
7 95 44 117 87 8 15 15 52 15 82 0 66 -29 113 -129 212 l-71 69 66 67 c50 51
65 72 62 90 -2 16 -11 25 -27 27 -19 3 -43 -15 -112 -84 -49 -49 -89 -95 -89
-103 0 -8 47 -62 104 -120 118 -120 133 -145 112 -196 -17 -40 -42 -55 -92
-55 -35 0 -48 10 -201 163 -163 163 -163 163 -163 209 0 45 1 46 143 185 135
133 177 165 237 184 14 4 98 7 186 6 l161 -2 49 -33z m370 -365 c34 -40 32
-90 -5 -128 -27 -26 -36 -29 -95 -29 l-66 0 0 96 0 96 71 -4 c63 -3 74 -7 95
-31z m818 -223 c3 -9 4 -19 2 -22 -2 -4 -45 -27 -95 -52 -85 -41 -92 -43 -108
-27 -9 9 -15 18 -12 21 6 7 193 96 200 96 4 0 10 -7 13 -16z m-269 -783 c0
-590 -1 -645 -17 -654 -12 -8 -21 -7 -32 2 -14 12 -16 81 -16 645 0 667 0 660
45 654 20 -3 20 -9 20 -647z m-145 575 c0 -21 -14 -32 -107 -76 -82 -39 -108
-48 -114 -38 -5 7 -9 16 -9 20 0 7 207 116 223 117 4 1 7 -10 7 -23z m-622
-68 c11 -29 64 -156 116 -283 53 -126 96 -243 96 -258 0 -68 -97 -112 -151
-68 -16 12 -61 107 -130 273 l-106 253 36 30 c20 16 52 46 71 66 19 21 38 38
41 38 3 1 16 -23 27 -51z m622 -838 l0 -130 -1012 0 c-969 0 -1014 1 -1041 19
-84 55 -83 161 2 218 l34 23 1008 0 1009 0 0 -130z m264 65 c25 -38 21 -108
-9 -142 l-24 -28 -1 98 c0 53 4 97 9 97 5 0 16 -11 25 -25z m-2176 -320 c4
-50 -16 -80 -46 -71 -19 6 -22 15 -22 62 l0 55 33 -3 c30 -3 32 -6 35 -43z"/>
</g>
</svg>
