<?xml version="1.0" standalone="no"?>
<!DOCTYPE svg PUBLIC "-//W3C//DTD SVG 20010904//EN"
 "http://www.w3.org/TR/2001/REC-SVG-20010904/DTD/svg10.dtd">
<svg version="1.0" xmlns="http://www.w3.org/2000/svg"
 width="900.000000pt" height="873.000000pt" viewBox="0 0 900.000000 873.000000"
 preserveAspectRatio="xMidYMid meet">
<metadata>
Created by potrace 1.10, written by Peter Selinger 2001-2011
</metadata>
<g transform="translate(0.000000,873.000000) scale(0.100000,-0.100000)"
fill="#000000" stroke="none">
<path d="M6045 6323 c-12 -18 -15 -66 -14 -255 1 -128 5 -278 9 -333 l7 -100
1 103 c2 108 7 117 48 88 11 -8 31 -16 44 -18 l25 -3 3 -444 c2 -380 0 -447
-13 -461 -10 -12 -15 -47 -17 -135 l-3 -120 -25 0 c-23 0 -26 5 -32 55 -3 30
-7 120 -8 200 -2 127 -4 137 -11 80 -4 -36 -6 -76 -3 -90 2 -14 0 -32 -6 -40
-7 -12 -15 -9 -40 20 -18 19 -46 54 -63 78 -28 39 -47 53 -47 34 0 -8 37 -57
70 -92 31 -34 80 -166 80 -218 0 -27 -4 -30 -37 -35 -21 -2 -45 0 -54 4 -11 6
-21 4 -29 -6 -19 -23 -70 7 -71 43 -1 15 -6 0 -13 -33 -6 -33 -15 -66 -19 -73
-23 -36 -179 -81 -284 -82 -43 0 -73 -4 -73 -10 0 -6 -12 -15 -27 -21 -15 -6
-49 -21 -76 -35 -67 -33 -83 -31 -103 14 l-17 37 -7 -30 c-4 -16 -8 -67 -9
-113 -1 -79 -2 -83 -21 -77 -16 5 -20 2 -20 -14 0 -12 6 -21 14 -21 17 0 24
-26 33 -119 7 -87 33 -121 93 -121 26 0 45 -9 73 -33 20 -19 37 -39 37 -45 0
-17 -25 -15 -40 3 -17 21 -59 19 -66 -2 -3 -10 -11 -28 -17 -40 -13 -28 14
-63 50 -63 23 0 32 -23 13 -35 -21 -13 -9 -25 26 -25 30 0 35 3 29 18 -4 9 -8
28 -9 42 -1 20 -7 26 -39 31 -47 7 -51 12 -37 38 13 25 33 27 50 6 7 -8 21
-15 31 -15 10 0 34 -13 52 -30 19 -16 40 -30 47 -30 7 0 36 -6 64 -14 28 -8
80 -22 116 -31 36 -9 88 -23 116 -31 28 -8 63 -14 77 -14 22 0 27 -5 27 -24 0
-13 7 -29 15 -36 25 -21 19 -75 -10 -94 -25 -16 -25 -17 -25 -169 0 -84 5
-191 11 -237 13 -108 6 -148 -28 -161 -20 -7 -23 -13 -15 -21 9 -9 18 -9 36 0
21 9 34 7 78 -14 29 -14 60 -30 68 -35 8 -5 22 -12 30 -15 8 -3 22 -10 30 -15
8 -5 25 -13 37 -18 11 -6 24 -15 28 -20 3 -6 14 -11 24 -11 10 0 24 -7 31 -15
7 -8 20 -15 30 -15 10 0 23 -7 30 -15 7 -8 20 -15 30 -15 10 0 23 -7 30 -15 7
-8 21 -15 31 -15 23 0 29 -11 22 -38 -4 -18 -13 -22 -43 -22 -21 0 -43 7 -50
15 -7 8 -20 15 -30 15 -10 0 -23 7 -30 15 -7 8 -20 15 -30 15 -10 0 -23 7 -30
15 -7 8 -20 15 -30 15 -10 0 -20 7 -24 15 -3 8 -16 15 -30 15 -13 0 -26 7 -30
15 -3 8 -16 15 -30 15 -13 0 -26 7 -30 15 -3 8 -16 15 -30 15 -13 0 -26 7 -30
15 -3 8 -14 15 -24 15 -11 0 -25 7 -32 15 -7 8 -21 15 -31 15 -10 0 -21 5 -24
11 -4 6 -15 13 -26 17 -17 7 -18 27 -23 282 -8 371 -26 387 -26 22 0 -259 -1
-272 -19 -272 -10 0 -24 7 -31 15 -7 8 -21 15 -31 15 -11 0 -19 4 -19 10 0 5
-12 13 -27 16 -16 4 -30 10 -33 14 -9 11 -90 50 -105 50 -8 0 -15 4 -15 10 0
5 -11 12 -25 16 -13 3 -29 12 -36 20 -6 8 -19 14 -29 14 -10 0 -23 7 -30 15
-7 8 -20 15 -30 15 -10 0 -23 7 -30 15 -7 8 -20 15 -30 15 -10 0 -23 7 -30 15
-7 8 -19 15 -27 15 -8 0 -21 7 -29 15 -19 18 -57 20 -52 3 3 -7 14 -14 26 -16
11 -2 26 -10 32 -18 7 -8 20 -14 30 -14 10 0 20 -7 24 -15 3 -8 16 -15 30 -15
13 0 26 -7 30 -15 3 -8 14 -15 24 -15 11 0 25 -7 32 -15 7 -8 20 -15 30 -15
10 0 23 -7 30 -15 7 -8 20 -15 30 -15 10 0 23 -7 30 -15 7 -8 20 -15 30 -15
10 0 23 -7 30 -15 7 -8 20 -15 30 -15 10 0 23 -7 30 -15 7 -8 20 -15 30 -15
10 0 23 -7 30 -15 7 -8 20 -15 30 -15 10 0 23 -7 30 -15 7 -8 20 -15 30 -15
10 0 23 -7 30 -15 7 -8 21 -15 31 -15 11 0 19 -4 19 -10 0 -5 11 -12 25 -16
13 -3 29 -12 36 -20 6 -8 19 -14 29 -14 10 0 23 -7 30 -15 7 -8 20 -15 30 -15
10 0 23 -7 30 -15 7 -8 20 -15 30 -15 10 0 23 -7 30 -15 7 -8 20 -15 30 -15
10 0 23 -7 30 -15 7 -8 20 -15 30 -15 10 0 23 -7 30 -15 7 -8 20 -15 30 -15
10 0 23 -7 30 -15 7 -8 20 -15 30 -15 27 0 50 -33 50 -73 0 -38 -16 -59 -26
-33 -3 9 -14 16 -24 16 -11 0 -21 4 -25 9 -3 6 -29 22 -58 36 -71 36 -97 51
-110 64 -6 6 -19 11 -28 11 -9 0 -22 7 -29 15 -7 8 -21 15 -32 15 -10 0 -21 7
-24 15 -4 8 -14 15 -24 15 -11 0 -21 4 -25 9 -3 6 -30 21 -60 35 -29 14 -57
31 -60 36 -3 6 -14 10 -25 10 -10 0 -20 7 -24 15 -3 8 -14 15 -24 15 -11 0
-25 7 -32 15 -7 8 -20 15 -30 15 -10 0 -20 7 -24 15 -3 8 -14 15 -25 15 -11 0
-23 4 -26 10 -3 5 -31 22 -60 36 -30 14 -57 29 -60 35 -4 5 -14 9 -25 9 -10 0
-20 7 -24 15 -3 8 -14 15 -24 15 -11 0 -25 7 -32 15 -7 8 -21 15 -31 15 -10 0
-21 5 -24 11 -4 5 -17 14 -28 20 -12 5 -30 13 -39 19 -10 5 -26 15 -35 20 -10
6 -28 14 -40 19 -11 6 -24 15 -28 20 -3 6 -13 11 -21 11 -8 0 -26 12 -39 28
l-25 27 -18 -23 c-17 -22 -65 -52 -83 -52 -5 0 -9 15 -9 33 0 38 34 77 67 77
12 0 23 7 27 15 4 11 -1 15 -19 15 -13 0 -30 -7 -39 -15 -19 -20 -76 -20 -76
-1 0 8 9 18 20 21 11 3 20 11 20 16 0 5 9 9 19 9 11 0 26 7 35 15 18 18 66 20
66 2 0 -7 -4 -17 -10 -23 -6 -6 -6 -21 2 -42 14 -37 23 -40 37 -13 21 39 114
49 142 15 6 -8 19 -14 29 -14 10 0 23 -7 30 -15 7 -8 21 -15 31 -15 10 0 21
-5 24 -11 4 -5 17 -14 28 -20 12 -5 30 -13 40 -19 9 -5 25 -15 35 -20 9 -6 23
-12 30 -15 23 -9 37 -16 72 -34 19 -11 38 -17 43 -14 8 5 10 324 1 346 -4 12
-11 12 -45 1 -37 -13 -62 -25 -99 -46 -8 -4 -22 -11 -30 -14 -8 -3 -27 -12
-42 -20 -14 -8 -33 -14 -41 -14 -8 0 -20 -6 -26 -14 -23 -27 -131 -31 -131 -4
0 5 14 14 30 19 17 6 30 15 30 20 0 5 11 9 24 9 14 0 31 7 40 15 8 8 23 15 34
15 11 0 25 7 32 15 7 8 23 15 35 15 12 0 28 7 35 15 7 8 23 15 37 15 13 0 26
7 29 15 4 8 15 15 27 15 11 0 28 6 36 14 9 8 32 16 51 18 l35 3 3 -238 c2
-184 5 -238 15 -234 9 3 12 70 13 276 l2 273 -32 19 c-17 10 -47 19 -67 19
-20 0 -42 7 -49 15 -8 10 -31 15 -68 15 -73 0 -57 -19 22 -27 44 -5 56 -9 52
-20 -4 -8 -6 -21 -6 -29 0 -8 -10 -14 -24 -14 -13 0 -29 -7 -36 -15 -7 -8 -23
-15 -35 -15 -12 0 -28 -7 -35 -15 -7 -8 -21 -15 -31 -15 -9 0 -24 -7 -33 -15
-8 -8 -22 -15 -32 -15 -10 0 -25 -6 -33 -14 -9 -8 -27 -16 -41 -18 l-25 -3 -3
104 c-2 71 1 107 9 111 7 5 -3 22 -30 50 -33 34 -41 50 -41 79 0 21 -7 46 -15
57 -8 10 -15 31 -15 46 0 33 -9 58 -21 58 -15 0 -10 -87 6 -100 8 -7 15 -28
15 -46 0 -32 32 -108 51 -120 5 -3 9 -74 9 -159 l0 -154 -29 -20 c-33 -23 -76
-27 -88 -8 -4 6 -10 55 -14 107 l-6 95 -1 -80 c-2 -74 -4 -82 -31 -108 -16
-15 -36 -27 -44 -27 -9 0 -22 -6 -29 -13 -7 -8 -25 -17 -39 -20 -14 -4 -38
-18 -52 -31 -23 -21 -27 -33 -27 -81 0 -49 3 -56 24 -65 13 -5 27 -14 31 -19
10 -17 92 -14 99 4 3 8 15 15 26 15 11 0 23 7 26 15 4 8 16 15 29 15 13 0 25
-7 29 -15 3 -8 14 -15 25 -15 11 0 23 -4 26 -10 3 -5 31 -22 60 -36 30 -14 57
-29 60 -35 4 -5 15 -9 26 -9 10 0 19 -4 19 -10 0 -5 11 -12 25 -16 13 -3 29
-12 36 -20 6 -8 20 -14 30 -14 11 0 19 -4 19 -9 0 -5 12 -14 28 -20 15 -6 35
-15 45 -21 44 -25 53 -31 74 -39 11 -6 24 -15 28 -20 3 -6 14 -11 25 -11 10 0
20 -7 24 -15 3 -8 14 -15 24 -15 11 0 25 -7 32 -15 7 -8 20 -15 30 -15 10 0
20 -7 24 -15 3 -8 14 -15 25 -15 11 0 23 -4 26 -10 3 -5 31 -22 60 -36 30 -14
57 -29 60 -35 4 -5 15 -9 26 -9 10 0 19 -4 19 -10 0 -5 11 -12 25 -16 13 -3
29 -12 36 -20 6 -8 19 -14 29 -14 10 0 23 -7 30 -15 7 -8 21 -15 31 -15 11 0
19 -4 19 -9 0 -5 12 -14 28 -20 35 -15 71 -36 85 -50 6 -6 19 -11 28 -11 9 0
22 -7 29 -15 15 -18 61 -20 77 -4 6 6 22 17 35 23 21 11 23 18 23 91 0 72 -2
80 -20 83 -11 3 -24 10 -28 18 -4 8 -16 14 -26 14 -10 0 -24 7 -31 15 -7 8
-20 15 -30 15 -10 0 -23 7 -30 15 -7 8 -20 15 -30 15 -10 0 -23 7 -30 15 -7 8
-21 15 -30 15 -10 0 -20 4 -22 8 -1 5 -38 26 -81 47 -43 22 -81 43 -83 47 -3
4 6 13 20 20 14 6 26 15 26 20 0 4 6 8 14 8 8 0 28 8 44 17 28 16 31 16 46 0
10 -9 24 -17 32 -17 9 0 22 -7 30 -15 16 -16 94 -21 94 -6 0 13 -26 21 -65 21
-18 0 -38 7 -45 15 -7 8 -16 15 -21 15 -4 0 -27 12 -51 28 -74 47 -82 52 -105
62 -15 6 -24 22 -29 47 l-7 38 -9 -27 c-9 -27 -32 -36 -53 -20 -7 4 -11 69
-10 177 l0 170 28 3 c24 3 27 8 27 39 0 19 -6 49 -13 66 -44 104 -51 143 -53
277 -1 74 -5 165 -9 203 -5 41 -3 72 3 80 5 6 13 32 17 57 8 48 29 80 52 80 8
0 23 5 34 11 16 8 18 13 8 25 -10 12 -8 17 7 29 26 20 53 18 92 -5 18 -11 39
-20 47 -20 23 0 93 -49 98 -68 4 -15 5 -15 6 0 0 10 -8 33 -19 53 -19 34 -19
36 -2 63 35 57 78 102 95 102 18 0 76 -28 87 -41 3 -4 30 -18 60 -32 67 -32
120 -79 120 -106 0 -22 14 -28 25 -11 9 15 48 12 81 -5 16 -8 43 -15 59 -15
31 -1 75 -30 75 -49 0 -6 -7 -11 -15 -11 -8 0 -41 -13 -72 -29 -32 -16 -80
-40 -106 -53 -86 -41 -99 -50 -126 -80 l-27 -31 -35 30 c-19 16 -54 39 -79 52
-25 12 -50 29 -57 38 -10 13 -14 10 -26 -19 -8 -20 -18 -50 -21 -69 -10 -48
-36 -110 -58 -135 -16 -18 -17 -23 -4 -33 11 -9 12 -20 5 -44 -5 -18 -9 -59
-9 -92 0 -34 -7 -87 -15 -118 -25 -96 -14 -199 11 -110 9 32 15 37 35 35 13
-2 31 -10 40 -18 8 -8 23 -14 33 -14 10 0 24 -7 32 -15 9 -8 24 -15 33 -15 10
0 24 -7 31 -15 7 -8 21 -15 32 -15 10 0 24 -5 31 -10 7 -6 20 -17 31 -24 17
-12 16 -14 -18 -34 -21 -12 -43 -22 -50 -22 -8 0 -19 -7 -26 -15 -7 -8 -20
-15 -30 -15 -10 0 -23 -7 -30 -15 -7 -8 -19 -15 -28 -15 -8 0 -23 -6 -31 -14
-9 -8 -30 -17 -47 -20 -26 -6 -32 -3 -41 16 -10 21 -11 22 -18 4 -10 -23 29
-106 50 -106 8 0 15 -4 15 -10 0 -5 12 -13 28 -16 15 -4 36 -13 47 -20 11 -8
26 -14 33 -14 8 0 31 -13 52 -30 21 -17 43 -30 49 -30 15 0 51 -32 51 -45 0
-17 -72 -45 -116 -45 -22 0 -49 -7 -60 -15 -17 -13 -15 -14 34 -15 30 0 66 6
80 14 15 7 40 18 57 22 16 5 31 18 33 27 4 20 -24 57 -43 57 -7 0 -15 7 -19
15 -3 8 -14 15 -25 15 -19 0 -41 26 -41 49 0 6 8 11 19 11 10 0 24 7 31 15 7
8 21 15 32 15 10 0 21 7 24 15 4 8 17 15 30 15 14 0 27 7 30 15 4 8 14 15 24
15 10 0 25 7 34 15 8 8 21 15 29 15 8 0 20 7 27 15 8 9 30 15 60 15 30 0 52
-6 60 -15 7 -8 20 -15 30 -15 10 0 23 -7 30 -15 7 -8 20 -15 30 -15 10 0 23
-7 30 -15 7 -8 20 -15 30 -15 10 0 23 -7 30 -15 7 -8 20 -15 30 -15 10 0 23
-7 30 -15 7 -8 20 -15 30 -15 10 0 23 -7 30 -15 7 -8 20 -15 30 -15 10 0 23
-7 30 -15 7 -8 23 -15 35 -15 13 0 25 -7 29 -15 3 -8 15 -15 26 -15 12 0 28
-7 36 -15 19 -19 38 -19 56 -1 8 8 23 15 34 18 16 3 19 13 22 71 3 61 0 70
-20 87 -13 11 -30 19 -39 20 -31 0 -45 40 -38 105 10 91 10 225 0 225 -15 0
-20 -39 -22 -183 l-3 -138 37 -26 c20 -14 37 -30 37 -35 0 -15 -87 -9 -94 7
-3 8 -16 15 -29 15 -14 0 -30 7 -37 15 -7 8 -22 15 -34 15 -11 0 -30 7 -40 15
-11 8 -27 15 -37 15 -9 0 -22 7 -29 15 -7 8 -23 15 -35 15 -12 0 -28 7 -35 15
-7 8 -23 15 -35 15 -12 0 -28 7 -35 15 -7 8 -23 15 -35 15 -12 0 -28 7 -35 15
-7 8 -23 15 -35 15 -12 0 -28 7 -35 15 -16 19 -54 19 -70 0 -7 -8 -20 -15 -30
-15 -10 0 -23 -7 -30 -15 -7 -8 -20 -15 -30 -15 -10 0 -23 -7 -30 -15 -7 -8
-21 -15 -32 -15 -10 0 -21 -7 -24 -15 -4 -8 -16 -15 -29 -15 -12 0 -28 -7 -35
-15 -7 -8 -20 -15 -30 -15 -10 0 -23 -7 -30 -15 -7 -8 -20 -15 -30 -15 -10 0
-23 -7 -30 -15 -7 -8 -21 -15 -31 -15 -10 0 -21 -5 -24 -10 -11 -18 -43 -11
-50 11 -4 11 -5 21 -3 22 1 1 35 17 73 36 39 18 77 37 85 42 8 5 22 12 30 15
8 3 22 10 30 15 8 5 22 12 30 15 57 23 100 47 100 55 0 5 11 9 24 9 14 0 28 5
31 11 4 5 17 14 30 19 32 12 43 68 37 188 l-5 100 57 27 c30 14 60 24 66 20 6
-3 10 -47 10 -98 0 -63 3 -87 10 -77 5 8 10 51 11 95 1 109 7 123 58 151 24
13 49 28 55 34 5 5 29 10 52 10 34 0 49 6 72 30 17 17 39 30 49 30 29 0 72 34
93 73 22 41 25 114 10 272 -7 78 -6 92 9 103 13 11 19 10 33 -8 16 -19 17 -19
26 -3 10 16 14 15 59 -9 37 -21 50 -34 56 -60 5 -18 13 -48 18 -65 6 -18 8
-77 5 -130 -2 -54 -2 -85 1 -69 2 17 24 52 48 78 24 27 46 61 50 77 6 28 43
63 82 75 55 18 95 91 61 113 -7 4 -18 17 -24 27 -16 29 -28 29 -58 1 -15 -14
-36 -25 -47 -25 -11 0 -22 -7 -25 -15 -9 -21 -35 -18 -67 9 -26 21 -28 25 -16
45 10 14 24 21 46 21 17 0 38 7 47 15 8 8 26 15 39 15 14 0 27 -7 31 -15 9
-25 26 -17 26 14 0 16 6 31 15 35 8 3 15 12 15 21 0 8 5 15 10 15 13 0 13 25
-2 53 -6 12 -14 29 -18 37 -10 21 -86 25 -115 6 -35 -23 -50 -20 -82 16 -48
53 -87 88 -99 88 -6 0 -17 7 -24 15 -7 8 -22 15 -34 15 -12 0 -27 5 -34 12 -7
7 -38 12 -69 12 -35 0 -58 -4 -61 -12 -2 -7 -9 -12 -16 -12 -26 0 -71 -70 -93
-145 -7 -26 -13 -30 -51 -33 -26 -2 -50 3 -64 12 -12 9 -30 16 -40 16 -22 0
-22 -4 -18 276 1 136 -1 224 -7 227 -13 8 -23 -143 -23 -345 0 -151 1 -157 22
-172 12 -9 32 -16 43 -16 28 -1 76 -45 69 -64 -3 -9 -1 -16 5 -16 6 0 11 8 11
18 0 20 73 62 108 62 28 0 75 -44 70 -67 -2 -12 -14 -19 -35 -21 -17 -2 -37
-10 -43 -18 -16 -19 -69 -18 -76 1 -10 24 -25 6 -18 -21 6 -22 3 -24 -29 -24
-22 0 -37 6 -41 15 -3 10 -19 15 -46 15 l-40 0 0 -45 c0 -32 4 -45 14 -45 8 0
16 -7 20 -15 3 -9 19 -15 41 -15 41 0 70 -23 80 -62 6 -22 2 -30 -21 -45 -36
-23 -131 -23 -165 0 -13 10 -38 17 -57 17 -32 0 -92 34 -92 52 0 5 13 21 29
36 l29 27 5 275 c4 265 -1 370 -16 310 -3 -14 -8 -64 -9 -112 -2 -47 -6 -90
-10 -93 -4 -4 -23 0 -43 9 l-35 17 0 394 c0 217 3 396 8 398 4 3 28 8 55 11
l47 7 0 -230 c0 -128 4 -232 9 -235 17 -11 22 133 19 489 -3 342 -3 350 -23
350 -17 0 -19 -6 -17 -35 11 -114 12 -281 2 -300 -9 -17 -20 -20 -84 -20 -53
0 -77 4 -86 15 -7 8 -24 15 -39 15 -14 1 -37 7 -51 15 -14 8 -39 14 -56 15
-17 0 -37 7 -44 15 -7 8 -22 15 -34 15 -11 0 -34 7 -50 15 -15 8 -38 15 -50
15 -12 0 -31 7 -42 15 -10 8 -31 15 -47 15 -39 0 -50 35 -45 152 4 114 14 131
57 105 16 -9 41 -17 55 -17 15 0 43 -7 63 -15 19 -8 55 -15 78 -15 26 0 48 -6
55 -15 7 -8 29 -15 50 -15 21 0 54 -7 73 -15 20 -8 55 -15 77 -15 23 0 51 -5
63 -11 22 -12 22 -12 3 9 -12 14 -36 24 -67 28 -46 6 -49 8 -49 35 0 22 5 29
20 29 11 0 20 4 20 9 0 12 -25 21 -58 21 -15 0 -36 7 -46 15 -22 17 -106 21
-106 5 0 -5 18 -13 40 -16 36 -6 40 -10 40 -35 0 -35 -19 -37 -84 -9 -50 21
-58 41 -25 64 27 19 16 36 -22 36 -17 0 -44 7 -61 16 -39 20 -78 11 -78 -19 0
-37 -14 -51 -38 -38 -35 19 -83 14 -89 -9 -12 -45 -23 -2 -23 89 0 93 1 98 24
109 30 13 144 4 171 -14 11 -8 37 -14 58 -14 21 0 45 -7 53 -15 9 -8 33 -15
55 -15 23 0 47 -7 55 -15 9 -8 33 -15 55 -15 23 0 47 -7 55 -15 9 -9 34 -15
58 -15 27 0 48 -6 56 -15 8 -9 29 -15 55 -15 24 0 45 -5 47 -12 2 -6 24 -14
49 -17 l44 -6 5 -365 c3 -201 8 -349 12 -330 4 19 10 181 13 360 l6 325 -30
23 c-17 12 -45 22 -63 22 -18 0 -42 7 -52 15 -11 8 -36 15 -55 15 -20 0 -45 7
-55 15 -11 8 -34 15 -52 15 -17 0 -45 7 -60 15 -16 8 -41 15 -55 15 -15 0 -40
7 -55 15 -16 8 -41 15 -55 15 -15 0 -40 7 -55 15 -16 8 -41 15 -55 15 -14 0
-39 7 -56 15 -19 9 -54 14 -96 13 -58 -2 -70 -6 -82 -25z m215 -183 c0 -19 -5
-30 -14 -30 -20 0 -26 12 -19 38 8 33 33 27 33 -8z m60 -25 c0 -26 -14 -33
-25 -15 -9 14 1 40 15 40 5 0 10 -11 10 -25z m210 -50 c0 -8 -7 -15 -15 -15
-8 0 -15 7 -15 15 0 8 7 15 15 15 8 0 15 -7 15 -15z m-246 -307 c3 -13 6 -197
6 -409 0 -418 2 -405 -55 -411 l-30 -3 -3 423 -2 422 39 0 c32 0 40 -4 45 -22z
m96 -17 c0 -5 14 -14 30 -20 l30 -10 -2 -383 -3 -383 -31 -3 c-65 -6 -64 -12
-64 407 0 280 3 380 12 389 14 14 28 16 28 3z m193 -76 c16 -22 17 -54 15
-402 l-3 -378 -22 -3 c-13 -2 -36 6 -53 18 l-30 21 0 378 c0 208 3 381 7 384
16 17 69 6 86 -18z m737 -830 c7 -8 23 -15 35 -15 13 0 25 -7 29 -15 3 -8 12
-15 20 -15 22 0 76 -68 76 -95 0 -22 -5 -25 -34 -25 -19 0 -41 -7 -50 -15 -8
-8 -28 -15 -43 -15 -16 0 -38 -7 -49 -15 -30 -23 -60 -18 -87 15 -14 17 -33
30 -41 30 -9 0 -16 4 -16 9 0 5 -11 12 -25 15 -21 5 -25 12 -25 41 0 19 5 35
10 35 6 0 14 8 17 18 16 43 46 60 109 61 44 1 65 -3 74 -14z m371 -157 c10
-13 18 -30 19 -38 0 -19 -60 -60 -88 -60 -13 0 -25 -7 -28 -15 -4 -9 -19 -15
-39 -15 -19 0 -40 -7 -49 -15 -8 -8 -23 -15 -34 -15 -11 0 -35 -6 -54 -14 -22
-10 -55 -13 -90 -10 -58 4 -69 -1 -93 -50 -11 -22 -98 -69 -152 -80 -28 -7
-33 -5 -33 12 0 10 -9 27 -21 38 -39 35 -42 53 -17 79 15 16 34 25 56 25 20 0
35 6 38 15 4 9 20 15 43 15 20 0 45 7 55 15 11 8 32 15 47 15 14 0 32 7 39 15
7 8 27 15 45 15 18 0 38 7 45 15 7 8 27 15 46 15 18 0 39 7 48 15 8 8 28 15
43 15 16 0 38 7 49 15 31 23 102 19 125 -7z m-733 -190 c3 -22 -1 -28 -15 -28
-24 0 -43 19 -43 43 0 14 6 18 28 15 21 -2 28 -9 30 -30z m750 -56 c4 -24 -22
-62 -41 -62 -6 0 -18 -7 -28 -16 -23 -21 -65 -11 -74 16 -10 32 4 60 29 60 13
0 29 7 36 16 8 9 25 14 44 12 24 -2 32 -8 34 -26z m-1066 -469 c19 -17 24 -58
9 -67 -12 -8 -54 61 -46 74 9 14 15 13 37 -7z m-107 -20 c4 -16 10 -36 16 -45
13 -25 11 -38 -5 -38 -7 0 -19 -7 -26 -15 -7 -8 -20 -15 -30 -15 -10 0 -23 -7
-30 -15 -7 -8 -21 -15 -32 -15 -10 0 -21 -7 -24 -15 -4 -8 -15 -15 -27 -15
-11 0 -28 -6 -36 -14 -9 -8 -29 -18 -44 -21 l-28 -7 3 63 3 64 115 57 c63 31
121 57 127 57 7 1 15 -11 18 -26z m89 -128 c11 -8 32 -15 46 -15 43 0 50 -17
50 -112 0 -87 0 -88 -24 -88 -14 0 -28 5 -31 10 -3 6 -15 10 -26 10 -11 0 -27
7 -35 15 -9 8 -24 15 -33 15 -10 0 -24 7 -31 15 -7 8 -20 15 -29 15 -9 0 -25
7 -35 15 -11 8 -26 15 -34 15 -17 0 -41 28 -42 48 0 6 9 12 19 12 11 0 26 7
35 15 8 8 21 15 29 15 8 0 20 7 27 15 16 19 89 19 114 0z m-201 -121 c4 -8 19
-14 31 -14 13 0 26 -7 30 -15 3 -8 16 -15 29 -15 14 0 30 -7 37 -15 7 -8 20
-15 30 -15 10 0 23 -7 30 -15 7 -8 23 -15 36 -15 13 0 24 -5 24 -10 0 -6 11
-16 25 -22 l25 -11 -26 -24 c-14 -12 -32 -23 -41 -23 -9 0 -24 -7 -33 -15 -14
-13 -19 -13 -44 0 -16 8 -36 15 -46 15 -10 0 -23 7 -30 15 -7 8 -20 15 -30 15
-10 0 -23 7 -30 15 -7 8 -20 15 -30 15 -10 0 -23 7 -30 15 -7 8 -23 15 -35 15
-12 0 -28 7 -35 15 -7 8 -21 15 -31 15 -10 0 -24 10 -30 22 -10 19 -8 24 17
42 15 12 37 24 48 27 30 10 100 -2 109 -17z m-733 -44 c0 -26 -3 -30 -29 -30
-16 0 -34 -7 -41 -15 -7 -8 -23 -15 -35 -15 -12 0 -28 -7 -35 -15 -7 -8 -23
-15 -37 -15 -13 0 -26 -7 -29 -15 -4 -8 -16 -15 -29 -15 -12 0 -28 -7 -35 -15
-7 -8 -20 -15 -29 -15 -10 0 -26 -7 -37 -15 -10 -8 -27 -15 -36 -15 -9 0 -24
-7 -33 -16 -21 -21 -40 -5 -30 25 4 13 15 21 29 21 13 0 29 7 36 15 7 8 20 15
30 15 10 0 23 7 30 15 7 8 20 15 29 15 10 0 26 7 37 15 10 8 26 15 35 15 9 0
22 7 29 15 7 8 21 15 31 15 9 0 24 6 31 13 7 8 26 17 41 21 15 3 27 11 27 16
0 6 11 10 25 10 21 0 25 -5 25 -30z m-80 -315 c0 -125 -1 -135 -19 -135 -10 0
-24 7 -31 15 -7 8 -20 15 -30 15 -10 0 -23 7 -30 15 -7 8 -20 15 -30 15 -10 0
-23 7 -30 15 -7 8 -19 15 -27 15 -8 0 -21 7 -29 15 -9 8 -24 15 -35 15 -22 0
-23 1 -7 35 7 16 19 25 33 25 13 0 28 7 35 15 7 8 20 15 29 15 9 0 25 6 36 14
11 7 32 16 48 20 15 3 27 11 27 16 0 6 14 10 30 10 l30 0 0 -135z m1210 90 c7
-8 23 -15 35 -15 12 0 28 -7 35 -15 7 -8 23 -15 35 -15 12 0 28 -7 35 -15 7
-8 23 -15 35 -15 12 0 28 -7 35 -15 7 -8 21 -15 32 -15 11 0 26 -7 34 -15 9
-8 26 -15 39 -15 12 0 25 -7 29 -15 3 -9 18 -15 35 -15 16 0 31 -6 35 -15 3
-8 15 -15 27 -15 11 0 32 -9 46 -20 28 -22 58 -26 68 -10 12 19 35 10 41 -16
8 -31 -19 -65 -37 -47 -6 6 -29 8 -53 6 -31 -4 -47 -1 -58 11 -9 9 -25 16 -36
16 -11 0 -25 7 -32 15 -7 8 -20 15 -30 15 -10 0 -23 7 -30 15 -7 8 -20 15 -30
15 -10 0 -23 7 -30 15 -7 8 -20 15 -30 15 -10 0 -23 7 -30 15 -7 8 -20 15 -30
15 -10 0 -23 7 -30 15 -7 8 -20 15 -30 15 -10 0 -23 7 -30 15 -7 8 -20 15 -29
15 -9 0 -25 7 -35 15 -28 21 -79 18 -128 -7 -24 -12 -45 -25 -48 -28 -3 -4
-17 -10 -32 -14 -16 -3 -28 -11 -28 -16 0 -6 -8 -10 -19 -10 -10 0 -24 -7 -31
-15 -7 -8 -20 -15 -30 -15 -10 0 -23 -7 -30 -15 -7 -8 -20 -15 -30 -15 -10 0
-23 -7 -30 -15 -12 -15 -80 -22 -80 -8 0 14 44 53 61 53 10 0 21 4 24 10 3 5
33 22 65 37 33 15 60 31 60 35 0 4 9 8 19 8 11 0 26 7 35 15 8 8 21 15 30 15
8 0 21 6 28 13 7 8 26 17 41 21 15 3 27 11 27 16 0 16 66 12 80 -5z m-1878
-132 c22 -20 24 -66 3 -83 -25 -20 -55 14 -55 62 0 43 19 51 52 21z m1086
-180 c-2 -23 -8 -29 -35 -31 -24 -2 -33 1 -33 12 0 32 13 46 42 46 26 0 29 -3
26 -27z m68 -34 l28 -10 -29 -24 c-17 -13 -37 -25 -45 -25 -8 0 -24 -7 -34
-15 -29 -22 -46 -18 -46 10 0 17 8 29 23 36 12 5 33 16 47 24 30 18 23 17 56
4z m358 -405 c13 -34 5 -61 -23 -82 -16 -11 -31 -18 -35 -15 -12 13 -6 65 12
88 20 28 37 32 46 9z"/>
<path d="M5195 6305 c-27 -7 -65 -14 -84 -14 -45 -1 -99 -36 -108 -69 -3 -15
-15 -44 -26 -65 -35 -67 -6 -232 49 -278 8 -6 14 -17 14 -24 0 -20 -35 -45
-64 -45 -15 0 -37 -5 -49 -12 -12 -6 -40 -15 -62 -19 -22 -4 -53 -12 -70 -17
-16 -6 -62 -20 -102 -32 -40 -12 -84 -33 -98 -46 -24 -22 -26 -30 -20 -67 4
-23 13 -52 21 -64 8 -12 14 -31 14 -41 0 -10 6 -24 12 -30 10 -10 10 -17 0
-32 -17 -29 -16 -30 28 -30 46 0 54 -17 13 -26 -47 -10 -54 -14 -48 -24 3 -5
16 -10 29 -10 18 0 27 -10 40 -42 10 -24 24 -56 32 -71 8 -16 14 -35 14 -42 0
-14 20 -66 46 -118 8 -16 14 -53 14 -82 0 -29 3 -60 6 -69 9 -23 24 -9 24 23
0 15 5 32 11 38 7 7 7 17 1 29 -29 53 -42 111 -42 184 0 43 4 81 9 84 5 3 19
25 31 48 12 24 26 45 30 48 23 15 104 122 126 165 28 55 36 70 77 132 23 36
26 49 20 88 -4 35 -2 50 11 64 16 18 16 19 -10 25 -50 13 -80 70 -50 95 16 13
56 6 56 -10 0 -16 48 -10 54 7 3 9 6 30 6 49 0 18 7 38 15 45 8 7 15 29 15 50
0 32 5 39 35 56 29 16 39 16 68 6 18 -7 48 -12 65 -12 25 0 35 -6 42 -25 5
-14 14 -25 20 -25 15 0 12 36 -5 50 -10 9 -14 30 -13 71 2 81 -15 99 -91 98
-31 -1 -78 -7 -106 -14z"/>
<path d="M2593 6293 l-23 -15 0 -739 c0 -692 -1 -739 -17 -748 -16 -9 -17 -13
-4 -43 15 -37 32 -148 25 -160 -3 -5 -24 -8 -48 -8 -35 0 -45 4 -54 23 -8 16
-11 17 -11 6 -1 -9 -7 -22 -15 -29 -12 -9 -17 -8 -27 8 -13 20 -13 20 -36 -1
-12 -12 -23 -34 -23 -49 0 -15 -6 -30 -12 -35 -46 -29 -258 -78 -300 -69 -16
3 -43 9 -60 12 -31 5 -32 4 -14 -10 19 -16 14 -36 -9 -36 -8 0 -42 -14 -76
-32 l-61 -32 -19 22 c-10 13 -21 43 -25 67 -12 83 -24 34 -24 -100 0 -79 -4
-136 -10 -140 -6 -4 -7 -13 -1 -23 4 -9 11 -48 13 -87 8 -102 20 -122 89 -143
77 -24 112 -54 107 -93 -4 -22 0 -30 16 -35 12 -4 25 -12 31 -19 15 -19 65
-41 120 -55 139 -34 176 -42 242 -53 57 -10 75 -17 92 -39 26 -33 30 -122 5
-136 -13 -7 -15 -43 -14 -276 l1 -267 -33 -29 c-36 -33 -59 -38 -77 -16 -9 10
-13 113 -14 368 -1 225 -6 354 -12 355 -6 2 -11 -118 -12 -343 -2 -239 -6
-350 -13 -360 -15 -17 -5 -34 19 -34 10 0 24 -7 31 -15 7 -8 20 -15 30 -15 10
0 23 -7 30 -15 7 -8 20 -15 30 -15 10 0 23 -7 30 -15 7 -8 20 -15 30 -15 10 0
23 -7 30 -15 7 -8 21 -15 31 -15 11 0 19 -4 19 -10 0 -5 12 -13 27 -16 15 -4
34 -13 41 -21 7 -7 22 -13 33 -13 10 0 19 -4 19 -10 0 -5 12 -13 27 -16 15 -4
34 -13 41 -21 7 -7 22 -13 32 -13 10 0 20 -7 24 -15 3 -8 17 -15 31 -15 14 0
25 -6 25 -13 0 -8 11 -19 25 -25 22 -10 25 -9 31 13 5 19 13 25 35 25 24 0 29
-4 29 -26 0 -39 -18 -64 -45 -64 -14 0 -25 5 -25 10 0 19 -18 10 -24 -12 -4
-18 -8 -20 -18 -10 -6 6 -22 12 -34 12 -12 0 -24 7 -28 15 -3 8 -14 15 -25 15
-11 0 -23 5 -26 11 -4 5 -17 14 -28 20 -12 5 -29 13 -37 18 -8 5 -22 12 -30
15 -8 4 -28 15 -45 26 -16 11 -37 23 -45 26 -8 3 -19 8 -25 10 -5 2 -23 13
-40 24 -16 11 -36 22 -42 25 -7 3 -19 7 -25 10 -7 3 -26 14 -43 25 -16 11 -37
22 -45 26 -8 3 -22 10 -30 15 -8 5 -25 13 -37 18 -11 6 -24 15 -28 20 -3 6
-14 11 -24 11 -10 0 -24 7 -31 15 -7 8 -21 15 -32 15 -10 0 -21 7 -24 15 -4 8
-14 15 -24 15 -11 0 -22 4 -25 10 -3 5 -30 21 -58 36 -29 14 -65 34 -82 44
-16 11 -36 22 -42 25 -7 3 -19 7 -25 10 -7 3 -26 14 -43 25 -16 11 -37 22 -45
26 -8 3 -22 10 -30 15 -8 5 -38 20 -66 34 -65 32 -76 45 -72 86 2 27 10 37 40
53 40 21 39 21 121 -20 16 -8 35 -14 42 -14 7 0 15 -7 19 -15 3 -8 14 -15 24
-15 11 0 25 -7 32 -15 7 -8 20 -15 30 -15 10 0 23 -7 30 -15 7 -8 18 -15 25
-15 7 0 18 -7 25 -15 7 -8 23 -15 35 -15 13 0 25 -7 29 -15 3 -8 18 -15 33
-15 l28 0 -3 172 c-4 173 -11 209 -36 176 -7 -10 -22 -18 -33 -18 -11 0 -26
-7 -33 -15 -7 -8 -20 -15 -29 -15 -10 0 -26 -7 -37 -15 -10 -8 -26 -15 -35
-15 -9 0 -22 -7 -29 -15 -7 -8 -23 -15 -37 -15 -13 0 -26 -7 -29 -15 -5 -11
-21 -15 -60 -15 -30 0 -54 4 -54 8 0 14 58 52 78 52 11 0 25 7 32 15 7 8 21
15 31 15 9 0 24 7 33 15 8 8 23 15 34 15 11 0 25 7 32 15 7 8 23 15 35 15 12
0 28 7 35 15 7 8 23 15 36 15 13 0 27 6 31 14 4 8 19 16 32 18 14 1 26 9 29
16 5 17 -43 15 -58 -3 -7 -8 -20 -15 -30 -15 -10 0 -23 -7 -30 -15 -7 -8 -23
-15 -35 -15 -12 0 -28 -7 -35 -15 -7 -8 -19 -15 -27 -15 -8 0 -27 -6 -41 -13
-73 -37 -100 -48 -126 -50 -36 -3 -46 20 -12 29 14 3 30 12 37 20 6 8 22 14
36 14 13 0 26 7 29 15 4 8 16 15 29 15 12 0 28 7 35 15 7 8 21 15 31 15 9 0
24 7 33 15 8 8 23 15 34 15 11 0 25 7 32 15 7 8 20 15 30 15 10 0 23 7 30 15
15 19 70 20 70 2 0 -7 -5 -18 -12 -25 -8 -8 -8 -15 0 -25 8 -9 13 -93 14 -258
2 -156 7 -243 13 -241 6 1 10 108 10 295 l0 292 -45 5 c-25 3 -55 11 -67 18
-12 7 -37 12 -57 12 -51 0 -96 29 -96 62 0 24 -4 27 -42 30 -39 3 -43 6 -46
31 -3 27 -1 28 30 25 24 -2 33 1 33 12 0 19 -61 26 -81 9 -16 -13 -18 -52 -4
-78 5 -10 23 -21 40 -24 35 -7 39 -22 10 -37 -36 -19 -21 -30 44 -30 36 0 67
-4 71 -9 3 -6 26 -13 50 -17 25 -3 45 -11 45 -16 0 -16 -43 -47 -66 -48 -12 0
-27 -7 -34 -15 -7 -8 -20 -15 -29 -15 -10 0 -26 -7 -37 -15 -10 -8 -26 -15
-35 -15 -9 0 -22 -7 -29 -15 -7 -8 -23 -15 -37 -15 -13 0 -26 -7 -29 -15 -7
-18 -60 -20 -65 -2 -2 6 -4 53 -4 102 0 87 1 90 23 93 13 2 32 -4 41 -12 10
-9 25 -14 35 -10 26 10 19 24 -13 24 -16 0 -31 6 -35 15 -3 8 -11 15 -18 15
-19 1 -58 36 -58 52 0 8 -7 23 -15 34 -8 10 -15 36 -15 56 0 20 -6 43 -13 50
-8 7 -17 38 -20 67 -4 30 -11 59 -17 65 -5 5 -10 19 -10 31 0 11 -6 30 -14 41
-8 11 -16 30 -18 43 -1 14 -9 27 -17 29 -11 4 -13 -3 -8 -34 4 -22 4 -201 0
-400 l-6 -361 -36 -18 c-20 -9 -43 -21 -51 -26 -8 -5 -32 -16 -52 -25 -34 -14
-58 -47 -45 -61 3 -3 20 -2 37 2 23 5 35 15 42 36 7 21 17 29 33 29 12 0 28 6
34 14 17 20 58 25 78 10 17 -11 16 -13 -9 -23 -16 -6 -28 -15 -28 -21 0 -5 -8
-10 -17 -10 -25 0 -92 -33 -93 -46 0 -6 7 -17 16 -25 13 -10 17 -10 25 2 5 8
9 20 9 27 0 6 11 12 25 12 13 0 28 7 33 16 14 25 32 7 32 -30 0 -52 -75 -97
-108 -64 -9 9 -12 8 -12 -5 0 -25 -25 -31 -52 -13 -28 20 -38 20 -38 1 0 -9
11 -20 24 -25 13 -5 27 -14 31 -19 9 -16 51 -13 65 4 7 8 18 15 25 15 7 0 18
7 25 15 7 8 27 15 45 15 18 0 38 -7 45 -15 7 -8 21 -15 31 -15 11 0 19 -4 19
-10 0 -5 11 -12 25 -16 13 -3 29 -12 36 -20 6 -8 20 -14 30 -14 11 0 19 -4 19
-9 0 -5 12 -14 28 -20 15 -6 34 -15 42 -20 8 -5 22 -12 30 -15 8 -4 29 -15 45
-26 17 -11 37 -22 45 -26 8 -3 22 -10 30 -15 8 -5 25 -13 37 -18 11 -6 24 -15
28 -20 3 -6 14 -11 25 -11 10 0 20 -7 24 -15 3 -8 14 -15 24 -15 11 0 25 -7
32 -15 7 -8 20 -15 30 -15 10 0 20 -7 24 -15 3 -8 14 -15 25 -15 11 0 23 -4
26 -10 3 -5 31 -22 60 -36 30 -14 57 -29 60 -35 4 -5 15 -9 26 -9 10 0 19 -4
19 -9 0 -5 12 -14 28 -20 15 -6 34 -15 42 -20 8 -5 22 -12 30 -15 8 -4 29 -15
45 -26 17 -11 37 -22 45 -26 8 -3 22 -10 30 -15 8 -5 38 -20 65 -34 28 -15 64
-35 80 -45 48 -31 57 -34 74 -22 9 7 25 16 36 21 44 19 56 45 53 112 l-3 62
-45 24 c-25 13 -49 28 -54 33 -6 6 -18 10 -27 10 -9 0 -22 7 -29 15 -7 8 -20
15 -30 15 -10 0 -23 7 -30 15 -7 8 -20 15 -30 15 -10 0 -23 7 -30 15 -7 8 -20
15 -30 15 -10 0 -23 7 -30 15 -7 8 -19 15 -27 15 -8 0 -21 7 -29 15 -9 8 -24
15 -35 15 -23 0 -24 9 -3 38 21 30 44 28 89 -8 31 -25 47 -30 89 -30 29 0 59
7 70 15 11 8 32 15 47 15 53 0 91 13 98 33 5 14 10 17 15 9 9 -15 73 -16 82 0
4 6 10 25 13 42 5 23 13 32 31 34 14 2 30 12 38 23 27 39 162 89 162 60 0 -4
-14 -25 -30 -46 -32 -40 -38 -65 -17 -65 22 0 81 91 79 121 -2 28 20 59 42 59
8 0 19 7 26 15 16 19 74 19 90 0 7 -8 21 -15 32 -15 11 0 26 -7 34 -15 9 -8
24 -15 33 -15 10 0 24 -7 31 -15 7 -8 18 -15 25 -15 12 0 52 -18 95 -42 8 -4
22 -11 30 -14 8 -3 42 -20 74 -36 57 -30 61 -30 90 -15 17 8 39 18 49 21 15 5
17 16 15 72 -3 66 -3 66 -42 88 -50 27 -75 55 -76 84 0 30 -16 28 -24 -4 -9
-36 2 -64 25 -64 16 0 20 -6 17 -27 -2 -23 -8 -29 -36 -31 -22 -2 -34 2 -38
12 -3 9 -16 16 -29 16 -12 0 -28 7 -35 15 -7 8 -23 15 -35 15 -12 0 -28 7 -35
15 -7 8 -21 15 -32 15 -10 0 -32 10 -48 22 -24 17 -27 24 -18 35 14 18 74 9
100 -14 9 -8 27 -13 40 -11 22 3 23 8 28 93 3 50 11 100 18 112 7 12 12 38 12
57 0 30 -6 40 -45 68 l-45 33 3 70 c2 59 5 70 20 73 37 7 67 -7 67 -32 0 -12
9 -31 21 -42 l21 -19 -8 40 c-4 22 -13 49 -20 60 -8 11 -14 27 -14 36 0 9 -7
22 -15 29 -8 7 -15 27 -15 45 0 18 -7 38 -15 45 -8 7 -15 23 -15 35 0 30 -10
55 -21 55 -14 0 -10 -54 6 -76 8 -10 15 -29 15 -42 0 -13 7 -36 15 -53 18 -33
13 -49 -14 -49 -10 0 -26 -9 -36 -20 -15 -17 -17 -33 -13 -107 6 -104 4 -113
-27 -113 -13 0 -30 -7 -39 -15 -19 -19 -80 -19 -96 0 -8 10 -31 15 -66 15 -36
0 -54 4 -54 13 -1 6 -1 118 0 248 0 130 -2 250 -7 265 -7 29 -7 29 -14 -11 -5
-22 -8 -151 -8 -287 l-1 -248 -25 -6 c-13 -3 -29 -12 -36 -20 -6 -8 -22 -14
-35 -14 l-24 0 0 159 c0 131 -3 160 -15 165 -8 3 -21 -2 -30 -10 -9 -9 -22
-13 -30 -10 -19 7 -19 53 0 72 8 9 15 28 15 42 0 28 25 52 65 62 18 5 20 16
23 125 3 146 0 160 -38 173 -36 13 -38 34 -7 72 22 26 24 41 35 251 7 123 13
478 14 788 l1 564 -22 19 c-24 19 -101 26 -101 9 0 -6 20 -13 45 -17 25 -3 45
-10 45 -15 0 -34 -129 -31 -167 4 -29 26 -21 37 28 37 45 0 53 17 12 25 -16 3
-41 11 -58 17 -16 6 -50 13 -75 16 -25 2 -54 11 -65 18 -11 8 -31 14 -45 14
-14 1 -36 7 -50 15 -14 8 -42 14 -63 15 -34 0 -40 -4 -50 -30 -11 -29 -14 -30
-69 -30 l-58 0 0 89 c0 113 3 121 47 121 20 0 32 4 28 10 -9 15 -57 11 -82 -7z
m197 -197 c6 -8 17 -13 25 -10 17 7 30 -15 17 -28 -8 -8 -15 -8 -26 1 -10 8
-16 9 -21 1 -14 -22 -35 -10 -35 20 0 33 19 40 40 16z m178 -36 c23 -11 42
-24 42 -29 0 -16 -36 -41 -46 -31 -5 5 -27 13 -49 18 -34 6 -41 12 -43 35 -3
24 0 27 25 27 16 0 48 -9 71 -20z m-242 -25 c16 -8 41 -15 55 -15 15 0 43 -7
62 -15 20 -8 56 -15 80 -15 27 0 49 -6 57 -15 7 -8 24 -15 39 -15 14 0 42 -5
61 -12 19 -6 67 -14 105 -17 l70 -6 3 -129 c2 -109 0 -132 -14 -147 -21 -23
-78 -25 -114 -4 -14 8 -41 15 -60 15 -19 0 -44 7 -54 15 -11 8 -32 15 -46 15
-14 0 -31 5 -38 12 -12 12 -79 34 -137 45 -16 3 -39 12 -50 19 -11 8 -31 14
-45 14 -14 1 -35 9 -47 19 -21 18 -23 27 -23 128 0 61 3 113 7 116 11 12 60 8
89 -8z m-66 -273 c19 -10 42 -22 50 -27 8 -6 32 -10 53 -11 22 0 42 -6 48 -15
5 -8 9 -186 9 -401 0 -379 -1 -389 -21 -409 -13 -13 -30 -19 -47 -17 l-27 3
-5 277 c-3 152 -8 280 -12 284 -5 4 -9 -31 -9 -77 -1 -77 -11 -345 -25 -657
-5 -131 -12 -145 -53 -122 -21 11 -21 14 -21 600 0 475 3 590 13 590 7 0 28
-8 47 -18z m285 -94 l25 -22 0 -378 c0 -421 2 -407 -66 -375 l-34 17 0 390 0
390 25 0 c14 0 36 -10 50 -22z m160 -49 c6 -6 10 -151 10 -394 0 -243 -4 -387
-10 -393 -6 -6 -26 -2 -52 10 l-43 19 0 374 c0 205 3 381 6 390 5 13 14 15 43
10 20 -4 41 -11 46 -16z m158 -11 c2 -7 2 -194 -1 -415 -3 -295 -8 -403 -17
-406 -21 -9 -66 5 -75 24 -6 11 -9 164 -8 400 l3 381 35 13 c47 17 57 17 63 3z
m-296 -1176 c16 -10 50 -30 77 -43 26 -13 65 -41 86 -62 35 -35 39 -43 47
-120 l9 -82 8 78 c8 76 8 77 36 77 34 0 40 -23 40 -145 0 -88 -10 -108 -46
-99 -15 4 -24 -3 -37 -31 -9 -20 -17 -50 -17 -68 0 -18 -7 -41 -15 -51 -14
-18 -22 -106 -10 -106 2 0 19 9 37 19 17 11 35 18 40 15 11 -7 10 -261 -1
-269 -5 -3 -12 -1 -16 5 -3 5 -16 10 -28 10 -28 1 -62 29 -72 59 -12 39 -19
14 -25 -95 l-5 -106 -65 -35 c-43 -22 -72 -32 -87 -28 -18 4 -32 -3 -58 -30
-20 -19 -42 -35 -50 -35 -9 0 -24 -5 -35 -12 -10 -7 -23 -9 -27 -4 -9 9 -8
250 1 265 8 13 76 -8 104 -33 12 -10 22 -28 22 -38 0 -10 5 -18 10 -18 15 0
12 83 -4 105 -7 11 -16 42 -19 69 -3 28 -11 55 -18 60 -10 8 -13 32 -11 90 4
86 -12 127 -23 60 -7 -43 -31 -122 -50 -169 -28 -65 -38 -136 -43 -278 -4
-148 -4 -148 -30 -158 -36 -14 -68 -51 -82 -96 -18 -54 -26 -60 -49 -32 -15
18 -20 39 -21 82 0 55 -11 74 -24 41 -3 -9 -6 -38 -6 -65 0 -36 -4 -49 -14
-49 -8 0 -17 8 -20 18 -7 26 -1 336 8 350 13 22 23 12 30 -28 3 -22 11 -40 16
-40 15 0 12 71 -5 104 -8 15 -15 39 -15 53 0 14 -6 37 -14 51 -36 70 -47 136
-45 257 1 66 -1 145 -5 175 -5 38 -3 75 8 118 20 85 38 112 79 113 17 1 43 4
57 8 24 7 24 7 -7 14 -39 8 -43 28 -8 47 22 12 33 10 92 -14 102 -41 133 -58
144 -78 6 -10 14 -16 20 -13 15 10 11 19 -21 52 -25 25 -29 36 -24 62 4 17 10
31 14 31 5 0 18 15 30 34 11 19 29 36 38 38 24 6 67 -7 99 -30z m-1312 -522
c8 -9 15 -27 15 -41 1 -31 31 -117 53 -150 14 -21 17 -47 16 -135 -1 -183 -4
-197 -47 -216 -35 -15 -38 -15 -60 5 -22 21 -22 21 -22 325 1 306 7 385 22
283 5 -30 15 -62 23 -71z m1178 -267 c2 -5 7 -25 11 -45 7 -37 6 -38 -22 -38
-38 0 -58 37 -36 69 15 21 39 28 47 14z m935 -85 c-2 -26 -10 -37 -37 -50 -19
-9 -39 -22 -44 -27 -19 -19 -61 -12 -76 10 -19 31 3 69 39 69 15 0 33 7 40 15
7 8 28 15 47 15 33 0 34 -2 31 -32z m-618 -13 c7 -8 23 -15 36 -15 41 0 30
-36 -18 -60 -23 -11 -45 -20 -50 -20 -10 0 -11 94 -1 103 10 11 19 8 33 -8z
m595 -142 c-4 -38 -11 -72 -15 -77 -5 -4 -19 -1 -31 8 -13 9 -31 16 -41 16
-22 0 -41 35 -33 61 4 11 20 25 36 31 16 5 29 14 29 19 0 5 14 9 31 9 l31 0
-7 -67z m-1627 5 c18 -18 16 -242 -2 -257 -10 -9 -16 -8 -26 4 -7 8 -20 15
-30 15 -10 0 -20 7 -24 15 -3 8 -14 15 -24 15 -11 0 -25 7 -32 15 -7 8 -20 15
-30 15 -10 0 -23 7 -30 15 -7 8 -21 15 -31 15 -12 0 -23 11 -29 26 -13 34 -13
34 14 34 14 0 31 7 40 15 8 8 23 15 34 15 11 0 25 7 32 15 7 8 19 15 26 15 8
0 31 9 51 20 44 23 45 24 61 8z m1482 -146 c13 -3 31 -11 38 -19 7 -7 24 -13
37 -13 12 0 25 -7 29 -15 3 -8 16 -15 29 -15 14 0 30 -7 37 -15 7 -8 22 -15
33 -15 28 0 57 -28 57 -56 0 -31 -17 -40 -39 -20 -10 9 -25 16 -33 16 -9 0
-21 7 -28 15 -7 8 -23 15 -35 15 -12 0 -28 7 -35 15 -7 8 -23 15 -35 15 -13 0
-25 7 -29 15 -3 8 -16 15 -30 15 -13 0 -26 7 -30 15 -3 8 -17 15 -31 15 -14 0
-25 5 -25 11 0 18 33 39 50 32 8 -3 26 -8 40 -11z m378 -131 c3 -34 -1 -46
-20 -61 -36 -31 -62 -22 -66 22 -4 46 11 75 40 81 38 7 43 2 46 -42z m-1428
-56 c10 -12 8 -18 -11 -35 -34 -28 -59 -26 -59 5 0 38 46 58 70 30z m148 -65
c-2 -8 -11 -16 -20 -18 -23 -4 -37 46 -17 59 16 10 41 -17 37 -41z m-95 6 c9
-23 -38 -59 -80 -60 -52 -1 -49 20 7 50 51 28 66 30 73 10z m450 -11 c-3 -13
-53 -20 -53 -7 0 15 13 23 35 20 11 -2 19 -7 18 -13z m-553 -90 c7 -8 21 -15
31 -15 10 0 21 -5 24 -11 4 -5 17 -14 28 -20 22 -9 33 -15 72 -37 11 -7 25
-14 30 -16 6 -2 17 -7 25 -10 8 -3 23 -10 33 -16 9 -5 25 -15 35 -20 9 -6 23
-12 30 -15 6 -3 18 -7 25 -10 6 -3 20 -9 30 -15 9 -5 25 -15 35 -20 9 -6 28
-15 41 -20 l24 -11 -23 -24 c-26 -28 -65 -33 -74 -10 -3 8 -14 15 -24 15 -11
0 -25 7 -32 15 -7 8 -20 15 -30 15 -10 0 -23 7 -30 15 -7 8 -20 15 -30 15 -10
0 -23 7 -30 15 -7 8 -20 15 -30 15 -10 0 -23 7 -30 15 -7 8 -20 15 -30 15 -10
0 -23 7 -30 15 -7 8 -20 15 -30 15 -10 0 -23 7 -30 15 -7 8 -20 15 -30 15 -10
0 -20 7 -24 15 -3 8 -17 15 -31 15 -16 0 -25 6 -25 15 0 8 6 15 14 15 7 0 19
7 26 15 7 8 20 15 30 15 10 0 23 -7 30 -15z"/>
<path d="M2845 4220 c-4 -6 -2 -17 4 -23 15 -15 25 -2 13 19 -7 12 -11 13 -17
4z"/>
<path d="M2876 4160 c-3 -8 -2 -28 2 -45 l9 -30 7 28 c8 31 -8 73 -18 47z"/>
<path d="M2876 4006 c-4 -23 -3 -43 3 -49 14 -14 24 32 13 63 -9 23 -9 22 -16
-14z"/>
<path d="M2846 3924 c-8 -22 4 -40 15 -23 11 18 11 39 0 39 -5 0 -12 -7 -15
-16z"/>
<path d="M3033 3845 c0 -38 2 -53 4 -32 2 20 2 52 0 70 -2 17 -4 1 -4 -38z"/>
<path d="M2673 3840 c0 -25 2 -35 4 -22 2 12 2 32 0 45 -2 12 -4 2 -4 -23z"/>
<path d="M3116 3754 c-9 -23 -7 -72 3 -78 8 -6 21 39 21 75 0 23 -16 25 -24 3z"/>
<path d="M2643 3650 c0 -30 2 -43 4 -27 2 15 2 39 0 55 -2 15 -4 2 -4 -28z"/>
<path d="M3003 3645 c0 -27 2 -38 4 -22 2 15 2 37 0 50 -2 12 -4 0 -4 -28z"/>
<path d="M2606 3517 c-8 -43 3 -72 15 -40 4 12 4 34 0 50 l-8 28 -7 -38z"/>
<path d="M2973 3500 c0 -25 2 -35 4 -22 2 12 2 32 0 45 -2 12 -4 2 -4 -23z"/>
<path d="M2540 3315 c0 -65 12 -86 24 -40 8 30 -3 105 -15 105 -5 0 -9 -29 -9
-65z"/>
<path d="M2690 6281 c0 -12 26 -21 63 -21 18 0 41 -7 51 -15 11 -8 37 -15 59
-15 21 0 45 -7 53 -15 9 -9 34 -15 58 -15 27 0 48 -6 56 -15 7 -9 29 -15 52
-15 22 0 46 -7 54 -15 16 -16 94 -21 94 -6 0 12 -26 21 -63 21 -18 0 -41 7
-51 15 -11 8 -36 15 -55 15 -20 0 -45 7 -55 15 -11 8 -34 15 -52 15 -17 0 -45
7 -60 15 -16 8 -41 15 -55 15 -15 0 -40 7 -55 15 -32 16 -94 20 -94 6z"/>
<path d="M1805 6270 c-16 -5 -73 -16 -125 -26 -52 -9 -100 -19 -107 -21 -7 -3
-28 -37 -48 -76 -27 -56 -35 -84 -35 -127 0 -67 28 -151 64 -192 14 -17 26
-33 26 -38 0 -8 -79 -40 -100 -40 -14 0 -31 -5 -156 -44 -29 -9 -60 -16 -70
-16 -11 0 -32 -7 -48 -15 -15 -8 -33 -15 -40 -15 -6 -1 -24 -11 -40 -24 -33
-28 -33 -56 4 -146 34 -86 36 -100 11 -107 -11 -3 -21 -9 -21 -14 0 -12 57
-11 65 1 3 6 13 10 22 10 14 0 14 -2 1 -22 -10 -15 -29 -25 -52 -28 -44 -6
-48 -26 -4 -22 35 3 68 -21 68 -51 0 -10 6 -31 14 -45 8 -15 21 -47 31 -72 9
-25 23 -58 31 -73 8 -16 14 -36 14 -45 0 -37 22 -92 36 -92 22 0 27 26 11 57
-21 40 -37 115 -37 174 0 66 36 139 106 215 30 33 66 82 80 109 28 57 38 73
77 128 22 33 27 50 27 103 0 59 2 64 25 70 14 3 25 13 25 20 0 11 -5 12 -17 6
-23 -12 -42 -5 -70 25 -27 28 -30 71 -7 80 9 3 29 -2 46 -11 39 -24 58 -15 58
27 0 22 9 44 25 63 18 21 24 36 20 55 -4 18 0 31 15 44 17 15 30 17 92 11 41
-4 79 -13 88 -21 9 -8 20 -15 23 -15 11 0 8 38 -2 45 -5 3 -7 21 -4 40 8 51
-4 83 -40 105 -35 22 -38 22 -82 10z"/>
<path d="M3240 6131 c0 -13 26 -21 70 -21 24 0 40 -5 44 -15 3 -8 17 -15 31
-15 14 0 25 -6 26 -12 0 -7 1 -292 1 -633 0 -375 3 -600 8 -570 5 28 12 311
16 630 7 542 6 582 -10 598 -10 9 -29 17 -44 17 -15 0 -36 7 -46 15 -21 16
-96 21 -96 6z"/>
<path d="M5425 6080 c-4 -6 -6 -50 -4 -98 2 -48 2 -118 1 -157 -2 -68 -3 -70
-35 -86 -22 -11 -31 -22 -29 -35 2 -11 4 -45 5 -76 2 -67 8 -75 39 -54 12 9
17 16 10 16 -15 0 -32 39 -25 58 9 23 42 13 58 -18 11 -21 23 -30 40 -30 14 0
25 -4 25 -10 0 -5 9 -10 19 -10 11 0 23 5 26 10 3 6 22 10 41 10 35 0 46 13
19 23 -8 4 -36 4 -63 0 -37 -4 -51 -2 -61 11 -7 9 -19 16 -25 16 -6 1 -26 13
-43 29 l-33 27 30 31 31 31 -2 150 c-1 144 -8 188 -24 162z"/>
<path d="M6610 6070 c0 -12 65 -24 87 -16 15 6 15 8 3 16 -20 13 -90 13 -90 0z"/>
<path d="M1944 6003 c5 -75 4 -73 16 -73 16 0 8 122 -7 127 -9 3 -11 -12 -9
-54z"/>
<path d="M1977 5903 c-11 -10 -8 -83 3 -83 6 0 10 20 10 45 0 46 -2 50 -13 38z"/>
<path d="M1943 5711 c-6 -22 -43 -34 -95 -31 -50 3 -58 -2 -13 -9 30 -5 43
-12 53 -33 7 -16 18 -28 25 -28 7 0 22 -3 35 -6 14 -4 22 -2 22 6 0 6 -9 14
-20 17 -11 3 -20 11 -20 18 0 7 9 24 20 38 11 14 20 30 20 36 0 19 -22 12 -27
-8z"/>
<path d="M1710 5593 c0 -5 13 -24 30 -43 16 -18 32 -42 36 -52 3 -12 15 -18
35 -18 34 0 38 17 6 29 -12 5 -41 28 -65 51 -23 23 -42 38 -42 33z"/>
<path d="M1971 5578 c-10 -27 11 -37 36 -17 13 11 17 10 29 -6 8 -10 14 -22
14 -27 0 -4 14 -8 30 -8 17 0 30 5 30 10 0 6 -10 10 -23 10 -30 0 -40 10 -26
26 12 15 5 19 -44 28 -33 6 -38 4 -46 -16z"/>
<path d="M5220 5594 c0 -4 8 -13 18 -21 16 -12 14 -16 -22 -48 -22 -19 -36
-38 -32 -42 4 -5 13 -1 19 7 7 9 31 25 55 37 44 22 44 22 -10 56 -16 10 -28
14 -28 11z"/>
<path d="M5650 5590 c0 -6 8 -14 18 -17 28 -11 79 -68 86 -97 4 -15 11 -24 16
-21 15 10 12 45 -5 51 -8 4 -15 12 -15 19 0 15 -72 75 -89 75 -6 0 -11 -5 -11
-10z"/>
<path d="M2126 5561 c-6 -10 16 -21 43 -21 9 0 31 -13 49 -30 18 -16 37 -30
42 -30 4 0 11 -11 14 -25 7 -28 26 -34 26 -9 0 19 -72 94 -90 94 -6 0 -18 7
-26 15 -17 17 -50 20 -58 6z"/>
<path d="M1894 5547 c-3 -9 -4 -23 -2 -33 3 -14 5 -14 21 3 16 18 16 22 2 33
-12 10 -16 9 -21 -3z"/>
<path d="M2125 5500 c-4 -6 -4 -10 -1 -10 2 0 11 -3 20 -6 9 -3 16 -2 16 4 0
14 -28 23 -35 12z"/>
<path d="M5035 5470 c-9 -15 17 -21 75 -18 32 2 55 8 58 16 5 15 -123 17 -133
2z"/>
<path d="M5412 5450 c21 -28 38 -39 38 -22 0 9 -45 52 -54 52 -4 0 3 -13 16
-30z"/>
<path d="M1710 5440 c-8 -5 -11 -12 -7 -16 4 -4 13 -2 19 4 15 15 7 24 -12 12z"/>
<path d="M1910 5443 c0 -11 50 -57 55 -51 3 3 -5 17 -18 31 -22 27 -37 34 -37
20z"/>
<path d="M5787 5423 c-4 -3 -7 -20 -7 -36 0 -17 -5 -45 -11 -62 -10 -26 -9
-40 6 -78 10 -26 21 -47 25 -47 9 0 7 216 -2 225 -2 3 -8 2 -11 -2z"/>
<path d="M2300 5366 c0 -30 -4 -58 -10 -61 -5 -3 -10 -33 -10 -66 0 -52 2 -60
18 -57 14 3 18 19 24 98 4 52 5 105 3 118 -10 42 -25 22 -25 -32z"/>
<path d="M4533 5413 c-25 -10 -12 -23 22 -23 24 0 35 5 35 15 0 15 -31 19 -57
8z"/>
<path d="M1613 5403 c15 -2 39 -2 55 0 15 2 2 4 -28 4 -30 0 -43 -2 -27 -4z"/>
<path d="M2217 5403 c-7 -11 10 -40 18 -31 4 4 3 14 -3 24 -5 9 -12 12 -15 7z"/>
<path d="M4438 5383 c-33 -9 -18 -24 20 -21 20 2 37 8 37 13 0 11 -31 16 -57
8z"/>
<path d="M5727 5383 c-3 -5 -2 -15 2 -22 7 -10 10 -10 16 -1 4 6 3 16 -3 22
-5 5 -12 6 -15 1z"/>
<path d="M1038 5353 c-33 -9 -18 -24 20 -21 20 2 37 8 37 13 0 11 -31 16 -57
8z"/>
<path d="M2242 5349 c2 -7 10 -15 17 -17 8 -3 12 1 9 9 -2 7 -10 15 -17 17 -8
3 -12 -1 -9 -9z"/>
<path d="M4342 5341 c-27 -23 -27 -33 -3 -55 14 -13 28 -16 50 -11 42 9 39 23
-6 27 -47 4 -55 26 -12 30 39 4 53 28 16 28 -13 0 -34 -8 -45 -19z"/>
<path d="M4525 5351 c-3 -5 0 -13 5 -16 15 -9 60 3 60 15 0 13 -57 13 -65 1z"/>
<path d="M948 5323 c-24 -6 -23 -23 1 -23 26 0 51 10 51 21 0 9 -22 10 -52 2z"/>
<path d="M2002 5319 c2 -7 10 -15 17 -17 8 -3 12 1 9 9 -2 7 -10 15 -17 17 -8
3 -12 -1 -9 -9z"/>
<path d="M4445 5319 c-4 -6 -5 -13 -2 -16 8 -8 67 7 67 18 0 13 -57 11 -65 -2z"/>
<path d="M871 5291 c-9 -6 -11 -18 -6 -40 5 -24 12 -31 31 -31 30 0 32 16 2
23 -21 6 -21 7 -5 25 9 10 17 22 17 25 0 10 -22 8 -39 -2z"/>
<path d="M1035 5291 c-3 -5 0 -13 5 -16 15 -9 60 3 60 15 0 13 -57 13 -65 1z"/>
<path d="M945 5261 c-3 -5 -1 -13 5 -16 14 -9 70 4 70 16 0 12 -67 12 -75 0z"/>
<path d="M5544 5229 c-3 -6 -2 -15 3 -20 13 -13 43 -1 43 17 0 16 -36 19 -46
3z"/>
<path d="M5725 5219 c-6 -19 -13 -21 -59 -16 -48 4 -53 3 -78 -27 -22 -26 -29
-29 -45 -20 -15 9 -23 8 -41 -6 -23 -19 -16 -35 10 -25 25 10 66 -12 71 -37 2
-13 4 -6 3 16 -1 31 4 43 25 58 27 21 63 26 89 14 18 -7 57 49 41 58 -5 4 -13
-3 -16 -15z"/>
<path d="M5090 5210 c0 -12 -7 -32 -16 -45 -19 -29 -11 -60 18 -76 20 -11 20
-9 13 37 -6 43 -5 47 9 35 9 -8 20 -10 24 -6 4 4 1 10 -5 12 -7 3 -13 18 -13
34 0 19 -5 29 -15 29 -8 0 -15 -9 -15 -20z"/>
<path d="M2082 5188 c-7 -7 -12 -22 -12 -35 0 -22 -42 -73 -61 -73 -6 0 -7 -5
-4 -11 5 -7 13 -5 24 5 25 22 38 20 57 -10 13 -19 19 -22 25 -12 15 23 10 46
-11 53 -23 7 -27 37 -7 54 16 12 37 -4 37 -28 0 -13 10 -15 54 -13 48 3 55 1
61 -18 10 -32 26 -10 19 26 -5 28 -7 29 -57 26 -45 -3 -56 0 -80 22 -33 30
-30 29 -45 14z"/>
<path d="M5812 5174 c1 -9 9 -19 16 -22 9 -3 13 2 10 14 -1 9 -9 19 -16 22 -9
3 -13 -2 -10 -14z"/>
<path d="M1615 5147 c-4 -14 -4 -30 -1 -35 3 -5 -1 -15 -9 -22 -16 -13 -21
-50 -7 -50 5 0 22 15 38 33 28 33 29 35 13 60 -24 40 -27 42 -34 14z"/>
<path d="M2330 5147 c0 -8 6 -20 14 -26 8 -7 17 -23 20 -36 4 -14 11 -25 16
-25 15 0 12 26 -4 42 -8 8 -15 23 -17 33 -5 22 -29 33 -29 12z"/>
<path d="M5726 5141 c-4 -6 -3 -18 2 -27 6 -11 11 -13 16 -5 4 6 3 18 -2 27
-6 11 -11 13 -16 5z"/>
<path d="M5170 5115 c12 -13 28 -21 33 -18 6 4 1 11 -11 16 -12 6 -22 14 -22
19 0 4 -5 8 -12 8 -6 0 -1 -11 12 -25z"/>
<path d="M5840 5121 c0 -20 17 -37 27 -28 7 8 -7 47 -18 47 -5 0 -9 -9 -9 -19z"/>
<path d="M5420 5100 c0 -5 11 -10 25 -10 14 0 25 5 25 10 0 6 -11 10 -25 10
-14 0 -25 -4 -25 -10z"/>
<path d="M5224 5078 c-3 -4 34 -8 82 -8 48 0 85 3 81 6 -9 9 -158 11 -163 2z"/>
<path d="M5870 5053 c0 -23 17 -49 26 -41 9 10 -4 58 -16 58 -6 0 -10 -8 -10
-17z"/>
<path d="M1710 5050 c0 -5 10 -10 23 -10 18 0 19 2 7 10 -19 13 -30 13 -30 0z"/>
<path d="M5125 5048 c-4 -9 -2 -25 3 -35 10 -17 11 -17 17 -1 4 9 2 25 -3 35
-10 17 -11 17 -17 1z"/>
<path d="M5730 5046 c0 -20 -39 -46 -69 -46 -13 0 -30 8 -37 17 -17 24 -32 7
-16 -17 10 -17 10 -20 -6 -20 -19 0 -42 -18 -42 -32 0 -4 9 -8 20 -8 11 0 23
-7 26 -15 5 -12 12 -8 35 16 21 22 36 30 56 27 26 -3 28 -7 33 -55 5 -47 4
-52 -12 -47 -16 5 -16 3 -2 -25 25 -50 44 -37 54 34 4 35 8 40 32 40 15 1 30
4 34 8 4 4 2 7 -4 7 -20 0 -62 50 -62 75 0 13 -3 30 -6 39 -8 20 -34 21 -34 2z"/>
<path d="M1958 5034 c19 -13 23 -24 22 -63 -2 -67 -1 -83 8 -78 4 3 6 39 4 81
-4 75 -4 76 -30 76 l-26 0 22 -16z"/>
<path d="M2270 5023 c0 -36 -8 -47 -49 -68 l-35 -18 -28 32 -28 31 0 -35 c0
-26 -6 -39 -26 -52 l-26 -17 43 -12 c43 -13 51 -11 62 19 1 5 23 9 47 10 36 2
47 6 57 27 14 27 17 69 7 94 -10 25 -24 19 -24 -11z"/>
<path d="M2391 5028 c0 -7 4 -22 8 -32 10 -26 25 -3 16 24 -7 22 -25 28 -24 8z"/>
<path d="M1648 5024 c-3 -5 -2 -18 2 -28 5 -16 8 -17 12 -4 7 16 -7 45 -14 32z"/>
<path d="M5013 4970 c0 -36 2 -50 4 -32 2 17 2 47 0 65 -2 17 -4 3 -4 -33z"/>
<path d="M1808 5013 c18 -2 45 -2 60 0 15 2 0 4 -33 4 -33 0 -45 -2 -27 -4z"/>
<path d="M5156 4971 c-4 -6 -4 -21 0 -33 6 -19 7 -19 16 -5 11 20 -5 57 -16
38z"/>
<path d="M5457 4963 c-4 -6 2 -22 13 -36 11 -14 20 -40 21 -59 l1 -33 9 33 c6
18 16 35 24 39 25 9 17 23 -13 23 -20 0 -32 7 -39 22 -6 13 -12 17 -16 11z"/>
<path d="M2410 4920 c-9 -27 -19 -40 -31 -40 -24 0 -33 -16 -13 -24 9 -4 25 5
42 23 27 29 27 29 50 11 12 -10 22 -23 22 -29 0 -6 5 -11 10 -11 6 0 15 -11
20 -25 5 -14 14 -25 20 -25 20 0 9 26 -31 70 -22 25 -44 55 -49 68 -14 32 -25
27 -40 -18z"/>
<path d="M2281 4880 c-7 -23 -23 -47 -37 -57 -25 -16 -25 -17 -8 -30 26 -19
34 -16 34 12 0 14 3 25 8 25 4 1 20 11 36 24 24 20 27 26 17 45 -18 32 -37 25
-50 -19z"/>
<path d="M4824 4897 c-7 -20 1 -47 16 -47 12 0 13 30 0 50 -8 12 -10 12 -16
-3z"/>
<path d="M1348 4884 c-12 -11 -10 -52 3 -59 17 -11 23 3 13 36 -5 17 -12 27
-16 23z"/>
<path d="M5187 4883 c-3 -5 -1 -26 3 -48 l8 -40 1 48 c1 45 -2 56 -12 40z"/>
<path d="M2012 4863 c4 -22 43 -25 43 -3 0 8 -11 16 -23 18 -19 3 -23 0 -20
-15z"/>
<path d="M5614 4845 c-9 -14 -27 -28 -40 -31 -35 -9 -29 -19 12 -20 20 0 40
-7 45 -15 12 -19 11 -76 -1 -84 -17 -10 -11 -23 12 -27 14 -2 25 -13 29 -28 6
-22 7 -20 8 11 1 45 21 63 61 56 37 -8 43 2 19 32 l-20 24 -14 -20 c-15 -22
-52 -21 -67 1 -13 19 -9 63 7 76 14 12 14 15 -1 31 -22 25 -30 24 -50 -6z"/>
<path d="M2155 4825 c-4 -17 -14 -35 -22 -41 -12 -10 -10 -17 11 -48 28 -41
31 -39 39 24 5 30 2 53 -7 70 l-14 25 -7 -30z"/>
<path d="M1557 4811 c-4 -20 -3 -39 3 -45 17 -17 23 1 13 41 l-9 38 -7 -34z"/>
<path d="M4850 4827 c0 -9 6 -22 13 -29 16 -18 36 -49 43 -68 3 -8 11 -26 19
-40 7 -14 16 -40 20 -58 4 -20 11 -31 18 -28 7 4 20 9 30 12 15 6 13 12 -18
49 -19 24 -35 48 -35 54 0 7 -7 14 -15 17 -8 4 -15 14 -15 25 0 10 -6 22 -14
26 -8 4 -15 17 -17 27 -5 23 -29 34 -29 13z"/>
<path d="M2011 4765 c0 -33 -1 -67 -2 -75 -1 -8 -1 -24 0 -35 2 -14 6 -10 13
15 13 45 13 76 0 120 -10 33 -11 32 -11 -25z"/>
<path d="M3663 4781 c-28 -26 -43 -49 -43 -65 0 -13 -3 -26 -7 -28 -5 -1 -16
-20 -25 -40 -15 -31 -23 -38 -47 -38 -16 0 -34 7 -41 15 -7 8 -22 15 -34 15
-12 0 -34 14 -49 31 -23 27 -27 28 -27 11 0 -27 55 -72 89 -72 29 0 48 -24 53
-70 4 -37 22 -30 28 10 9 54 16 60 75 60 47 0 57 -4 70 -24 24 -36 5 -66 -39
-66 -19 0 -40 -7 -47 -16 -9 -11 -23 -14 -47 -11 -23 4 -35 2 -39 -9 -6 -16
-25 -18 -53 -4 -11 6 -29 15 -40 20 -15 8 -24 6 -40 -10 -27 -27 -25 -43 11
-85 25 -28 38 -35 66 -35 25 0 43 -7 59 -26 31 -32 30 -52 -1 -64 -14 -5 -25
-14 -25 -20 0 -6 -26 -10 -59 -10 -65 0 -76 -8 -67 -46 7 -26 26 -33 26 -10 0
16 21 26 55 26 13 0 30 7 39 15 8 8 23 15 33 15 11 0 28 7 39 15 10 8 24 15
29 15 13 0 42 -55 50 -97 4 -18 11 -33 16 -33 5 0 9 -10 9 -22 0 -34 11 -68
21 -68 15 0 10 67 -6 80 -8 7 -15 27 -15 46 0 18 -7 39 -15 48 -22 22 -19 63
6 77 17 9 25 7 45 -12 13 -12 24 -30 24 -40 0 -10 7 -24 15 -33 8 -8 15 -23
15 -33 0 -11 7 -28 15 -39 8 -10 15 -29 15 -41 0 -12 4 -24 9 -27 5 -3 14 -26
20 -51 6 -25 16 -45 21 -45 6 0 10 -17 10 -39 0 -22 6 -44 15 -51 8 -7 15 -24
15 -39 0 -42 35 -123 64 -148 36 -30 33 -72 -6 -91 -16 -7 -28 -17 -28 -22 0
-5 -8 -11 -17 -14 -16 -5 -18 -18 -15 -116 2 -60 7 -110 11 -110 11 0 21 77
21 157 0 57 2 64 23 72 31 13 57 47 57 76 0 13 -9 41 -21 61 -18 32 -19 43
-10 80 13 52 14 151 2 158 -12 8 -21 -30 -21 -96 0 -45 -3 -58 -15 -58 -10 0
-15 10 -15 29 0 16 -7 36 -15 45 -8 8 -15 32 -15 55 0 22 -5 43 -11 47 -7 4
-9 26 -5 63 13 108 14 104 -20 113 -35 9 -84 65 -84 96 0 11 -6 25 -14 31 -8
7 -17 22 -20 35 -9 36 -34 40 -72 11 -18 -14 -41 -25 -51 -25 -25 1 -53 24
-53 44 0 9 -5 16 -10 16 -6 0 -15 11 -21 24 -16 35 3 66 42 66 17 0 32 6 35
15 4 10 20 15 45 15 26 0 42 5 45 15 4 9 19 15 40 15 22 0 37 -6 40 -15 4 -8
15 -15 26 -15 11 0 26 -7 34 -15 9 -8 33 -15 54 -15 21 0 40 -5 42 -11 2 -6
19 -14 38 -18 l35 -7 0 -102 c1 -55 4 -104 7 -108 6 -6 81 24 118 47 8 5 24
14 35 19 70 35 80 46 83 87 2 27 -2 44 -13 53 -8 7 -15 22 -15 34 0 12 -5 27
-12 34 -8 8 -5 20 15 46 37 47 35 87 -4 120 -26 22 -37 25 -72 20 -23 -4 -52
-11 -65 -15 -28 -11 -42 -2 -96 59 -21 23 -44 42 -51 42 -7 0 -15 7 -19 15 -3
8 -16 15 -30 15 -13 0 -26 5 -28 12 -3 8 -32 14 -79 16 l-74 4 -42 -41z m201
-6 c3 -8 15 -15 26 -15 11 0 23 -7 26 -15 4 -8 10 -15 15 -15 9 0 79 -67 79
-75 0 -18 -45 -45 -74 -45 -18 0 -39 -6 -46 -14 -6 -8 -28 -16 -47 -18 -20 -2
-38 -9 -41 -15 -5 -19 53 -17 72 2 8 8 30 15 49 15 19 0 40 7 47 15 7 8 27 15
46 15 18 0 39 7 48 15 8 8 26 15 41 15 14 0 35 5 46 10 31 17 69 -14 69 -56 0
-27 -5 -36 -24 -44 -13 -5 -27 -14 -31 -19 -3 -6 -14 -11 -24 -11 -10 0 -24
-7 -31 -15 -7 -8 -23 -15 -35 -15 -12 0 -28 -7 -35 -15 -8 -9 -30 -15 -60 -15
-30 0 -52 6 -60 15 -7 8 -27 15 -46 15 -24 0 -43 10 -71 35 -21 19 -44 35 -50
35 -7 0 -13 8 -13 19 0 23 -44 54 -85 61 -34 6 -46 39 -20 60 8 7 15 18 15 26
0 7 10 24 23 38 20 21 31 24 103 25 64 1 83 -2 88 -14z m326 -310 c0 -17 -8
-29 -22 -35 -13 -6 -30 -14 -38 -19 -8 -5 -23 -12 -32 -15 -10 -3 -18 -10 -18
-16 0 -15 41 -12 59 4 9 7 28 16 44 20 23 5 29 2 39 -19 10 -23 9 -29 -15 -51
-14 -13 -33 -24 -40 -24 -8 0 -20 -7 -27 -15 -7 -8 -18 -15 -25 -15 -7 0 -18
-7 -25 -15 -7 -8 -21 -15 -32 -15 -17 0 -18 7 -16 103 3 100 3 102 28 105 14
2 29 10 33 18 5 8 24 14 47 14 36 0 40 -3 40 -25z m-724 -5 c17 0 19 -46 3
-56 -15 -9 -63 41 -54 56 4 6 14 9 22 6 8 -3 21 -6 29 -6z m394 -344 c0 -8 -4
-17 -9 -21 -12 -7 -24 12 -16 25 9 15 25 12 25 -4z"/>
<path d="M5782 4806 c1 -10 8 -17 13 -17 15 1 12 24 -3 29 -9 3 -13 -2 -10
-12z"/>
<path d="M1370 4790 c0 -11 6 -23 14 -26 8 -3 17 -16 20 -30 4 -13 11 -24 16
-24 6 0 10 -8 10 -19 0 -10 6 -24 14 -30 8 -7 17 -28 21 -47 3 -19 12 -37 19
-40 9 -4 12 -18 8 -49 -6 -54 5 -118 19 -109 6 3 9 31 7 64 -2 40 2 62 12 75
11 14 12 19 3 22 -7 3 -13 9 -13 14 0 9 -6 18 -40 58 -23 28 -39 54 -51 84 -6
15 -15 27 -19 27 -4 0 -11 11 -14 25 -8 30 -26 33 -26 5z"/>
<path d="M5485 4791 c-3 -11 -3 -31 1 -43 6 -21 7 -21 21 6 13 25 13 30 0 43
-13 14 -16 13 -22 -6z"/>
<path d="M2433 4735 c0 -38 2 -53 4 -32 2 20 2 52 0 70 -2 17 -4 1 -4 -38z"/>
<path d="M2292 4778 c-7 -7 -12 -24 -12 -39 0 -15 -4 -31 -10 -34 -17 -11 -11
-37 8 -33 12 2 16 11 14 29 -2 15 4 33 12 42 17 16 22 47 8 47 -4 0 -13 -5
-20 -12z"/>
<path d="M5248 4764 c-5 -4 -8 -16 -8 -26 0 -12 -7 -18 -21 -18 -16 0 -20 -5
-17 -27 4 -37 26 -41 34 -6 4 15 11 33 16 40 11 14 7 49 -4 37z"/>
<path d="M5815 4760 c-4 -6 -2 -17 4 -23 15 -15 25 -2 13 19 -7 12 -11 13 -17
4z"/>
<path d="M5913 4725 c0 -27 2 -38 4 -22 2 15 2 37 0 50 -2 12 -4 0 -4 -28z"/>
<path d="M1585 4730 c-4 -6 -2 -17 4 -23 15 -15 25 -2 13 19 -7 12 -11 13 -17
4z"/>
<path d="M5090 4723 c0 -13 47 -53 53 -46 4 3 -4 16 -16 29 -22 24 -37 30 -37
17z"/>
<path d="M5486 4701 c-4 -6 -3 -18 2 -27 6 -11 11 -13 16 -5 4 6 3 18 -2 27
-6 11 -11 13 -16 5z"/>
<path d="M1740 4670 c-8 -19 -9 -44 -4 -72 l7 -43 11 42 c6 23 14 45 19 49 12
12 8 42 -7 47 -9 4 -19 -5 -26 -23z"/>
<path d="M1630 4665 c13 -14 25 -25 27 -25 2 0 -4 11 -13 25 -9 14 -21 25 -27
25 -6 0 0 -11 13 -25z"/>
<path d="M2175 4661 c-3 -10 -15 -23 -28 -29 -22 -11 -22 -11 -1 -11 12 -1 27
-8 34 -16 16 -19 34 -20 27 -1 -3 8 0 22 8 32 9 13 10 23 3 31 -15 19 -36 16
-43 -6z"/>
<path d="M5786 4671 c-4 -6 -3 -18 2 -27 8 -14 10 -14 15 -2 7 19 -8 44 -17
29z"/>
<path d="M2300 4648 c0 -7 5 -20 10 -28 8 -12 10 -9 10 13 0 15 -4 27 -10 27
-5 0 -10 -6 -10 -12z"/>
<path d="M5531 4651 c-9 -6 -11 -16 -7 -27 7 -17 9 -17 19 -3 7 8 21 21 32 27
19 11 19 11 -5 12 -14 0 -31 -4 -39 -9z"/>
<path d="M5223 4600 c0 -30 2 -43 4 -27 2 15 2 39 0 55 -2 15 -4 2 -4 -28z"/>
<path d="M2040 4596 c0 -9 4 -16 9 -16 5 0 12 -15 16 -32 l7 -33 8 34 c4 18
14 37 22 42 10 7 10 9 -2 9 -8 0 -25 3 -37 6 -17 5 -23 2 -23 -10z"/>
<path d="M2212 4554 c1 -9 9 -19 16 -22 9 -3 13 2 10 14 -1 9 -9 19 -16 22 -9
3 -13 -2 -10 -14z"/>
<path d="M1649 4495 c-3 -38 -3 -79 1 -89 12 -34 16 4 10 84 l-5 75 -6 -70z"/>
<path d="M4971 4519 c2 -64 10 -100 20 -93 7 4 8 26 4 58 -8 60 -25 85 -24 35z"/>
<path d="M5406 4511 c-7 -10 43 -25 52 -16 7 7 -18 25 -35 25 -6 0 -14 -4 -17
-9z"/>
<path d="M1881 4480 c-9 -5 -8 -9 5 -14 9 -4 21 -3 26 2 12 12 -15 23 -31 12z"/>
<path d="M5126 4458 c-10 -33 2 -74 16 -60 7 7 7 23 1 49 -10 37 -10 38 -17
11z"/>
<path d="M1525 4367 c-9 -23 3 -89 16 -82 11 7 11 52 -1 80 -7 18 -8 19 -15 2z"/>
<path d="M5006 4372 c-9 -16 2 -72 15 -72 11 0 11 37 0 64 -5 14 -10 16 -15 8z"/>
<path d="M7344 4369 c-4 -7 0 -17 8 -23 8 -6 18 -22 23 -35 4 -14 11 -19 16
-14 11 11 2 43 -12 43 -5 0 -9 6 -9 14 0 20 -17 29 -26 15z"/>
<path d="M5156 4343 c-4 -13 -3 -30 2 -39 8 -15 10 -15 15 0 4 9 3 26 -2 38
l-8 23 -7 -22z"/>
<path d="M1682 4310 c0 -19 2 -27 5 -17 2 9 2 25 0 35 -3 9 -5 1 -5 -18z"/>
<path d="M5030 4267 c0 -23 11 -47 22 -47 14 0 5 53 -9 58 -7 2 -13 -3 -13
-11z"/>
<path d="M1550 4236 c0 -24 16 -43 27 -32 8 8 -6 56 -17 56 -6 0 -10 -11 -10
-24z"/>
<path d="M1710 4218 c0 -16 5 -28 10 -28 13 0 13 20 0 40 -8 12 -10 9 -10 -12z"/>
<path d="M5061 4066 c0 -79 -5 -155 -11 -170 -9 -26 5 -235 17 -246 3 -3 3 47
0 112 -5 93 -3 117 8 121 8 4 15 28 18 69 2 35 10 81 17 104 12 37 11 46 -10
97 -13 32 -27 57 -31 57 -5 0 -8 -65 -8 -144z"/>
<path d="M3986 4168 c-11 -41 -7 -183 5 -171 14 14 25 193 12 193 -6 0 -13
-10 -17 -22z"/>
<path d="M7497 4043 c-11 -10 -8 -131 3 -138 6 -4 10 22 10 69 0 76 -1 82 -13
69z"/>
<path d="M7136 3941 c-6 -10 26 -21 62 -21 21 0 22 -4 22 -86 0 -47 -5 -94
-10 -104 -13 -25 -25 -202 -15 -227 7 -17 8 -17 15 2 5 11 9 62 9 113 1 51 6
102 11 113 6 10 14 48 17 84 6 71 15 85 41 62 9 -7 25 -17 35 -20 15 -6 17
-20 17 -104 0 -114 15 -116 27 -3 l8 75 48 6 c46 5 67 19 67 47 0 19 -14 14
-28 -9 -12 -19 -20 -21 -58 -15 -25 3 -59 17 -77 30 -67 50 -176 82 -191 57z"/>
<path d="M6115 3800 c-3 -25 -2 -56 3 -70 8 -22 10 -21 16 21 4 25 3 56 -2 70
-9 22 -10 20 -17 -21z"/>
<path d="M5276 3732 c-3 -3 -3 -9 0 -13 10 -17 84 -7 84 11 0 8 -76 10 -84 2z"/>
<path d="M5760 3676 c0 -8 5 -18 10 -21 6 -3 10 3 10 14 0 12 -4 21 -10 21 -5
0 -10 -6 -10 -14z"/>
<path d="M3830 3626 c0 -28 4 -36 19 -36 14 0 17 6 14 25 -3 13 -11 30 -19 36
-12 9 -14 5 -14 -25z"/>
<path d="M6086 3627 c-4 -20 -3 -45 2 -54 8 -14 11 -11 16 13 4 17 3 41 -2 54
-8 23 -9 22 -16 -13z"/>
<path d="M6838 3545 c-4 -19 2 -30 28 -50 18 -14 39 -25 47 -25 8 0 20 -7 27
-15 7 -8 23 -15 35 -15 12 0 28 -7 35 -15 7 -8 20 -15 30 -15 10 0 23 -7 30
-15 7 -8 20 -15 29 -15 9 0 25 -7 35 -15 36 -27 56 -19 56 23 0 20 3 48 7 61
4 17 2 22 -8 19 -7 -2 -16 -19 -20 -37 -9 -43 -22 -56 -39 -36 -7 8 -20 15
-30 15 -10 0 -23 7 -30 15 -7 8 -21 15 -32 15 -11 0 -26 7 -34 15 -9 8 -24 15
-33 15 -10 0 -24 7 -31 15 -7 8 -21 15 -30 15 -10 0 -28 16 -40 35 -12 19 -23
35 -25 35 -1 0 -5 -11 -7 -25z"/>
<path d="M5997 3514 c-15 -16 -2 -128 14 -118 10 6 10 67 0 102 -3 13 -9 20
-14 16z"/>
<path d="M6060 3496 c0 -22 3 -27 11 -19 8 8 8 16 0 30 -9 16 -10 14 -11 -11z"/>
<path d="M6186 3451 c-4 -5 -2 -20 3 -33 9 -21 10 -21 10 10 1 32 -3 39 -13
23z"/>
<path d="M5995 3297 c-4 -19 -3 -43 3 -53 8 -14 11 -10 17 25 9 54 -10 81 -20
28z"/>
<path d="M1692 3218 c3 -7 15 -15 29 -16 13 -2 28 -10 32 -18 4 -8 19 -14 31
-14 13 0 26 -7 30 -15 3 -8 14 -15 24 -15 11 0 25 -7 32 -15 7 -8 20 -15 30
-15 10 0 23 -7 30 -15 7 -8 20 -15 30 -15 10 0 23 -7 30 -15 7 -8 20 -15 30
-15 10 0 23 -7 30 -15 7 -8 20 -15 30 -15 10 0 23 -7 30 -15 7 -8 19 -15 27
-15 8 0 21 -7 29 -15 9 -8 24 -15 34 -15 10 0 20 -7 24 -15 7 -18 60 -21 54
-2 -3 6 -14 13 -26 15 -11 2 -26 10 -32 18 -7 8 -20 14 -30 14 -10 0 -23 7
-30 15 -7 8 -20 15 -30 15 -10 0 -23 7 -30 15 -7 8 -20 15 -30 15 -10 0 -23 7
-30 15 -7 8 -20 15 -30 15 -10 0 -23 7 -30 15 -7 8 -20 15 -30 15 -10 0 -23 7
-30 15 -7 8 -20 15 -30 15 -10 0 -20 7 -24 15 -3 8 -17 15 -31 15 -14 0 -25 4
-25 10 0 5 -11 12 -25 16 -13 3 -29 12 -36 20 -14 18 -62 19 -57 2z"/>
<path d="M3155 3040 c-7 -11 42 -26 53 -16 7 8 -17 26 -35 26 -6 0 -15 -4 -18
-10z"/>
</g>
</svg>
