<?xml version="1.0" standalone="no"?>
<!DOCTYPE svg PUBLIC "-//W3C//DTD SVG 20010904//EN"
 "http://www.w3.org/TR/2001/REC-SVG-20010904/DTD/svg10.dtd">
<svg version="1.0" xmlns="http://www.w3.org/2000/svg"
 width="300.000000pt" height="399.000000pt" viewBox="0 0 300.000000 399.000000"
 preserveAspectRatio="xMidYMid meet">
<metadata>
Created by potrace 1.10, written by Peter Selinger 2001-2011
</metadata>
<g transform="translate(0.000000,399.000000) scale(0.100000,-0.100000)"
fill="#000000" stroke="none">
<path d="M520 3146 l0 -843 -25 5 -25 4 0 829 c0 761 -1 828 -16 822 -15 -6
-16 -71 -12 -760 l4 -753 -39 0 c-21 0 -55 -7 -74 -17 -66 -31 -138 -147 -158
-256 l-7 -37 -78 0 c-68 0 -79 -3 -85 -19 -13 -41 3 -51 81 -51 l74 0 0 -44
c0 -113 48 -244 111 -301 43 -39 96 -52 145 -37 l34 10 0 -589 c0 -386 3 -589
10 -589 7 0 10 207 10 600 0 358 4 600 9 600 42 0 41 21 41 -606 0 -524 2
-594 15 -594 14 0 15 69 13 595 -2 327 0 595 4 595 3 0 13 3 22 6 14 6 16 -51
16 -595 0 -528 2 -601 15 -601 13 0 15 64 15 518 0 284 3 628 7 765 l6 247 34
0 c30 0 33 -3 33 -30 0 -17 8 -45 18 -63 14 -27 17 -59 17 -202 0 -151 2 -174
20 -206 11 -20 31 -57 44 -82 40 -74 108 -89 168 -37 18 17 38 30 44 30 5 0
13 9 17 21 7 19 15 14 80 -56 40 -42 72 -81 72 -85 0 -4 -29 -5 -65 -2 -37 2
-70 0 -77 -5 -7 -6 -44 -16 -81 -23 l-68 -12 -105 -107 c-59 -58 -110 -116
-115 -129 -5 -13 -9 -44 -9 -69 0 -42 5 -50 63 -111 35 -37 76 -89 92 -117 15
-27 68 -89 118 -137 88 -86 90 -88 73 -110 -9 -13 -25 -39 -35 -59 -26 -46
-112 -124 -172 -155 -65 -32 -78 -84 -26 -100 12 -4 34 -16 49 -27 24 -17 32
-18 72 -8 25 6 58 11 73 11 18 0 57 20 108 55 43 30 96 60 116 65 101 28 114
82 45 194 -54 86 -69 120 -96 222 -28 105 -54 162 -92 201 -18 18 -29 35 -26
38 2 3 23 7 45 9 22 2 50 9 61 15 30 16 32 14 26 -18 -7 -32 17 -85 44 -100
10 -5 36 -42 57 -82 39 -71 89 -129 173 -203 49 -42 92 -101 92 -125 0 -9 -16
-39 -36 -66 -20 -28 -45 -68 -56 -90 -12 -22 -50 -73 -84 -113 -35 -40 -64
-82 -64 -93 0 -13 12 -25 33 -35 17 -9 44 -22 58 -30 40 -21 147 -22 188 -1
19 9 40 17 46 17 26 0 66 55 83 114 10 34 33 81 50 105 18 24 32 51 32 60 0
21 -26 94 -50 141 -11 22 -32 90 -46 152 -33 140 -59 192 -123 251 l-51 45 62
-1 c85 -3 121 15 179 87 44 55 49 66 49 112 0 77 -19 163 -48 219 -37 70 -38
73 -10 48 13 -13 36 -23 51 -23 30 0 140 78 152 107 44 109 74 275 75 416 0
64 19 137 35 137 8 0 10 -49 7 -151 -3 -103 -1 -154 7 -162 8 -8 11 -231 11
-809 0 -703 2 -798 15 -798 13 0 15 96 15 801 l0 801 23 -6 c12 -3 25 -6 30
-6 4 0 7 -358 7 -795 0 -734 1 -795 17 -795 15 0 16 58 9 794 l-7 793 23 7
c13 3 26 6 31 6 4 0 7 -360 7 -800 0 -527 3 -800 10 -800 7 0 10 273 10 799 0
587 3 802 11 807 8 5 10 33 6 93 -4 56 -3 81 3 71 5 -8 10 -24 10 -35 1 -59
82 -180 142 -211 88 -46 205 21 264 151 26 57 54 157 54 195 l0 25 117 0 118
0 0 30 c0 27 -4 30 -40 37 -22 4 -74 7 -115 7 l-76 1 -10 68 c-21 134 -97 251
-176 273 -54 14 -111 -4 -164 -53 -50 -46 -100 -139 -110 -204 -12 -85 -19
-52 -16 82 2 89 0 134 -7 134 -8 0 -11 243 -11 790 0 625 -3 790 -12 790 -10
0 -13 -165 -13 -792 l0 -793 -27 -3 -28 -3 0 810 c0 534 -3 811 -10 811 -7 0
-10 -277 -10 -811 l0 -810 -32 3 -33 3 1 793 c1 570 -2 792 -10 789 -8 -3 -12
-231 -14 -790 -1 -560 -5 -787 -13 -787 -8 0 -10 -44 -7 -140 1 -77 0 -140 -3
-140 -4 0 -14 11 -22 24 -11 16 -29 25 -59 30 -24 3 -64 11 -90 18 -52 13 -72
4 -89 -39 -8 -22 -14 -23 -99 -23 -88 0 -147 12 -230 46 -19 8 -55 18 -80 22
-37 6 -49 14 -74 50 -28 40 -29 43 -18 93 33 143 -15 236 -132 253 -97 15
-201 -35 -232 -111 -17 -40 -18 -174 -2 -243 13 -57 31 -70 94 -70 19 0 34 -4
34 -10 0 -16 -97 -12 -103 4 -3 8 -17 22 -30 31 -20 13 -35 14 -103 4 -43 -6
-86 -17 -95 -25 -8 -8 -31 -14 -51 -14 l-35 0 -6 143 c-4 78 -7 491 -7 918 0
681 -2 778 -15 783 -13 5 -15 -91 -15 -824 l0 -830 -22 0 -23 0 3 840 c2 744
0 840 -13 840 -13 0 -15 -98 -15 -844z m680 -634 c19 -9 45 -33 58 -52 24 -36
25 -67 6 -181 -7 -41 7 -74 55 -129 24 -28 32 -32 40 -21 11 17 79 7 87 -13 3
-8 27 -17 55 -20 97 -13 177 -119 170 -228 -1 -15 -7 -14 -60 7 -71 29 -148
44 -137 27 4 -7 17 -12 29 -12 13 0 41 -9 62 -20 22 -12 60 -26 85 -32 55 -13
76 -30 90 -74 11 -31 9 -37 -20 -74 -32 -41 -49 -90 -50 -142 0 -16 5 -28 10
-28 6 0 10 18 10 40 0 54 17 84 84 150 58 57 75 92 77 165 1 22 3 32 6 23 4
-18 23 -25 23 -10 0 17 -28 46 -61 61 -25 12 -35 25 -42 54 -5 21 -8 39 -6 41
2 2 21 6 42 9 32 5 38 3 35 -11 -2 -10 -14 -18 -30 -20 -20 -2 -25 -7 -21 -22
5 -18 7 -18 26 -5 12 8 34 15 48 15 26 0 27 -2 22 -42 -4 -29 -3 -39 5 -34 6
4 9 12 6 19 -9 25 21 48 69 52 l48 4 -26 -46 c-18 -32 -22 -49 -14 -53 14 -9
3 -181 -17 -265 -42 -172 -59 -203 -140 -250 -44 -26 -46 -26 -72 -8 -15 10
-39 23 -55 30 -15 7 -40 33 -55 58 -34 57 -73 116 -117 179 -46 64 -44 77 4
33 37 -34 116 -66 129 -52 9 9 -10 21 -57 34 -46 13 -96 55 -86 71 3 6 -3 10
-14 10 -13 0 -28 -15 -43 -42 -32 -58 -65 -73 -165 -73 -67 0 -86 4 -110 21
-44 33 -65 77 -65 139 -1 52 -10 71 -21 42 -7 -20 10 -112 28 -146 18 -35 69
-71 100 -71 15 0 16 -3 7 -9 -17 -10 44 -41 81 -41 28 0 73 -32 81 -58 6 -18
45 -47 53 -39 2 3 -6 16 -19 30 -13 14 -35 39 -49 56 -21 25 -35 31 -65 31
-22 0 -46 5 -54 10 -11 7 -3 10 30 10 70 1 132 19 162 47 26 25 26 25 37 5 14
-26 14 -32 -1 -32 -7 0 -21 -12 -31 -25 -15 -21 -16 -25 -3 -25 8 0 20 9 26
20 13 24 20 25 45 6 18 -13 18 -15 2 -30 -9 -10 -17 -22 -17 -27 0 -5 -10 -9
-22 -9 -16 0 -19 -3 -11 -11 12 -12 53 4 53 21 0 6 9 10 20 10 13 0 27 -14 41
-42 12 -24 28 -51 37 -61 14 -16 13 -19 -7 -41 -42 -45 -119 -79 -191 -84
l-66 -4 -54 51 -53 51 41 0 c49 0 72 -8 72 -25 0 -7 7 -19 16 -26 15 -12 16
-11 9 11 -14 47 -34 60 -94 60 -51 0 -58 3 -83 32 -20 24 -28 28 -28 16 0 -10
14 -27 30 -40 17 -12 30 -27 30 -33 0 -7 19 -29 43 -51 l42 -39 -33 -3 c-48
-5 -114 31 -144 78 -40 60 -42 75 -13 88 14 6 25 16 25 22 0 13 -1 13 -38 -6
-34 -17 -39 -31 -19 -54 6 -8 -7 3 -30 24 -24 23 -48 57 -57 81 l-14 43 45 5
c43 5 84 30 70 43 -3 3 -14 -1 -23 -11 -14 -14 -29 -16 -73 -12 -45 5 -61 12
-83 36 -36 41 -55 127 -39 181 11 38 9 60 -7 60 -4 0 -8 -15 -9 -32 -7 -138 4
-197 44 -234 29 -27 25 -54 -15 -91 -23 -21 -23 -23 -5 -23 20 0 56 33 66 60
3 11 8 7 16 -13 27 -69 26 -72 -31 -115 -47 -35 -59 -39 -88 -33 -18 3 -37 13
-41 21 -4 8 -25 44 -46 79 l-38 65 0 163 c0 135 2 163 14 163 9 0 3 11 -16 30
-17 17 -33 38 -35 48 -4 14 3 17 44 19 46 1 48 0 34 -16 -9 -10 -16 -26 -16
-37 0 -25 26 -62 36 -51 4 4 2 13 -4 19 -17 17 -15 48 5 70 29 33 42 23 27
-21 -10 -30 -11 -53 -2 -104 9 -58 9 -70 -8 -104 -19 -39 -24 -116 -13 -201
10 -75 24 -40 20 49 -4 102 4 149 26 149 11 0 14 6 9 23 -3 12 -9 56 -12 97
-8 113 15 140 164 196 30 11 33 10 50 -14 11 -14 22 -21 25 -15 4 6 -2 22 -13
36 -27 34 -25 42 10 57 48 20 80 56 80 90 0 37 -18 40 -22 3 -2 -19 -16 -37
-46 -58 -36 -25 -53 -30 -95 -28 -35 1 -55 6 -63 18 -33 44 -30 238 3 284 47
64 169 91 243 53z m-752 -144 c2 -36 -1 -58 -8 -58 -7 0 -10 -97 -10 -300 l0
-299 -34 -6 c-131 -25 -239 194 -206 419 27 185 118 310 220 303 l35 -2 3 -57z
m2147 -8 c60 -37 113 -141 128 -252 l7 -47 -93 -3 -92 -3 0 -30 0 -30 92 -3
93 -3 -6 -47 c-28 -213 -170 -366 -284 -304 -143 77 -190 371 -95 587 58 132
163 189 250 135z m-457 -30 l22 0 0 -310 0 -310 -40 0 -40 0 0 299 c0 165 -3
307 -7 317 -5 14 -2 16 18 11 13 -4 34 -7 47 -7z m117 -302 l0 -313 -37 -3
-38 -3 0 310 0 310 28 4 c15 2 32 5 37 6 7 0 10 -108 10 -311z m-1754 252 c18
0 19 -11 19 -273 l0 -273 -35 4 -35 4 0 275 c0 247 2 275 16 269 9 -3 24 -6
35 -6z m109 -270 l0 -270 -30 0 -29 0 -3 270 -3 270 33 0 32 0 0 -270z m186
75 c1 -30 -2 -55 -6 -55 -21 0 -28 95 -7 103 6 3 12 6 12 6 0 1 0 -24 1 -54z
m46 30 c-5 -29 -32 -34 -32 -7 0 22 8 32 25 32 8 0 10 -10 7 -25z m86 8 c2 -8
-5 -13 -16 -13 -11 0 -22 -7 -26 -15 -3 -8 -12 -15 -21 -15 -17 0 -18 4 -9 38
5 19 12 22 37 20 17 -2 32 -9 35 -15z m921 -4 c-11 -11 -18 -27 -15 -35 3 -9
-1 -14 -14 -14 -11 0 -20 6 -20 13 0 22 31 57 51 57 18 0 18 -1 -2 -21z
m-1093 -44 c1 -57 -3 -64 -24 -43 -13 13 -17 80 -5 91 18 19 28 2 29 -48z
m1133 34 c-6 -12 -9 -34 -7 -51 3 -16 1 -31 -4 -34 -4 -3 -8 4 -8 15 0 11 -4
23 -10 26 -15 9 -12 31 6 49 23 23 37 20 23 -5z m54 14 c4 -3 2 -12 -4 -20 -7
-7 -9 -28 -6 -48 5 -30 3 -35 -14 -35 -19 0 -25 18 -20 64 3 33 28 55 44 39z
m-1783 -24 c0 -19 -4 -20 -67 -14 -75 8 -86 12 -78 26 4 5 37 9 76 9 63 0 69
-2 69 -21z m1851 -5 c11 -14 10 -15 -7 -12 -16 2 -19 -2 -16 -30 2 -27 -1 -33
-15 -30 -23 4 -39 54 -23 73 16 20 44 19 61 -1z m-1311 -14 c0 -16 -7 -20 -35
-20 -28 0 -35 4 -35 20 0 16 7 20 35 20 28 0 35 -4 35 -20z m261 1 c-20 -15
-28 -17 -43 -8 -29 19 -21 27 25 27 l42 0 -24 -19z m752 -11 c54 0 57 -1 47
-19 -9 -17 -18 -19 -67 -14 -32 3 -64 10 -70 16 -21 16 -15 30 10 23 12 -3 48
-6 80 -6z m-818 -24 c-28 -23 -46 -24 -72 -3 -25 19 -12 27 45 27 l57 0 -30
-24z m1163 2 c3 -14 -3 -18 -27 -18 -25 0 -31 4 -31 21 0 16 5 20 27 17 17 -2
29 -10 31 -20z m740 -8 c149 0 152 0 152 -22 0 -21 0 -21 -191 -15 -105 3
-194 8 -196 11 -3 3 -3 13 1 22 5 13 14 15 44 10 20 -3 106 -6 190 -6z m-1038
-45 c0 -25 20 -50 55 -70 16 -10 17 -17 7 -74 -12 -67 -36 -116 -52 -106 -6 4
-10 16 -10 29 0 12 -13 35 -29 52 -19 19 -30 44 -35 75 -4 26 -15 63 -25 83
l-19 36 54 0 c51 0 54 -1 54 -25z m-80 -617 c0 -13 -50 -41 -98 -54 l-47 -13
37 0 c43 -1 78 11 102 34 21 22 31 13 17 -13 -18 -34 -13 -63 19 -99 47 -53
39 -100 -29 -160 -21 -19 -30 -32 -21 -33 23 0 90 71 90 96 0 13 5 26 10 29 6
4 10 -11 10 -37 0 -84 -75 -175 -167 -203 -20 -6 -20 -3 7 24 45 45 41 82 -20
168 -63 91 -95 114 -168 120 -50 4 -62 2 -97 -22 l-40 -27 31 32 c17 17 48 37
69 45 46 15 136 10 177 -11 31 -16 38 -17 38 -6 0 5 -10 14 -22 20 -20 9 -14
11 35 11 34 1 56 5 52 11 -3 5 -60 7 -143 3 -110 -4 -143 -9 -169 -25 -38 -23
-89 -78 -98 -108 -10 -32 -27 -19 -40 32 -6 25 -19 58 -28 72 -18 26 -37 35
-37 16 0 -5 4 -10 8 -10 13 0 32 -47 32 -76 0 -14 7 -38 14 -53 14 -26 13 -31
-10 -64 -13 -20 -24 -40 -24 -44 0 -9 -52 -43 -65 -43 -4 0 -2 7 5 15 18 22 8
104 -19 156 -34 65 -70 98 -120 111 l-45 11 85 18 c93 19 153 12 198 -23 26
-20 96 -24 121 -8 11 7 2 10 -33 10 -50 0 -97 22 -97 46 0 12 5 11 25 -2 14
-9 54 -19 89 -21 122 -10 258 29 316 92 23 24 25 25 37 9 7 -10 13 -21 13 -26z
m55 -84 c20 -50 20 -71 -1 -54 -24 21 -36 49 -29 70 9 27 12 25 30 -16z m-745
-56 c37 -19 51 -35 77 -86 35 -67 42 -122 19 -141 -7 -6 -44 -21 -82 -34 -47
-15 -70 -28 -72 -39 -4 -22 14 -23 35 -2 14 14 18 13 45 -13 41 -39 63 -85 99
-210 34 -118 49 -151 110 -245 56 -87 47 -123 -38 -146 -22 -7 -63 -28 -90
-47 -86 -62 -115 -74 -194 -77 -61 -2 -74 0 -77 13 -2 11 6 18 28 22 16 4 30
12 30 18 0 6 -7 8 -16 5 -9 -3 -22 -6 -29 -6 -8 0 -21 -7 -29 -16 -19 -18 -36
-10 -36 16 0 14 18 29 60 50 71 36 125 82 147 124 9 17 26 44 39 59 41 49 33
69 -62 160 -47 45 -99 107 -116 137 -17 30 -57 80 -89 111 -97 95 -94 139 17
253 81 83 127 116 159 116 12 0 41 -10 65 -22z m496 -44 c13 -9 46 -45 74 -80
40 -51 50 -71 50 -102 0 -55 -27 -77 -96 -77 -31 0 -54 -4 -54 -10 0 -6 25
-35 56 -65 75 -74 98 -116 128 -239 15 -57 40 -137 57 -177 29 -70 30 -76 15
-99 -18 -27 -21 -45 -7 -45 5 0 11 9 14 20 3 11 10 20 16 20 14 0 14 -27 1
-35 -28 -18 -67 -99 -84 -177 -5 -23 -22 -36 -87 -68 -45 -23 -85 -37 -92 -33
-6 4 -29 8 -50 8 -47 1 -76 27 -57 49 8 10 8 16 2 16 -6 0 -14 -4 -17 -10 -10
-16 -45 -12 -45 6 0 9 32 52 70 95 39 44 70 85 70 92 0 7 23 41 50 76 28 36
50 67 50 70 0 3 -5 24 -11 46 -8 31 -35 64 -113 140 -69 69 -112 121 -135 165
-19 36 -52 82 -73 103 -59 59 -54 95 33 223 34 49 77 90 109 103 31 13 94 6
126 -15z"/>
<path d="M1230 2325 c0 -22 4 -34 10 -30 6 3 10 17 10 30 0 13 -4 27 -10 30
-6 4 -10 -8 -10 -30z"/>
<path d="M1187 2182 c-19 -47 -22 -92 -7 -92 6 0 10 14 10 31 0 17 5 39 11 50
5 11 9 28 7 37 -2 11 -10 1 -21 -26z"/>
<path d="M1380 2070 c-34 -33 -37 -40 -15 -40 9 0 21 11 27 25 6 14 17 25 25
25 7 0 13 5 13 10 0 18 -19 11 -50 -20z"/>
<path d="M1030 2009 c0 -11 7 -22 15 -25 8 -4 15 -15 15 -25 0 -11 7 -19 16
-19 21 0 10 33 -22 65 -22 23 -24 23 -24 4z"/>
<path d="M1225 2002 c-16 -10 -42 -22 -57 -25 -26 -7 -40 -37 -18 -37 6 0 10
5 10 10 0 6 7 10 16 10 9 0 32 9 51 21 19 12 43 19 54 16 13 -3 19 -1 16 6 -6
19 -40 19 -72 -1z"/>
<path d="M1910 1900 c0 -16 5 -30 10 -30 6 0 10 9 10 20 0 11 5 20 11 20 5 0
7 5 4 10 -14 22 -35 10 -35 -20z"/>
<path d="M1130 1612 c0 -9 -10 -22 -22 -27 -27 -12 -45 -75 -21 -75 10 0 12 6
8 19 -4 14 2 26 25 42 28 22 41 59 20 59 -5 0 -10 -8 -10 -18z"/>
<path d="M1170 1592 c0 -52 20 -67 89 -68 31 0 67 -4 81 -8 24 -7 24 -7 6 8
-12 9 -39 16 -65 16 -76 0 -91 8 -91 46 0 18 -4 36 -10 39 -6 4 -10 -9 -10
-33z"/>
<path d="M1885 1503 c-11 -26 -21 -51 -23 -55 -2 -4 1 -8 6 -8 8 0 52 88 52
104 0 20 -18 -1 -35 -41z"/>
<path d="M1512 1478 c-15 -41 -10 -46 13 -12 10 15 13 30 8 35 -5 5 -14 -5
-21 -23z"/>
<path d="M862 1473 c-6 -2 -10 -8 -8 -12 7 -10 76 -1 76 10 0 9 -46 11 -68 2z"/>
<path d="M1460 1427 c19 -19 37 -33 39 -31 9 8 -37 59 -55 63 -14 2 -10 -6 16
-32z"/>
<path d="M1203 1426 c-24 -11 -30 -31 -13 -41 6 -3 10 0 10 8 0 8 9 17 20 20
11 3 20 10 20 16 0 13 -7 12 -37 -3z"/>
<path d="M1530 1435 c-1 -5 -2 -14 -1 -19 1 -5 -6 -17 -15 -27 -10 -11 -15
-21 -12 -24 11 -11 39 35 35 57 -2 13 -5 19 -7 13z"/>
<path d="M1753 1423 c-23 -9 -14 -18 17 -17 27 1 58 14 32 14 -5 0 -16 2 -24
4 -7 3 -19 2 -25 -1z"/>
<path d="M357 2394 c-79 -53 -117 -161 -117 -334 0 -130 16 -210 55 -268 26
-39 82 -79 93 -67 4 4 1 10 -6 12 -91 33 -147 216 -124 403 16 131 54 206 125
250 16 10 25 20 20 23 -6 4 -26 -5 -46 -19z"/>
<path d="M2479 2347 c-51 -34 -95 -107 -113 -186 -32 -139 -15 -342 36 -432
23 -41 93 -97 106 -85 4 4 -2 12 -13 18 -39 22 -84 78 -102 130 -14 43 -18 83
-18 208 1 137 3 162 23 211 22 56 79 124 113 134 19 6 27 25 10 25 -4 0 -23
-10 -42 -23z"/>
<path d="M936 1150 c-9 -22 -16 -49 -16 -59 0 -10 -9 -30 -21 -45 -16 -20 -17
-26 -6 -26 21 0 36 22 51 76 8 27 17 59 21 72 13 39 -12 24 -29 -18z"/>
<path d="M990 1048 c-16 -22 -30 -45 -30 -50 0 -16 20 -8 31 15 6 12 23 34 37
50 21 22 23 27 9 27 -9 0 -30 -19 -47 -42z"/>
<path d="M740 1072 c0 -33 109 -89 124 -64 3 5 -9 13 -27 16 -19 3 -44 17 -57
31 -24 25 -40 32 -40 17z"/>
<path d="M794 935 c-1 -48 12 -60 22 -21 6 26 -2 66 -14 66 -4 0 -7 -20 -8
-45z"/>
<path d="M886 851 c-4 -5 10 -40 29 -78 50 -96 123 -169 146 -146 6 6 -6 20
-31 37 -42 28 -120 137 -120 168 0 20 -16 32 -24 19z"/>
<path d="M1150 491 c0 -5 8 -23 18 -40 14 -26 15 -34 4 -52 -16 -25 -8 -37 13
-19 19 16 19 64 0 80 -8 7 -15 19 -15 26 0 8 -4 14 -10 14 -5 0 -10 -4 -10 -9z"/>
<path d="M1033 408 c-31 -34 -65 -106 -53 -113 5 -3 15 7 22 22 7 15 23 42 36
60 29 39 25 64 -5 31z"/>
<path d="M1315 1109 c-4 -6 2 -13 14 -16 12 -3 24 -17 27 -32 9 -34 23 -51 42
-51 13 0 13 2 -1 18 -10 10 -17 26 -17 35 0 18 -34 57 -49 57 -6 0 -13 -5 -16
-11z"/>
<path d="M1566 994 c-11 -8 -33 -14 -49 -14 -37 0 -95 -27 -108 -51 -13 -25
-1 -24 28 2 14 14 40 24 72 27 32 3 56 11 67 23 22 24 15 32 -10 13z"/>
<path d="M1337 971 c3 -12 0 -35 -7 -51 -15 -37 -4 -53 16 -25 17 23 15 87 -3
92 -7 3 -9 -3 -6 -16z"/>
<path d="M1270 861 c0 -5 16 -19 36 -31 41 -26 100 -102 139 -178 14 -30 29
-51 32 -48 4 3 -13 45 -37 91 -29 59 -58 100 -93 130 -46 42 -77 56 -77 36z"/>
<path d="M1576 324 c-12 -31 -44 -159 -41 -163 11 -11 26 19 40 84 16 72 17
120 1 79z"/>
<path d="M1395 120 c-6 -10 1 -14 19 -11 4 1 18 -4 30 -12 26 -17 93 -30 107
-21 16 10 -10 24 -46 24 -16 0 -41 7 -55 15 -30 17 -47 19 -55 5z"/>
</g>
</svg>
